G04 #@! TF.GenerationSoftware,KiCad,Pcbnew,(5.0.0)*
G04 #@! TF.CreationDate,2019-02-22T13:26:14-05:00*
G04 #@! TF.ProjectId,_saved_sensor_suite,5F73617665645F73656E736F725F7375,rev?*
G04 #@! TF.SameCoordinates,Original*
G04 #@! TF.FileFunction,Legend,Top*
G04 #@! TF.FilePolarity,Positive*
%FSLAX46Y46*%
G04 Gerber Fmt 4.6, Leading zero omitted, Abs format (unit mm)*
G04 Created by KiCad (PCBNEW (5.0.0)) date 02/22/19 13:26:14*
%MOMM*%
%LPD*%
G01*
G04 APERTURE LIST*
%ADD10C,0.300000*%
%ADD11C,0.120000*%
%ADD12C,0.150000*%
G04 APERTURE END LIST*
D10*
X133578571Y-95335714D02*
X133578571Y-96050000D01*
X132078571Y-96050000D01*
X133578571Y-94835714D02*
X132078571Y-94835714D01*
X133150000Y-94335714D01*
X132078571Y-93835714D01*
X133578571Y-93835714D01*
X132078571Y-93264285D02*
X132078571Y-92335714D01*
X132650000Y-92835714D01*
X132650000Y-92621428D01*
X132721428Y-92478571D01*
X132792857Y-92407142D01*
X132935714Y-92335714D01*
X133292857Y-92335714D01*
X133435714Y-92407142D01*
X133507142Y-92478571D01*
X133578571Y-92621428D01*
X133578571Y-93050000D01*
X133507142Y-93192857D01*
X133435714Y-93264285D01*
X132078571Y-91407142D02*
X132078571Y-91264285D01*
X132150000Y-91121428D01*
X132221428Y-91050000D01*
X132364285Y-90978571D01*
X132650000Y-90907142D01*
X133007142Y-90907142D01*
X133292857Y-90978571D01*
X133435714Y-91050000D01*
X133507142Y-91121428D01*
X133578571Y-91264285D01*
X133578571Y-91407142D01*
X133507142Y-91550000D01*
X133435714Y-91621428D01*
X133292857Y-91692857D01*
X133007142Y-91764285D01*
X132650000Y-91764285D01*
X132364285Y-91692857D01*
X132221428Y-91621428D01*
X132150000Y-91550000D01*
X132078571Y-91407142D01*
X132078571Y-90407142D02*
X132078571Y-89478571D01*
X132650000Y-89978571D01*
X132650000Y-89764285D01*
X132721428Y-89621428D01*
X132792857Y-89550000D01*
X132935714Y-89478571D01*
X133292857Y-89478571D01*
X133435714Y-89550000D01*
X133507142Y-89621428D01*
X133578571Y-89764285D01*
X133578571Y-90192857D01*
X133507142Y-90335714D01*
X133435714Y-90407142D01*
X145235714Y-94292857D02*
X145450000Y-94364285D01*
X145521428Y-94435714D01*
X145592857Y-94578571D01*
X145592857Y-94792857D01*
X145521428Y-94935714D01*
X145450000Y-95007142D01*
X145307142Y-95078571D01*
X144735714Y-95078571D01*
X144735714Y-93578571D01*
X145235714Y-93578571D01*
X145378571Y-93650000D01*
X145450000Y-93721428D01*
X145521428Y-93864285D01*
X145521428Y-94007142D01*
X145450000Y-94150000D01*
X145378571Y-94221428D01*
X145235714Y-94292857D01*
X144735714Y-94292857D01*
X146878571Y-95078571D02*
X146878571Y-94292857D01*
X146807142Y-94150000D01*
X146664285Y-94078571D01*
X146378571Y-94078571D01*
X146235714Y-94150000D01*
X146878571Y-95007142D02*
X146735714Y-95078571D01*
X146378571Y-95078571D01*
X146235714Y-95007142D01*
X146164285Y-94864285D01*
X146164285Y-94721428D01*
X146235714Y-94578571D01*
X146378571Y-94507142D01*
X146735714Y-94507142D01*
X146878571Y-94435714D01*
X147592857Y-95078571D02*
X147592857Y-94078571D01*
X147592857Y-94364285D02*
X147664285Y-94221428D01*
X147735714Y-94150000D01*
X147878571Y-94078571D01*
X148021428Y-94078571D01*
X148807142Y-93578571D02*
X148950000Y-93578571D01*
X149092857Y-93650000D01*
X149164285Y-93721428D01*
X149235714Y-93864285D01*
X149307142Y-94150000D01*
X149307142Y-94507142D01*
X149235714Y-94792857D01*
X149164285Y-94935714D01*
X149092857Y-95007142D01*
X148950000Y-95078571D01*
X148807142Y-95078571D01*
X148664285Y-95007142D01*
X148592857Y-94935714D01*
X148521428Y-94792857D01*
X148450000Y-94507142D01*
X148450000Y-94150000D01*
X148521428Y-93864285D01*
X148592857Y-93721428D01*
X148664285Y-93650000D01*
X148807142Y-93578571D01*
X149878571Y-93721428D02*
X149950000Y-93650000D01*
X150092857Y-93578571D01*
X150450000Y-93578571D01*
X150592857Y-93650000D01*
X150664285Y-93721428D01*
X150735714Y-93864285D01*
X150735714Y-94007142D01*
X150664285Y-94221428D01*
X149807142Y-95078571D01*
X150735714Y-95078571D01*
D11*
G04 #@! TO.C,J7*
X140890000Y-71890000D02*
X140890000Y-75910000D01*
X140890000Y-75910000D02*
X151110000Y-75910000D01*
X151110000Y-75910000D02*
X151110000Y-71890000D01*
X151110000Y-71890000D02*
X140890000Y-71890000D01*
X140890000Y-73600000D02*
X141390000Y-73600000D01*
X141390000Y-73600000D02*
X141390000Y-72390000D01*
X141390000Y-72390000D02*
X150610000Y-72390000D01*
X150610000Y-72390000D02*
X150610000Y-73600000D01*
X150610000Y-73600000D02*
X151110000Y-73600000D01*
X140890000Y-74410000D02*
X141890000Y-74410000D01*
X141890000Y-74410000D02*
X141890000Y-75910000D01*
X151110000Y-74410000D02*
X150110000Y-74410000D01*
X150110000Y-74410000D02*
X150110000Y-75910000D01*
X140590000Y-73710000D02*
X140590000Y-76210000D01*
X140590000Y-76210000D02*
X143090000Y-76210000D01*
G04 #@! TO.C,J8*
X155970000Y-103290000D02*
X158630000Y-103290000D01*
X155970000Y-80370000D02*
X155970000Y-103290000D01*
X158630000Y-80370000D02*
X158630000Y-103290000D01*
X155970000Y-80370000D02*
X158630000Y-80370000D01*
X155970000Y-79100000D02*
X155970000Y-77770000D01*
X155970000Y-77770000D02*
X157300000Y-77770000D01*
G04 #@! TO.C,J6*
X195170000Y-133290000D02*
X200370000Y-133290000D01*
X195170000Y-84970000D02*
X195170000Y-133290000D01*
X200370000Y-82370000D02*
X200370000Y-133290000D01*
X195170000Y-84970000D02*
X197770000Y-84970000D01*
X197770000Y-84970000D02*
X197770000Y-82370000D01*
X197770000Y-82370000D02*
X200370000Y-82370000D01*
X195170000Y-83700000D02*
X195170000Y-82370000D01*
X195170000Y-82370000D02*
X196500000Y-82370000D01*
G04 #@! TO.C,U1*
X168910000Y-105735000D02*
X168910000Y-106210000D01*
X168910000Y-106210000D02*
X168435000Y-106210000D01*
X164690000Y-102465000D02*
X164690000Y-101990000D01*
X164690000Y-101990000D02*
X165165000Y-101990000D01*
X164690000Y-105735000D02*
X164690000Y-106210000D01*
X164690000Y-106210000D02*
X165165000Y-106210000D01*
X168910000Y-102465000D02*
X168910000Y-101990000D01*
G04 #@! TO.C,U3*
X181020000Y-106060000D02*
X181950000Y-106060000D01*
X184180000Y-106060000D02*
X183250000Y-106060000D01*
X184180000Y-106060000D02*
X184180000Y-103900000D01*
X181020000Y-106060000D02*
X181020000Y-104600000D01*
G04 #@! TO.C,C9*
X179960000Y-105536252D02*
X179960000Y-105013748D01*
X178540000Y-105536252D02*
X178540000Y-105013748D01*
G04 #@! TO.C,JP1*
X172450000Y-133700000D02*
G75*
G02X173150000Y-133000000I700000J0D01*
G01*
X173150000Y-135000000D02*
G75*
G02X172450000Y-134300000I0J700000D01*
G01*
X176550000Y-134300000D02*
G75*
G02X175850000Y-135000000I-700000J0D01*
G01*
X175850000Y-133000000D02*
G75*
G02X176550000Y-133700000I0J-700000D01*
G01*
X173100000Y-133000000D02*
X175900000Y-133000000D01*
X176550000Y-133700000D02*
X176550000Y-134300000D01*
X175900000Y-135000000D02*
X173100000Y-135000000D01*
X172450000Y-134300000D02*
X172450000Y-133700000D01*
G04 #@! TO.C,JP2*
X177950000Y-133700000D02*
G75*
G02X178650000Y-133000000I700000J0D01*
G01*
X178650000Y-135000000D02*
G75*
G02X177950000Y-134300000I0J700000D01*
G01*
X182050000Y-134300000D02*
G75*
G02X181350000Y-135000000I-700000J0D01*
G01*
X181350000Y-133000000D02*
G75*
G02X182050000Y-133700000I0J-700000D01*
G01*
X178600000Y-133000000D02*
X181400000Y-133000000D01*
X182050000Y-133700000D02*
X182050000Y-134300000D01*
X181400000Y-135000000D02*
X178600000Y-135000000D01*
X177950000Y-134300000D02*
X177950000Y-133700000D01*
G04 #@! TO.C,JP3*
X166400000Y-133700000D02*
G75*
G02X167100000Y-133000000I700000J0D01*
G01*
X167100000Y-135000000D02*
G75*
G02X166400000Y-134300000I0J700000D01*
G01*
X170500000Y-134300000D02*
G75*
G02X169800000Y-135000000I-700000J0D01*
G01*
X169800000Y-133000000D02*
G75*
G02X170500000Y-133700000I0J-700000D01*
G01*
X167050000Y-133000000D02*
X169850000Y-133000000D01*
X170500000Y-133700000D02*
X170500000Y-134300000D01*
X169850000Y-135000000D02*
X167050000Y-135000000D01*
X166400000Y-134300000D02*
X166400000Y-133700000D01*
G04 #@! TO.C,JP4*
X160900000Y-133700000D02*
G75*
G02X161600000Y-133000000I700000J0D01*
G01*
X161600000Y-135000000D02*
G75*
G02X160900000Y-134300000I0J700000D01*
G01*
X165000000Y-134300000D02*
G75*
G02X164300000Y-135000000I-700000J0D01*
G01*
X164300000Y-133000000D02*
G75*
G02X165000000Y-133700000I0J-700000D01*
G01*
X161550000Y-133000000D02*
X164350000Y-133000000D01*
X165000000Y-133700000D02*
X165000000Y-134300000D01*
X164350000Y-135000000D02*
X161550000Y-135000000D01*
X160900000Y-134300000D02*
X160900000Y-133700000D01*
G04 #@! TO.C,R1*
X192040000Y-84963748D02*
X192040000Y-85486252D01*
X193460000Y-84963748D02*
X193460000Y-85486252D01*
G04 #@! TO.C,R2*
X192011252Y-88290000D02*
X191488748Y-88290000D01*
X192011252Y-89710000D02*
X191488748Y-89710000D01*
G04 #@! TO.C,C7*
X161290000Y-108513748D02*
X161290000Y-109036252D01*
X162710000Y-108513748D02*
X162710000Y-109036252D01*
G04 #@! TO.C,C8*
X161290000Y-104463748D02*
X161290000Y-104986252D01*
X162710000Y-104463748D02*
X162710000Y-104986252D01*
G04 #@! TO.C,C10*
X174540000Y-105013748D02*
X174540000Y-105536252D01*
X175960000Y-105013748D02*
X175960000Y-105536252D01*
G04 #@! TO.C,C6*
X165963748Y-109960000D02*
X166486252Y-109960000D01*
X165963748Y-108540000D02*
X166486252Y-108540000D01*
G04 #@! TO.C,J5*
X128170000Y-81670000D02*
X129500000Y-81670000D01*
X128170000Y-83000000D02*
X128170000Y-81670000D01*
X128170000Y-84270000D02*
X130830000Y-84270000D01*
X130830000Y-84270000D02*
X130830000Y-102110000D01*
X128170000Y-84270000D02*
X128170000Y-102110000D01*
X128170000Y-102110000D02*
X130830000Y-102110000D01*
G04 #@! TO.C,C2*
X167436252Y-90190000D02*
X166913748Y-90190000D01*
X167436252Y-91610000D02*
X166913748Y-91610000D01*
G04 #@! TO.C,C3*
X162910000Y-97386252D02*
X162910000Y-96863748D01*
X161490000Y-97386252D02*
X161490000Y-96863748D01*
G04 #@! TO.C,C4*
X172986252Y-98290000D02*
X172463748Y-98290000D01*
X172986252Y-99710000D02*
X172463748Y-99710000D01*
G04 #@! TO.C,C5*
X162263748Y-101210000D02*
X162786252Y-101210000D01*
X162263748Y-99790000D02*
X162786252Y-99790000D01*
G04 #@! TO.C,C1*
X170863748Y-95510000D02*
X171386252Y-95510000D01*
X170863748Y-94090000D02*
X171386252Y-94090000D01*
G04 #@! TO.C,J4*
X163290000Y-76210000D02*
X165790000Y-76210000D01*
X163290000Y-73710000D02*
X163290000Y-76210000D01*
X170310000Y-74410000D02*
X170310000Y-75910000D01*
X171310000Y-74410000D02*
X170310000Y-74410000D01*
X164590000Y-74410000D02*
X164590000Y-75910000D01*
X163590000Y-74410000D02*
X164590000Y-74410000D01*
X170810000Y-73600000D02*
X171310000Y-73600000D01*
X170810000Y-72390000D02*
X170810000Y-73600000D01*
X164090000Y-72390000D02*
X170810000Y-72390000D01*
X164090000Y-73600000D02*
X164090000Y-72390000D01*
X163590000Y-73600000D02*
X164090000Y-73600000D01*
X171310000Y-71890000D02*
X163590000Y-71890000D01*
X171310000Y-75910000D02*
X171310000Y-71890000D01*
X163590000Y-75910000D02*
X171310000Y-75910000D01*
X163590000Y-71890000D02*
X163590000Y-75910000D01*
G04 #@! TO.C,J3*
X172390000Y-76210000D02*
X174890000Y-76210000D01*
X172390000Y-73710000D02*
X172390000Y-76210000D01*
X179410000Y-74410000D02*
X179410000Y-75910000D01*
X180410000Y-74410000D02*
X179410000Y-74410000D01*
X173690000Y-74410000D02*
X173690000Y-75910000D01*
X172690000Y-74410000D02*
X173690000Y-74410000D01*
X179910000Y-73600000D02*
X180410000Y-73600000D01*
X179910000Y-72390000D02*
X179910000Y-73600000D01*
X173190000Y-72390000D02*
X179910000Y-72390000D01*
X173190000Y-73600000D02*
X173190000Y-72390000D01*
X172690000Y-73600000D02*
X173190000Y-73600000D01*
X180410000Y-71890000D02*
X172690000Y-71890000D01*
X180410000Y-75910000D02*
X180410000Y-71890000D01*
X172690000Y-75910000D02*
X180410000Y-75910000D01*
X172690000Y-71890000D02*
X172690000Y-75910000D01*
G04 #@! TO.C,J1*
X153630000Y-101730000D02*
X152300000Y-101730000D01*
X153630000Y-100400000D02*
X153630000Y-101730000D01*
X153630000Y-99130000D02*
X150970000Y-99130000D01*
X150970000Y-99130000D02*
X150970000Y-91450000D01*
X153630000Y-99130000D02*
X153630000Y-91450000D01*
X153630000Y-91450000D02*
X150970000Y-91450000D01*
D12*
G04 #@! TO.C,CN1*
X195950000Y-136040000D02*
X127370000Y-136040000D01*
X195950000Y-153820000D02*
X195950000Y-136040000D01*
X127370000Y-153820000D02*
X195950000Y-153820000D01*
X127370000Y-136040000D02*
X127370000Y-153820000D01*
G04 #@! TO.C,J7*
X145666666Y-70252380D02*
X145666666Y-70966666D01*
X145619047Y-71109523D01*
X145523809Y-71204761D01*
X145380952Y-71252380D01*
X145285714Y-71252380D01*
X146047619Y-70252380D02*
X146714285Y-70252380D01*
X146285714Y-71252380D01*
G04 #@! TO.C,U2*
X133202380Y-80011904D02*
X134011904Y-80011904D01*
X134107142Y-79964285D01*
X134154761Y-79916666D01*
X134202380Y-79821428D01*
X134202380Y-79630952D01*
X134154761Y-79535714D01*
X134107142Y-79488095D01*
X134011904Y-79440476D01*
X133202380Y-79440476D01*
X133297619Y-79011904D02*
X133250000Y-78964285D01*
X133202380Y-78869047D01*
X133202380Y-78630952D01*
X133250000Y-78535714D01*
X133297619Y-78488095D01*
X133392857Y-78440476D01*
X133488095Y-78440476D01*
X133630952Y-78488095D01*
X134202380Y-79059523D01*
X134202380Y-78440476D01*
G04 #@! TO.C,J8*
X156966666Y-76222380D02*
X156966666Y-76936666D01*
X156919047Y-77079523D01*
X156823809Y-77174761D01*
X156680952Y-77222380D01*
X156585714Y-77222380D01*
X157585714Y-76650952D02*
X157490476Y-76603333D01*
X157442857Y-76555714D01*
X157395238Y-76460476D01*
X157395238Y-76412857D01*
X157442857Y-76317619D01*
X157490476Y-76270000D01*
X157585714Y-76222380D01*
X157776190Y-76222380D01*
X157871428Y-76270000D01*
X157919047Y-76317619D01*
X157966666Y-76412857D01*
X157966666Y-76460476D01*
X157919047Y-76555714D01*
X157871428Y-76603333D01*
X157776190Y-76650952D01*
X157585714Y-76650952D01*
X157490476Y-76698571D01*
X157442857Y-76746190D01*
X157395238Y-76841428D01*
X157395238Y-77031904D01*
X157442857Y-77127142D01*
X157490476Y-77174761D01*
X157585714Y-77222380D01*
X157776190Y-77222380D01*
X157871428Y-77174761D01*
X157919047Y-77127142D01*
X157966666Y-77031904D01*
X157966666Y-76841428D01*
X157919047Y-76746190D01*
X157871428Y-76698571D01*
X157776190Y-76650952D01*
G04 #@! TO.C,J6*
X197436666Y-80822380D02*
X197436666Y-81536666D01*
X197389047Y-81679523D01*
X197293809Y-81774761D01*
X197150952Y-81822380D01*
X197055714Y-81822380D01*
X198341428Y-80822380D02*
X198150952Y-80822380D01*
X198055714Y-80870000D01*
X198008095Y-80917619D01*
X197912857Y-81060476D01*
X197865238Y-81250952D01*
X197865238Y-81631904D01*
X197912857Y-81727142D01*
X197960476Y-81774761D01*
X198055714Y-81822380D01*
X198246190Y-81822380D01*
X198341428Y-81774761D01*
X198389047Y-81727142D01*
X198436666Y-81631904D01*
X198436666Y-81393809D01*
X198389047Y-81298571D01*
X198341428Y-81250952D01*
X198246190Y-81203333D01*
X198055714Y-81203333D01*
X197960476Y-81250952D01*
X197912857Y-81298571D01*
X197865238Y-81393809D01*
G04 #@! TO.C,U1*
X169572380Y-104861904D02*
X170381904Y-104861904D01*
X170477142Y-104814285D01*
X170524761Y-104766666D01*
X170572380Y-104671428D01*
X170572380Y-104480952D01*
X170524761Y-104385714D01*
X170477142Y-104338095D01*
X170381904Y-104290476D01*
X169572380Y-104290476D01*
X170572380Y-103290476D02*
X170572380Y-103861904D01*
X170572380Y-103576190D02*
X169572380Y-103576190D01*
X169715238Y-103671428D01*
X169810476Y-103766666D01*
X169858095Y-103861904D01*
G04 #@! TO.C,U3*
X184552380Y-106061904D02*
X185361904Y-106061904D01*
X185457142Y-106014285D01*
X185504761Y-105966666D01*
X185552380Y-105871428D01*
X185552380Y-105680952D01*
X185504761Y-105585714D01*
X185457142Y-105538095D01*
X185361904Y-105490476D01*
X184552380Y-105490476D01*
X184552380Y-105109523D02*
X184552380Y-104490476D01*
X184933333Y-104823809D01*
X184933333Y-104680952D01*
X184980952Y-104585714D01*
X185028571Y-104538095D01*
X185123809Y-104490476D01*
X185361904Y-104490476D01*
X185457142Y-104538095D01*
X185504761Y-104585714D01*
X185552380Y-104680952D01*
X185552380Y-104966666D01*
X185504761Y-105061904D01*
X185457142Y-105109523D01*
G04 #@! TO.C,J2*
X158196666Y-116222380D02*
X158196666Y-116936666D01*
X158149047Y-117079523D01*
X158053809Y-117174761D01*
X157910952Y-117222380D01*
X157815714Y-117222380D01*
X158625238Y-116317619D02*
X158672857Y-116270000D01*
X158768095Y-116222380D01*
X159006190Y-116222380D01*
X159101428Y-116270000D01*
X159149047Y-116317619D01*
X159196666Y-116412857D01*
X159196666Y-116508095D01*
X159149047Y-116650952D01*
X158577619Y-117222380D01*
X159196666Y-117222380D01*
G04 #@! TO.C,C9*
X179657142Y-108066666D02*
X179704761Y-108114285D01*
X179752380Y-108257142D01*
X179752380Y-108352380D01*
X179704761Y-108495238D01*
X179609523Y-108590476D01*
X179514285Y-108638095D01*
X179323809Y-108685714D01*
X179180952Y-108685714D01*
X178990476Y-108638095D01*
X178895238Y-108590476D01*
X178800000Y-108495238D01*
X178752380Y-108352380D01*
X178752380Y-108257142D01*
X178800000Y-108114285D01*
X178847619Y-108066666D01*
X179752380Y-107590476D02*
X179752380Y-107400000D01*
X179704761Y-107304761D01*
X179657142Y-107257142D01*
X179514285Y-107161904D01*
X179323809Y-107114285D01*
X178942857Y-107114285D01*
X178847619Y-107161904D01*
X178800000Y-107209523D01*
X178752380Y-107304761D01*
X178752380Y-107495238D01*
X178800000Y-107590476D01*
X178847619Y-107638095D01*
X178942857Y-107685714D01*
X179180952Y-107685714D01*
X179276190Y-107638095D01*
X179323809Y-107590476D01*
X179371428Y-107495238D01*
X179371428Y-107304761D01*
X179323809Y-107209523D01*
X179276190Y-107161904D01*
X179180952Y-107114285D01*
G04 #@! TO.C,JP1*
X173666666Y-131652380D02*
X173666666Y-132366666D01*
X173619047Y-132509523D01*
X173523809Y-132604761D01*
X173380952Y-132652380D01*
X173285714Y-132652380D01*
X174142857Y-132652380D02*
X174142857Y-131652380D01*
X174523809Y-131652380D01*
X174619047Y-131700000D01*
X174666666Y-131747619D01*
X174714285Y-131842857D01*
X174714285Y-131985714D01*
X174666666Y-132080952D01*
X174619047Y-132128571D01*
X174523809Y-132176190D01*
X174142857Y-132176190D01*
X175666666Y-132652380D02*
X175095238Y-132652380D01*
X175380952Y-132652380D02*
X175380952Y-131652380D01*
X175285714Y-131795238D01*
X175190476Y-131890476D01*
X175095238Y-131938095D01*
X172185714Y-134452380D02*
X171614285Y-134452380D01*
X171900000Y-134452380D02*
X171900000Y-133452380D01*
X171804761Y-133595238D01*
X171709523Y-133690476D01*
X171614285Y-133738095D01*
X176766666Y-133452380D02*
X177385714Y-133452380D01*
X177052380Y-133833333D01*
X177195238Y-133833333D01*
X177290476Y-133880952D01*
X177338095Y-133928571D01*
X177385714Y-134023809D01*
X177385714Y-134261904D01*
X177338095Y-134357142D01*
X177290476Y-134404761D01*
X177195238Y-134452380D01*
X176909523Y-134452380D01*
X176814285Y-134404761D01*
X176766666Y-134357142D01*
G04 #@! TO.C,JP2*
X179166666Y-131652380D02*
X179166666Y-132366666D01*
X179119047Y-132509523D01*
X179023809Y-132604761D01*
X178880952Y-132652380D01*
X178785714Y-132652380D01*
X179642857Y-132652380D02*
X179642857Y-131652380D01*
X180023809Y-131652380D01*
X180119047Y-131700000D01*
X180166666Y-131747619D01*
X180214285Y-131842857D01*
X180214285Y-131985714D01*
X180166666Y-132080952D01*
X180119047Y-132128571D01*
X180023809Y-132176190D01*
X179642857Y-132176190D01*
X180595238Y-131747619D02*
X180642857Y-131700000D01*
X180738095Y-131652380D01*
X180976190Y-131652380D01*
X181071428Y-131700000D01*
X181119047Y-131747619D01*
X181166666Y-131842857D01*
X181166666Y-131938095D01*
X181119047Y-132080952D01*
X180547619Y-132652380D01*
X181166666Y-132652380D01*
X177685714Y-134452380D02*
X177114285Y-134452380D01*
X177400000Y-134452380D02*
X177400000Y-133452380D01*
X177304761Y-133595238D01*
X177209523Y-133690476D01*
X177114285Y-133738095D01*
X182266666Y-133452380D02*
X182885714Y-133452380D01*
X182552380Y-133833333D01*
X182695238Y-133833333D01*
X182790476Y-133880952D01*
X182838095Y-133928571D01*
X182885714Y-134023809D01*
X182885714Y-134261904D01*
X182838095Y-134357142D01*
X182790476Y-134404761D01*
X182695238Y-134452380D01*
X182409523Y-134452380D01*
X182314285Y-134404761D01*
X182266666Y-134357142D01*
G04 #@! TO.C,JP3*
X167616666Y-131652380D02*
X167616666Y-132366666D01*
X167569047Y-132509523D01*
X167473809Y-132604761D01*
X167330952Y-132652380D01*
X167235714Y-132652380D01*
X168092857Y-132652380D02*
X168092857Y-131652380D01*
X168473809Y-131652380D01*
X168569047Y-131700000D01*
X168616666Y-131747619D01*
X168664285Y-131842857D01*
X168664285Y-131985714D01*
X168616666Y-132080952D01*
X168569047Y-132128571D01*
X168473809Y-132176190D01*
X168092857Y-132176190D01*
X168997619Y-131652380D02*
X169616666Y-131652380D01*
X169283333Y-132033333D01*
X169426190Y-132033333D01*
X169521428Y-132080952D01*
X169569047Y-132128571D01*
X169616666Y-132223809D01*
X169616666Y-132461904D01*
X169569047Y-132557142D01*
X169521428Y-132604761D01*
X169426190Y-132652380D01*
X169140476Y-132652380D01*
X169045238Y-132604761D01*
X168997619Y-132557142D01*
X166135714Y-134452380D02*
X165564285Y-134452380D01*
X165850000Y-134452380D02*
X165850000Y-133452380D01*
X165754761Y-133595238D01*
X165659523Y-133690476D01*
X165564285Y-133738095D01*
X170716666Y-133452380D02*
X171335714Y-133452380D01*
X171002380Y-133833333D01*
X171145238Y-133833333D01*
X171240476Y-133880952D01*
X171288095Y-133928571D01*
X171335714Y-134023809D01*
X171335714Y-134261904D01*
X171288095Y-134357142D01*
X171240476Y-134404761D01*
X171145238Y-134452380D01*
X170859523Y-134452380D01*
X170764285Y-134404761D01*
X170716666Y-134357142D01*
G04 #@! TO.C,JP4*
X162116666Y-131652380D02*
X162116666Y-132366666D01*
X162069047Y-132509523D01*
X161973809Y-132604761D01*
X161830952Y-132652380D01*
X161735714Y-132652380D01*
X162592857Y-132652380D02*
X162592857Y-131652380D01*
X162973809Y-131652380D01*
X163069047Y-131700000D01*
X163116666Y-131747619D01*
X163164285Y-131842857D01*
X163164285Y-131985714D01*
X163116666Y-132080952D01*
X163069047Y-132128571D01*
X162973809Y-132176190D01*
X162592857Y-132176190D01*
X164021428Y-131985714D02*
X164021428Y-132652380D01*
X163783333Y-131604761D02*
X163545238Y-132319047D01*
X164164285Y-132319047D01*
X160635714Y-134452380D02*
X160064285Y-134452380D01*
X160350000Y-134452380D02*
X160350000Y-133452380D01*
X160254761Y-133595238D01*
X160159523Y-133690476D01*
X160064285Y-133738095D01*
X165216666Y-133452380D02*
X165835714Y-133452380D01*
X165502380Y-133833333D01*
X165645238Y-133833333D01*
X165740476Y-133880952D01*
X165788095Y-133928571D01*
X165835714Y-134023809D01*
X165835714Y-134261904D01*
X165788095Y-134357142D01*
X165740476Y-134404761D01*
X165645238Y-134452380D01*
X165359523Y-134452380D01*
X165264285Y-134404761D01*
X165216666Y-134357142D01*
G04 #@! TO.C,R1*
X193352380Y-82766666D02*
X192876190Y-83100000D01*
X193352380Y-83338095D02*
X192352380Y-83338095D01*
X192352380Y-82957142D01*
X192400000Y-82861904D01*
X192447619Y-82814285D01*
X192542857Y-82766666D01*
X192685714Y-82766666D01*
X192780952Y-82814285D01*
X192828571Y-82861904D01*
X192876190Y-82957142D01*
X192876190Y-83338095D01*
X193352380Y-81814285D02*
X193352380Y-82385714D01*
X193352380Y-82100000D02*
X192352380Y-82100000D01*
X192495238Y-82195238D01*
X192590476Y-82290476D01*
X192638095Y-82385714D01*
G04 #@! TO.C,R2*
X188833333Y-89452380D02*
X188500000Y-88976190D01*
X188261904Y-89452380D02*
X188261904Y-88452380D01*
X188642857Y-88452380D01*
X188738095Y-88500000D01*
X188785714Y-88547619D01*
X188833333Y-88642857D01*
X188833333Y-88785714D01*
X188785714Y-88880952D01*
X188738095Y-88928571D01*
X188642857Y-88976190D01*
X188261904Y-88976190D01*
X189214285Y-88547619D02*
X189261904Y-88500000D01*
X189357142Y-88452380D01*
X189595238Y-88452380D01*
X189690476Y-88500000D01*
X189738095Y-88547619D01*
X189785714Y-88642857D01*
X189785714Y-88738095D01*
X189738095Y-88880952D01*
X189166666Y-89452380D01*
X189785714Y-89452380D01*
G04 #@! TO.C,C7*
X162457142Y-111566666D02*
X162504761Y-111614285D01*
X162552380Y-111757142D01*
X162552380Y-111852380D01*
X162504761Y-111995238D01*
X162409523Y-112090476D01*
X162314285Y-112138095D01*
X162123809Y-112185714D01*
X161980952Y-112185714D01*
X161790476Y-112138095D01*
X161695238Y-112090476D01*
X161600000Y-111995238D01*
X161552380Y-111852380D01*
X161552380Y-111757142D01*
X161600000Y-111614285D01*
X161647619Y-111566666D01*
X161552380Y-111233333D02*
X161552380Y-110566666D01*
X162552380Y-110995238D01*
G04 #@! TO.C,C8*
X162457142Y-102366666D02*
X162504761Y-102414285D01*
X162552380Y-102557142D01*
X162552380Y-102652380D01*
X162504761Y-102795238D01*
X162409523Y-102890476D01*
X162314285Y-102938095D01*
X162123809Y-102985714D01*
X161980952Y-102985714D01*
X161790476Y-102938095D01*
X161695238Y-102890476D01*
X161600000Y-102795238D01*
X161552380Y-102652380D01*
X161552380Y-102557142D01*
X161600000Y-102414285D01*
X161647619Y-102366666D01*
X161980952Y-101795238D02*
X161933333Y-101890476D01*
X161885714Y-101938095D01*
X161790476Y-101985714D01*
X161742857Y-101985714D01*
X161647619Y-101938095D01*
X161600000Y-101890476D01*
X161552380Y-101795238D01*
X161552380Y-101604761D01*
X161600000Y-101509523D01*
X161647619Y-101461904D01*
X161742857Y-101414285D01*
X161790476Y-101414285D01*
X161885714Y-101461904D01*
X161933333Y-101509523D01*
X161980952Y-101604761D01*
X161980952Y-101795238D01*
X162028571Y-101890476D01*
X162076190Y-101938095D01*
X162171428Y-101985714D01*
X162361904Y-101985714D01*
X162457142Y-101938095D01*
X162504761Y-101890476D01*
X162552380Y-101795238D01*
X162552380Y-101604761D01*
X162504761Y-101509523D01*
X162457142Y-101461904D01*
X162361904Y-101414285D01*
X162171428Y-101414285D01*
X162076190Y-101461904D01*
X162028571Y-101509523D01*
X161980952Y-101604761D01*
G04 #@! TO.C,C10*
X175657142Y-109042857D02*
X175704761Y-109090476D01*
X175752380Y-109233333D01*
X175752380Y-109328571D01*
X175704761Y-109471428D01*
X175609523Y-109566666D01*
X175514285Y-109614285D01*
X175323809Y-109661904D01*
X175180952Y-109661904D01*
X174990476Y-109614285D01*
X174895238Y-109566666D01*
X174800000Y-109471428D01*
X174752380Y-109328571D01*
X174752380Y-109233333D01*
X174800000Y-109090476D01*
X174847619Y-109042857D01*
X175752380Y-108090476D02*
X175752380Y-108661904D01*
X175752380Y-108376190D02*
X174752380Y-108376190D01*
X174895238Y-108471428D01*
X174990476Y-108566666D01*
X175038095Y-108661904D01*
X174752380Y-107471428D02*
X174752380Y-107376190D01*
X174800000Y-107280952D01*
X174847619Y-107233333D01*
X174942857Y-107185714D01*
X175133333Y-107138095D01*
X175371428Y-107138095D01*
X175561904Y-107185714D01*
X175657142Y-107233333D01*
X175704761Y-107280952D01*
X175752380Y-107376190D01*
X175752380Y-107471428D01*
X175704761Y-107566666D01*
X175657142Y-107614285D01*
X175561904Y-107661904D01*
X175371428Y-107709523D01*
X175133333Y-107709523D01*
X174942857Y-107661904D01*
X174847619Y-107614285D01*
X174800000Y-107566666D01*
X174752380Y-107471428D01*
G04 #@! TO.C,C6*
X168633333Y-109657142D02*
X168585714Y-109704761D01*
X168442857Y-109752380D01*
X168347619Y-109752380D01*
X168204761Y-109704761D01*
X168109523Y-109609523D01*
X168061904Y-109514285D01*
X168014285Y-109323809D01*
X168014285Y-109180952D01*
X168061904Y-108990476D01*
X168109523Y-108895238D01*
X168204761Y-108800000D01*
X168347619Y-108752380D01*
X168442857Y-108752380D01*
X168585714Y-108800000D01*
X168633333Y-108847619D01*
X169490476Y-108752380D02*
X169300000Y-108752380D01*
X169204761Y-108800000D01*
X169157142Y-108847619D01*
X169061904Y-108990476D01*
X169014285Y-109180952D01*
X169014285Y-109561904D01*
X169061904Y-109657142D01*
X169109523Y-109704761D01*
X169204761Y-109752380D01*
X169395238Y-109752380D01*
X169490476Y-109704761D01*
X169538095Y-109657142D01*
X169585714Y-109561904D01*
X169585714Y-109323809D01*
X169538095Y-109228571D01*
X169490476Y-109180952D01*
X169395238Y-109133333D01*
X169204761Y-109133333D01*
X169109523Y-109180952D01*
X169061904Y-109228571D01*
X169014285Y-109323809D01*
G04 #@! TO.C,J5*
X129166666Y-80122380D02*
X129166666Y-80836666D01*
X129119047Y-80979523D01*
X129023809Y-81074761D01*
X128880952Y-81122380D01*
X128785714Y-81122380D01*
X130119047Y-80122380D02*
X129642857Y-80122380D01*
X129595238Y-80598571D01*
X129642857Y-80550952D01*
X129738095Y-80503333D01*
X129976190Y-80503333D01*
X130071428Y-80550952D01*
X130119047Y-80598571D01*
X130166666Y-80693809D01*
X130166666Y-80931904D01*
X130119047Y-81027142D01*
X130071428Y-81074761D01*
X129976190Y-81122380D01*
X129738095Y-81122380D01*
X129642857Y-81074761D01*
X129595238Y-81027142D01*
G04 #@! TO.C,C2*
X169608333Y-91132142D02*
X169560714Y-91179761D01*
X169417857Y-91227380D01*
X169322619Y-91227380D01*
X169179761Y-91179761D01*
X169084523Y-91084523D01*
X169036904Y-90989285D01*
X168989285Y-90798809D01*
X168989285Y-90655952D01*
X169036904Y-90465476D01*
X169084523Y-90370238D01*
X169179761Y-90275000D01*
X169322619Y-90227380D01*
X169417857Y-90227380D01*
X169560714Y-90275000D01*
X169608333Y-90322619D01*
X169989285Y-90322619D02*
X170036904Y-90275000D01*
X170132142Y-90227380D01*
X170370238Y-90227380D01*
X170465476Y-90275000D01*
X170513095Y-90322619D01*
X170560714Y-90417857D01*
X170560714Y-90513095D01*
X170513095Y-90655952D01*
X169941666Y-91227380D01*
X170560714Y-91227380D01*
G04 #@! TO.C,C3*
X161842857Y-94333333D02*
X161795238Y-94285714D01*
X161747619Y-94142857D01*
X161747619Y-94047619D01*
X161795238Y-93904761D01*
X161890476Y-93809523D01*
X161985714Y-93761904D01*
X162176190Y-93714285D01*
X162319047Y-93714285D01*
X162509523Y-93761904D01*
X162604761Y-93809523D01*
X162700000Y-93904761D01*
X162747619Y-94047619D01*
X162747619Y-94142857D01*
X162700000Y-94285714D01*
X162652380Y-94333333D01*
X162747619Y-94666666D02*
X162747619Y-95285714D01*
X162366666Y-94952380D01*
X162366666Y-95095238D01*
X162319047Y-95190476D01*
X162271428Y-95238095D01*
X162176190Y-95285714D01*
X161938095Y-95285714D01*
X161842857Y-95238095D01*
X161795238Y-95190476D01*
X161747619Y-95095238D01*
X161747619Y-94809523D01*
X161795238Y-94714285D01*
X161842857Y-94666666D01*
G04 #@! TO.C,C4*
X169833333Y-99357142D02*
X169785714Y-99404761D01*
X169642857Y-99452380D01*
X169547619Y-99452380D01*
X169404761Y-99404761D01*
X169309523Y-99309523D01*
X169261904Y-99214285D01*
X169214285Y-99023809D01*
X169214285Y-98880952D01*
X169261904Y-98690476D01*
X169309523Y-98595238D01*
X169404761Y-98500000D01*
X169547619Y-98452380D01*
X169642857Y-98452380D01*
X169785714Y-98500000D01*
X169833333Y-98547619D01*
X170690476Y-98785714D02*
X170690476Y-99452380D01*
X170452380Y-98404761D02*
X170214285Y-99119047D01*
X170833333Y-99119047D01*
G04 #@! TO.C,C5*
X159633333Y-100957142D02*
X159585714Y-101004761D01*
X159442857Y-101052380D01*
X159347619Y-101052380D01*
X159204761Y-101004761D01*
X159109523Y-100909523D01*
X159061904Y-100814285D01*
X159014285Y-100623809D01*
X159014285Y-100480952D01*
X159061904Y-100290476D01*
X159109523Y-100195238D01*
X159204761Y-100100000D01*
X159347619Y-100052380D01*
X159442857Y-100052380D01*
X159585714Y-100100000D01*
X159633333Y-100147619D01*
X160538095Y-100052380D02*
X160061904Y-100052380D01*
X160014285Y-100528571D01*
X160061904Y-100480952D01*
X160157142Y-100433333D01*
X160395238Y-100433333D01*
X160490476Y-100480952D01*
X160538095Y-100528571D01*
X160585714Y-100623809D01*
X160585714Y-100861904D01*
X160538095Y-100957142D01*
X160490476Y-101004761D01*
X160395238Y-101052380D01*
X160157142Y-101052380D01*
X160061904Y-101004761D01*
X160014285Y-100957142D01*
G04 #@! TO.C,C1*
X168433333Y-95257142D02*
X168385714Y-95304761D01*
X168242857Y-95352380D01*
X168147619Y-95352380D01*
X168004761Y-95304761D01*
X167909523Y-95209523D01*
X167861904Y-95114285D01*
X167814285Y-94923809D01*
X167814285Y-94780952D01*
X167861904Y-94590476D01*
X167909523Y-94495238D01*
X168004761Y-94400000D01*
X168147619Y-94352380D01*
X168242857Y-94352380D01*
X168385714Y-94400000D01*
X168433333Y-94447619D01*
X169385714Y-95352380D02*
X168814285Y-95352380D01*
X169100000Y-95352380D02*
X169100000Y-94352380D01*
X169004761Y-94495238D01*
X168909523Y-94590476D01*
X168814285Y-94638095D01*
G04 #@! TO.C,J4*
X164066666Y-73252380D02*
X164066666Y-73966666D01*
X164019047Y-74109523D01*
X163923809Y-74204761D01*
X163780952Y-74252380D01*
X163685714Y-74252380D01*
X164971428Y-73585714D02*
X164971428Y-74252380D01*
X164733333Y-73204761D02*
X164495238Y-73919047D01*
X165114285Y-73919047D01*
G04 #@! TO.C,J3*
X173066666Y-73252380D02*
X173066666Y-73966666D01*
X173019047Y-74109523D01*
X172923809Y-74204761D01*
X172780952Y-74252380D01*
X172685714Y-74252380D01*
X173447619Y-73252380D02*
X174066666Y-73252380D01*
X173733333Y-73633333D01*
X173876190Y-73633333D01*
X173971428Y-73680952D01*
X174019047Y-73728571D01*
X174066666Y-73823809D01*
X174066666Y-74061904D01*
X174019047Y-74157142D01*
X173971428Y-74204761D01*
X173876190Y-74252380D01*
X173590476Y-74252380D01*
X173495238Y-74204761D01*
X173447619Y-74157142D01*
G04 #@! TO.C,J1*
X151966666Y-102182380D02*
X151966666Y-102896666D01*
X151919047Y-103039523D01*
X151823809Y-103134761D01*
X151680952Y-103182380D01*
X151585714Y-103182380D01*
X152966666Y-103182380D02*
X152395238Y-103182380D01*
X152680952Y-103182380D02*
X152680952Y-102182380D01*
X152585714Y-102325238D01*
X152490476Y-102420476D01*
X152395238Y-102468095D01*
G04 #@! TO.C,CN1*
X168589523Y-133857142D02*
X168541904Y-133904761D01*
X168399047Y-133952380D01*
X168303809Y-133952380D01*
X168160952Y-133904761D01*
X168065714Y-133809523D01*
X168018095Y-133714285D01*
X167970476Y-133523809D01*
X167970476Y-133380952D01*
X168018095Y-133190476D01*
X168065714Y-133095238D01*
X168160952Y-133000000D01*
X168303809Y-132952380D01*
X168399047Y-132952380D01*
X168541904Y-133000000D01*
X168589523Y-133047619D01*
X169018095Y-133952380D02*
X169018095Y-132952380D01*
X169589523Y-133952380D01*
X169589523Y-132952380D01*
X170589523Y-133952380D02*
X170018095Y-133952380D01*
X170303809Y-133952380D02*
X170303809Y-132952380D01*
X170208571Y-133095238D01*
X170113333Y-133190476D01*
X170018095Y-133238095D01*
X155287142Y-151700714D02*
X155525238Y-152367380D01*
X155763333Y-151700714D01*
X156049047Y-151700714D02*
X156287142Y-152367380D01*
X156525238Y-151700714D01*
X156810952Y-151700714D02*
X157049047Y-152367380D01*
X157287142Y-151700714D01*
X158763333Y-151843571D02*
X158906190Y-151891190D01*
X158953809Y-151938809D01*
X159001428Y-152034047D01*
X159001428Y-152176904D01*
X158953809Y-152272142D01*
X158906190Y-152319761D01*
X158810952Y-152367380D01*
X158430000Y-152367380D01*
X158430000Y-151367380D01*
X158763333Y-151367380D01*
X158858571Y-151415000D01*
X158906190Y-151462619D01*
X158953809Y-151557857D01*
X158953809Y-151653095D01*
X158906190Y-151748333D01*
X158858571Y-151795952D01*
X158763333Y-151843571D01*
X158430000Y-151843571D01*
X159620476Y-151367380D02*
X159810952Y-151367380D01*
X159906190Y-151415000D01*
X160001428Y-151510238D01*
X160049047Y-151700714D01*
X160049047Y-152034047D01*
X160001428Y-152224523D01*
X159906190Y-152319761D01*
X159810952Y-152367380D01*
X159620476Y-152367380D01*
X159525238Y-152319761D01*
X159430000Y-152224523D01*
X159382380Y-152034047D01*
X159382380Y-151700714D01*
X159430000Y-151510238D01*
X159525238Y-151415000D01*
X159620476Y-151367380D01*
X160430000Y-152081666D02*
X160906190Y-152081666D01*
X160334761Y-152367380D02*
X160668095Y-151367380D01*
X161001428Y-152367380D01*
X161906190Y-152367380D02*
X161572857Y-151891190D01*
X161334761Y-152367380D02*
X161334761Y-151367380D01*
X161715714Y-151367380D01*
X161810952Y-151415000D01*
X161858571Y-151462619D01*
X161906190Y-151557857D01*
X161906190Y-151700714D01*
X161858571Y-151795952D01*
X161810952Y-151843571D01*
X161715714Y-151891190D01*
X161334761Y-151891190D01*
X162334761Y-152367380D02*
X162334761Y-151367380D01*
X162572857Y-151367380D01*
X162715714Y-151415000D01*
X162810952Y-151510238D01*
X162858571Y-151605476D01*
X162906190Y-151795952D01*
X162906190Y-151938809D01*
X162858571Y-152129285D01*
X162810952Y-152224523D01*
X162715714Y-152319761D01*
X162572857Y-152367380D01*
X162334761Y-152367380D01*
X164096666Y-151843571D02*
X164430000Y-151843571D01*
X164572857Y-152367380D02*
X164096666Y-152367380D01*
X164096666Y-151367380D01*
X164572857Y-151367380D01*
X165001428Y-152367380D02*
X165001428Y-151367380D01*
X165239523Y-151367380D01*
X165382380Y-151415000D01*
X165477619Y-151510238D01*
X165525238Y-151605476D01*
X165572857Y-151795952D01*
X165572857Y-151938809D01*
X165525238Y-152129285D01*
X165477619Y-152224523D01*
X165382380Y-152319761D01*
X165239523Y-152367380D01*
X165001428Y-152367380D01*
X166525238Y-151415000D02*
X166430000Y-151367380D01*
X166287142Y-151367380D01*
X166144285Y-151415000D01*
X166049047Y-151510238D01*
X166001428Y-151605476D01*
X165953809Y-151795952D01*
X165953809Y-151938809D01*
X166001428Y-152129285D01*
X166049047Y-152224523D01*
X166144285Y-152319761D01*
X166287142Y-152367380D01*
X166382380Y-152367380D01*
X166525238Y-152319761D01*
X166572857Y-152272142D01*
X166572857Y-151938809D01*
X166382380Y-151938809D01*
X167001428Y-151843571D02*
X167334761Y-151843571D01*
X167477619Y-152367380D02*
X167001428Y-152367380D01*
X167001428Y-151367380D01*
X167477619Y-151367380D01*
X168572857Y-151700714D02*
X168810952Y-152367380D01*
X169049047Y-151700714D01*
X169334761Y-151700714D02*
X169572857Y-152367380D01*
X169810952Y-151700714D01*
X170096666Y-151700714D02*
X170334761Y-152367380D01*
X170572857Y-151700714D01*
G04 #@! TD*
M02*
