G04 #@! TF.GenerationSoftware,KiCad,Pcbnew,(5.0.0)*
G04 #@! TF.CreationDate,2019-02-22T13:26:14-05:00*
G04 #@! TF.ProjectId,_saved_sensor_suite,5F73617665645F73656E736F725F7375,rev?*
G04 #@! TF.SameCoordinates,Original*
G04 #@! TF.FileFunction,Copper,L3,Inr,Plane*
G04 #@! TF.FilePolarity,Positive*
%FSLAX46Y46*%
G04 Gerber Fmt 4.6, Leading zero omitted, Abs format (unit mm)*
G04 Created by KiCad (PCBNEW (5.0.0)) date 02/22/19 13:26:14*
%MOMM*%
%LPD*%
G01*
G04 APERTURE LIST*
G04 #@! TA.AperFunction,ViaPad*
%ADD10R,1.700000X1.950000*%
G04 #@! TD*
G04 #@! TA.AperFunction,ViaPad*
%ADD11O,1.700000X1.950000*%
G04 #@! TD*
G04 #@! TA.AperFunction,ViaPad*
%ADD12C,4.000000*%
G04 #@! TD*
G04 #@! TA.AperFunction,ViaPad*
%ADD13R,1.700000X1.700000*%
G04 #@! TD*
G04 #@! TA.AperFunction,ViaPad*
%ADD14O,1.700000X1.700000*%
G04 #@! TD*
G04 #@! TA.AperFunction,ViaPad*
%ADD15C,1.524000*%
G04 #@! TD*
G04 #@! TA.AperFunction,ViaPad*
%ADD16O,1.700000X2.000000*%
G04 #@! TD*
G04 #@! TA.AperFunction,ViaPad*
%ADD17R,1.700000X2.000000*%
G04 #@! TD*
G04 #@! TA.AperFunction,ViaPad*
%ADD18C,0.800000*%
G04 #@! TD*
G04 #@! TA.AperFunction,Conductor*
%ADD19C,0.254000*%
G04 #@! TD*
G04 APERTURE END LIST*
D10*
G04 #@! TO.N,+5VP*
G04 #@! TO.C,J7*
X143500000Y-73600000D03*
D11*
G04 #@! TO.N,GNDPWR*
X146000000Y-73600000D03*
G04 #@! TO.N,Net-(J7-Pad3)*
X148500000Y-73600000D03*
G04 #@! TD*
D12*
G04 #@! TO.N,N/C*
G04 #@! TO.C,U2*
X134250000Y-137250000D03*
X183250000Y-137250000D03*
X183250000Y-79250000D03*
X134250000Y-79250000D03*
G04 #@! TD*
D13*
G04 #@! TO.N,+5VP*
G04 #@! TO.C,J8*
X157300000Y-79100000D03*
D14*
G04 #@! TO.N,GNDPWR*
X157300000Y-81640000D03*
G04 #@! TO.N,SCL_iso*
X157300000Y-84180000D03*
G04 #@! TO.N,SDA_iso*
X157300000Y-86720000D03*
G04 #@! TO.N,GNDPWR*
X157300000Y-89260000D03*
G04 #@! TO.N,Net-(J8-Pad6)*
X157300000Y-91800000D03*
G04 #@! TO.N,Net-(J7-Pad3)*
X157300000Y-94340000D03*
G04 #@! TO.N,Net-(J8-Pad8)*
X157300000Y-96880000D03*
G04 #@! TO.N,Net-(J8-Pad9)*
X157300000Y-99420000D03*
G04 #@! TO.N,Net-(J8-Pad10)*
X157300000Y-101960000D03*
G04 #@! TD*
D13*
G04 #@! TO.N,Net-(J6-Pad1)*
G04 #@! TO.C,J6*
X196500000Y-83700000D03*
D14*
G04 #@! TO.N,+5VP*
X199040000Y-83700000D03*
G04 #@! TO.N,SDA_iso*
X196500000Y-86240000D03*
G04 #@! TO.N,Net-(J6-Pad4)*
X199040000Y-86240000D03*
G04 #@! TO.N,SCL_iso*
X196500000Y-88780000D03*
G04 #@! TO.N,GNDPWR*
X199040000Y-88780000D03*
G04 #@! TO.N,Net-(J6-Pad7)*
X196500000Y-91320000D03*
G04 #@! TO.N,Net-(J6-Pad8)*
X199040000Y-91320000D03*
G04 #@! TO.N,Net-(J6-Pad9)*
X196500000Y-93860000D03*
G04 #@! TO.N,Net-(J6-Pad10)*
X199040000Y-93860000D03*
G04 #@! TO.N,/DigitalOutput1*
X196500000Y-96400000D03*
G04 #@! TO.N,Net-(J6-Pad12)*
X199040000Y-96400000D03*
G04 #@! TO.N,/DigitalOutput2*
X196500000Y-98940000D03*
G04 #@! TO.N,Net-(J6-Pad14)*
X199040000Y-98940000D03*
G04 #@! TO.N,Net-(J6-Pad15)*
X196500000Y-101480000D03*
G04 #@! TO.N,Net-(J6-Pad16)*
X199040000Y-101480000D03*
G04 #@! TO.N,Net-(J6-Pad17)*
X196500000Y-104020000D03*
G04 #@! TO.N,Net-(J6-Pad18)*
X199040000Y-104020000D03*
G04 #@! TO.N,Net-(J6-Pad19)*
X196500000Y-106560000D03*
G04 #@! TO.N,Net-(J6-Pad20)*
X199040000Y-106560000D03*
G04 #@! TO.N,Net-(J6-Pad21)*
X196500000Y-109100000D03*
G04 #@! TO.N,Net-(J6-Pad22)*
X199040000Y-109100000D03*
G04 #@! TO.N,Net-(J6-Pad23)*
X196500000Y-111640000D03*
G04 #@! TO.N,Net-(J6-Pad24)*
X199040000Y-111640000D03*
G04 #@! TO.N,Net-(J6-Pad25)*
X196500000Y-114180000D03*
G04 #@! TO.N,Net-(J6-Pad26)*
X199040000Y-114180000D03*
G04 #@! TO.N,Net-(J6-Pad27)*
X196500000Y-116720000D03*
G04 #@! TO.N,Net-(J6-Pad28)*
X199040000Y-116720000D03*
G04 #@! TO.N,DigitalOutput3*
X196500000Y-119260000D03*
G04 #@! TO.N,Net-(J6-Pad30)*
X199040000Y-119260000D03*
G04 #@! TO.N,DigitalOutput4*
X196500000Y-121800000D03*
G04 #@! TO.N,Net-(J6-Pad32)*
X199040000Y-121800000D03*
G04 #@! TO.N,DigitalOutput6*
X196500000Y-124340000D03*
G04 #@! TO.N,Net-(J6-Pad34)*
X199040000Y-124340000D03*
G04 #@! TO.N,DigitalOutput5*
X196500000Y-126880000D03*
G04 #@! TO.N,Net-(J6-Pad36)*
X199040000Y-126880000D03*
G04 #@! TO.N,Net-(J6-Pad37)*
X196500000Y-129420000D03*
G04 #@! TO.N,Net-(J6-Pad38)*
X199040000Y-129420000D03*
G04 #@! TO.N,Net-(J6-Pad39)*
X196500000Y-131960000D03*
G04 #@! TO.N,Net-(J6-Pad40)*
X199040000Y-131960000D03*
G04 #@! TD*
D15*
G04 #@! TO.N,SDA_iso*
G04 #@! TO.C,J2*
X129320000Y-117540000D03*
G04 #@! TO.N,SCL_iso*
X129320000Y-115000000D03*
G04 #@! TO.N,+5VP*
X129320000Y-120080000D03*
G04 #@! TO.N,*
X129320000Y-112460000D03*
G04 #@! TO.N,GNDPWR*
X129320000Y-109920000D03*
G04 #@! TO.N,*
X129320000Y-122620000D03*
G04 #@! TO.N,SDA_iso*
X187740000Y-117540000D03*
G04 #@! TO.N,+5VP*
X187740000Y-120080000D03*
G04 #@! TO.N,SCL_iso*
X187740000Y-115000000D03*
G04 #@! TO.N,*
X187740000Y-112460000D03*
G04 #@! TO.N,GNDPWR*
X187740000Y-109920000D03*
G04 #@! TO.N,*
X187740000Y-122620000D03*
G04 #@! TO.N,GNDPWR*
X134400000Y-127700000D03*
G04 #@! TO.N,*
X134400000Y-125160000D03*
G04 #@! TO.N,PWM_0*
X134400000Y-122620000D03*
G04 #@! TO.N,PWM_1*
X136940000Y-122620000D03*
G04 #@! TO.N,GNDPWR*
X136940000Y-127700000D03*
G04 #@! TO.N,*
X136940000Y-125160000D03*
G04 #@! TO.N,PWM_2*
X139480000Y-122620000D03*
G04 #@! TO.N,GNDPWR*
X139480000Y-127700000D03*
G04 #@! TO.N,*
X139480000Y-125160000D03*
G04 #@! TO.N,PWM_3*
X142020000Y-122620000D03*
G04 #@! TO.N,GNDPWR*
X142020000Y-127700000D03*
G04 #@! TO.N,*
X142020000Y-125160000D03*
G04 #@! TO.N,PWM_4*
X147100000Y-122620000D03*
G04 #@! TO.N,GNDPWR*
X147100000Y-127700000D03*
G04 #@! TO.N,*
X147100000Y-125160000D03*
G04 #@! TO.N,PWM_5*
X149640000Y-122620000D03*
G04 #@! TO.N,GNDPWR*
X149640000Y-127700000D03*
G04 #@! TO.N,*
X149640000Y-125160000D03*
G04 #@! TO.N,PWM_6*
X152180000Y-122620000D03*
G04 #@! TO.N,GNDPWR*
X152180000Y-127700000D03*
G04 #@! TO.N,*
X152180000Y-125160000D03*
G04 #@! TO.N,PWM_7*
X154720000Y-122620000D03*
G04 #@! TO.N,GNDPWR*
X154720000Y-127700000D03*
G04 #@! TO.N,*
X154720000Y-125160000D03*
G04 #@! TO.N,PWM_8*
X162340000Y-122620000D03*
G04 #@! TO.N,GNDPWR*
X162340000Y-127700000D03*
G04 #@! TO.N,*
X162340000Y-125160000D03*
G04 #@! TO.N,PWM_9*
X164880000Y-122620000D03*
G04 #@! TO.N,*
X164880000Y-125160000D03*
G04 #@! TO.N,GNDPWR*
X164880000Y-127700000D03*
G04 #@! TO.N,PWM_10*
X167420000Y-122620000D03*
G04 #@! TO.N,*
X167420000Y-125160000D03*
G04 #@! TO.N,GNDPWR*
X167420000Y-127700000D03*
G04 #@! TO.N,PWM_11*
X169960000Y-122620000D03*
G04 #@! TO.N,*
X169960000Y-125160000D03*
G04 #@! TO.N,GNDPWR*
X169960000Y-127700000D03*
G04 #@! TO.N,PWM_15_*
X182660000Y-122620000D03*
G04 #@! TO.N,GNDPWR*
X182660000Y-127700000D03*
G04 #@! TO.N,*
X182660000Y-125160000D03*
G04 #@! TO.N,PWM_14_*
X180120000Y-122620000D03*
G04 #@! TO.N,*
X180120000Y-125160000D03*
G04 #@! TO.N,GNDPWR*
X180120000Y-127700000D03*
X177580000Y-127700000D03*
G04 #@! TO.N,*
X177580000Y-125160000D03*
G04 #@! TO.N,PWM_13_*
X177580000Y-122620000D03*
G04 #@! TO.N,PWM_12_*
X175040000Y-122620000D03*
G04 #@! TO.N,*
X175040000Y-125160000D03*
G04 #@! TO.N,GNDPWR*
X175040000Y-127700000D03*
G04 #@! TD*
D14*
G04 #@! TO.N,+3V3*
G04 #@! TO.C,J5*
X129500000Y-100780000D03*
X129500000Y-98240000D03*
G04 #@! TO.N,GNDPWR*
X129500000Y-95700000D03*
G04 #@! TO.N,Net-(J5-Pad5)*
X129500000Y-93160000D03*
G04 #@! TO.N,Net-(J5-Pad4)*
X129500000Y-90620000D03*
G04 #@! TO.N,Net-(J5-Pad3)*
X129500000Y-88080000D03*
G04 #@! TO.N,SCL_iso*
X129500000Y-85540000D03*
D13*
G04 #@! TO.N,SDA_iso*
X129500000Y-83000000D03*
G04 #@! TD*
D16*
G04 #@! TO.N,/temp2n*
G04 #@! TO.C,J4*
X168700000Y-73600000D03*
D17*
G04 #@! TO.N,/temp2p*
X166200000Y-73600000D03*
G04 #@! TD*
D16*
G04 #@! TO.N,/temp1n*
G04 #@! TO.C,J3*
X177800000Y-73600000D03*
D17*
G04 #@! TO.N,/temp1p*
X175300000Y-73600000D03*
G04 #@! TD*
D14*
G04 #@! TO.N,GNDPWR*
G04 #@! TO.C,J1*
X152300000Y-92780000D03*
G04 #@! TO.N,SDA_iso*
X152300000Y-95320000D03*
G04 #@! TO.N,SCL_iso*
X152300000Y-97860000D03*
D13*
G04 #@! TO.N,+3V3*
X152300000Y-100400000D03*
G04 #@! TD*
D15*
G04 #@! TO.N,GNDPWR*
G04 #@! TO.C,CN1*
X185970000Y-146200000D03*
X185970000Y-141120000D03*
X183430000Y-146200000D03*
X185970000Y-148740000D03*
X183430000Y-141120000D03*
X183430000Y-143660000D03*
X183430000Y-148740000D03*
X185970000Y-143660000D03*
X179640000Y-148740000D03*
X179640000Y-143660000D03*
X177080000Y-143660000D03*
X177080000Y-146200000D03*
X177080000Y-148740000D03*
X179640000Y-146200000D03*
X177080000Y-141120000D03*
X179640000Y-141120000D03*
X170750000Y-148740000D03*
X173290000Y-143660000D03*
X170750000Y-143660000D03*
X173290000Y-141120000D03*
X173290000Y-146200000D03*
X170750000Y-146200000D03*
X170750000Y-141120000D03*
X173290000Y-148740000D03*
G04 #@! TO.N,Net-(CN1-Pad3)*
X164200000Y-146200000D03*
X164200000Y-141120000D03*
X164200000Y-143660000D03*
X164200000Y-148740000D03*
X166740000Y-146200000D03*
X166740000Y-148740000D03*
X166740000Y-141120000D03*
X166740000Y-143660000D03*
G04 #@! TO.N,Net-(CN1-Pad2)*
X160390000Y-146200000D03*
X160390000Y-141120000D03*
X160390000Y-143660000D03*
X160390000Y-148740000D03*
X157850000Y-141120000D03*
X157850000Y-146200000D03*
X157850000Y-143660000D03*
X157850000Y-148740000D03*
G04 #@! TO.N,PWM_10*
X148330000Y-143660000D03*
G04 #@! TO.N,PWM_12*
X148330000Y-148740000D03*
G04 #@! TO.N,PWM_14*
X148330000Y-146200000D03*
G04 #@! TO.N,PWM_7*
X148330000Y-141120000D03*
G04 #@! TO.N,PWM_11*
X145790000Y-143660000D03*
G04 #@! TO.N,PWM_13*
X145790000Y-148740000D03*
G04 #@! TO.N,PWM_15*
X145790000Y-146200000D03*
G04 #@! TO.N,PWM_6*
X145790000Y-141120000D03*
G04 #@! TO.N,PWM_9*
X143250000Y-143660000D03*
G04 #@! TO.N,/DigitalOutput1*
X143250000Y-148740000D03*
G04 #@! TO.N,/DigitalOutput2*
X143250000Y-146200000D03*
G04 #@! TO.N,PWM_5*
X143250000Y-141120000D03*
G04 #@! TO.N,Net-(CN1-Pad1)*
X151500000Y-148740000D03*
X151500000Y-146200000D03*
X151500000Y-143660000D03*
X154040000Y-148740000D03*
X154040000Y-146200000D03*
X154040000Y-143660000D03*
X154040000Y-141120000D03*
X151500000Y-141120000D03*
G04 #@! TO.N,PWM_0*
X135630000Y-148740000D03*
G04 #@! TO.N,PWM_3*
X140710000Y-148740000D03*
G04 #@! TO.N,+5VP*
X138170000Y-148740000D03*
G04 #@! TO.N,PWM_1*
X135630000Y-146200000D03*
G04 #@! TO.N,+5VP*
X138170000Y-146200000D03*
G04 #@! TO.N,PWM_2*
X140710000Y-146200000D03*
G04 #@! TO.N,SDA_iso*
X135630000Y-143660000D03*
G04 #@! TO.N,+5VP*
X138170000Y-143660000D03*
G04 #@! TO.N,PWM_8*
X140710000Y-143660000D03*
G04 #@! TO.N,PWM_4*
X140710000Y-141120000D03*
G04 #@! TO.N,+5VP*
X138170000Y-141120000D03*
G04 #@! TO.N,SCL_iso*
X135630000Y-141120000D03*
G04 #@! TD*
D18*
G04 #@! TO.N,GNDPWR*
X166800000Y-104100000D03*
X163900000Y-97300000D03*
G04 #@! TO.N,+5VP*
X192750000Y-82750000D03*
X189250000Y-89000000D03*
X167100000Y-107200000D03*
X177750000Y-104250000D03*
G04 #@! TO.N,SCL_iso*
X171492828Y-103157492D03*
X186300000Y-95500000D03*
G04 #@! TO.N,Net-(C3-Pad1)*
X175400000Y-101200000D03*
X165700000Y-97100000D03*
G04 #@! TO.N,/DigitalOutput1*
X143932370Y-150500000D03*
G04 #@! TO.N,/DigitalOutput2*
X142750000Y-150750000D03*
G04 #@! TO.N,DigitalOutput3*
X183250000Y-132650000D03*
G04 #@! TO.N,DigitalOutput4*
X177750000Y-132250000D03*
G04 #@! TO.N,DigitalOutput5*
X171750000Y-132000000D03*
G04 #@! TO.N,DigitalOutput6*
X166000000Y-132250000D03*
G04 #@! TD*
D19*
G04 #@! TO.N,GNDPWR*
G36*
X203072608Y-152265000D02*
X125927612Y-152265000D01*
X125887393Y-152273000D01*
X124485000Y-152273000D01*
X124485000Y-145821072D01*
X128005000Y-145821072D01*
X128005000Y-146578928D01*
X128295019Y-147279096D01*
X128830904Y-147814981D01*
X129531072Y-148105000D01*
X130288928Y-148105000D01*
X130989096Y-147814981D01*
X131524981Y-147279096D01*
X131815000Y-146578928D01*
X131815000Y-145821072D01*
X131524981Y-145120904D01*
X130989096Y-144585019D01*
X130288928Y-144295000D01*
X129531072Y-144295000D01*
X128830904Y-144585019D01*
X128295019Y-145120904D01*
X128005000Y-145821072D01*
X124485000Y-145821072D01*
X124485000Y-140842119D01*
X134233000Y-140842119D01*
X134233000Y-141397881D01*
X134445680Y-141911337D01*
X134838663Y-142304320D01*
X135045513Y-142390000D01*
X134838663Y-142475680D01*
X134445680Y-142868663D01*
X134233000Y-143382119D01*
X134233000Y-143937881D01*
X134445680Y-144451337D01*
X134838663Y-144844320D01*
X135045513Y-144930000D01*
X134838663Y-145015680D01*
X134445680Y-145408663D01*
X134233000Y-145922119D01*
X134233000Y-146477881D01*
X134445680Y-146991337D01*
X134838663Y-147384320D01*
X135045513Y-147470000D01*
X134838663Y-147555680D01*
X134445680Y-147948663D01*
X134233000Y-148462119D01*
X134233000Y-149017881D01*
X134445680Y-149531337D01*
X134838663Y-149924320D01*
X135352119Y-150137000D01*
X135907881Y-150137000D01*
X136421337Y-149924320D01*
X136814320Y-149531337D01*
X136900000Y-149324487D01*
X136985680Y-149531337D01*
X137378663Y-149924320D01*
X137892119Y-150137000D01*
X138447881Y-150137000D01*
X138961337Y-149924320D01*
X139354320Y-149531337D01*
X139440000Y-149324487D01*
X139525680Y-149531337D01*
X139918663Y-149924320D01*
X140432119Y-150137000D01*
X140987881Y-150137000D01*
X141501337Y-149924320D01*
X141894320Y-149531337D01*
X141980000Y-149324487D01*
X142065680Y-149531337D01*
X142335683Y-149801340D01*
X142163720Y-149872569D01*
X141872569Y-150163720D01*
X141715000Y-150544126D01*
X141715000Y-150955874D01*
X141872569Y-151336280D01*
X142163720Y-151627431D01*
X142544126Y-151785000D01*
X142955874Y-151785000D01*
X143336280Y-151627431D01*
X143515930Y-151447781D01*
X143726496Y-151535000D01*
X144138244Y-151535000D01*
X144518650Y-151377431D01*
X144809801Y-151086280D01*
X144967370Y-150705874D01*
X144967370Y-150294126D01*
X144809801Y-149913720D01*
X144518650Y-149622569D01*
X144394509Y-149571148D01*
X144434320Y-149531337D01*
X144520000Y-149324487D01*
X144605680Y-149531337D01*
X144998663Y-149924320D01*
X145512119Y-150137000D01*
X146067881Y-150137000D01*
X146581337Y-149924320D01*
X146974320Y-149531337D01*
X147060000Y-149324487D01*
X147145680Y-149531337D01*
X147538663Y-149924320D01*
X148052119Y-150137000D01*
X148607881Y-150137000D01*
X149121337Y-149924320D01*
X149514320Y-149531337D01*
X149727000Y-149017881D01*
X149727000Y-148462119D01*
X149514320Y-147948663D01*
X149121337Y-147555680D01*
X148914487Y-147470000D01*
X149121337Y-147384320D01*
X149514320Y-146991337D01*
X149727000Y-146477881D01*
X149727000Y-145922119D01*
X149514320Y-145408663D01*
X149121337Y-145015680D01*
X148914487Y-144930000D01*
X149121337Y-144844320D01*
X149514320Y-144451337D01*
X149727000Y-143937881D01*
X149727000Y-143382119D01*
X149514320Y-142868663D01*
X149121337Y-142475680D01*
X148914487Y-142390000D01*
X149121337Y-142304320D01*
X149514320Y-141911337D01*
X149727000Y-141397881D01*
X149727000Y-140842119D01*
X150103000Y-140842119D01*
X150103000Y-141397881D01*
X150315680Y-141911337D01*
X150708663Y-142304320D01*
X150915513Y-142390000D01*
X150708663Y-142475680D01*
X150315680Y-142868663D01*
X150103000Y-143382119D01*
X150103000Y-143937881D01*
X150315680Y-144451337D01*
X150708663Y-144844320D01*
X150915513Y-144930000D01*
X150708663Y-145015680D01*
X150315680Y-145408663D01*
X150103000Y-145922119D01*
X150103000Y-146477881D01*
X150315680Y-146991337D01*
X150708663Y-147384320D01*
X150915513Y-147470000D01*
X150708663Y-147555680D01*
X150315680Y-147948663D01*
X150103000Y-148462119D01*
X150103000Y-149017881D01*
X150315680Y-149531337D01*
X150708663Y-149924320D01*
X151222119Y-150137000D01*
X151777881Y-150137000D01*
X152291337Y-149924320D01*
X152684320Y-149531337D01*
X152770000Y-149324487D01*
X152855680Y-149531337D01*
X153248663Y-149924320D01*
X153762119Y-150137000D01*
X154317881Y-150137000D01*
X154831337Y-149924320D01*
X155224320Y-149531337D01*
X155437000Y-149017881D01*
X155437000Y-148462119D01*
X155224320Y-147948663D01*
X154831337Y-147555680D01*
X154624487Y-147470000D01*
X154831337Y-147384320D01*
X155224320Y-146991337D01*
X155437000Y-146477881D01*
X155437000Y-145922119D01*
X155224320Y-145408663D01*
X154831337Y-145015680D01*
X154624487Y-144930000D01*
X154831337Y-144844320D01*
X155224320Y-144451337D01*
X155437000Y-143937881D01*
X155437000Y-143382119D01*
X155224320Y-142868663D01*
X154831337Y-142475680D01*
X154624487Y-142390000D01*
X154831337Y-142304320D01*
X155224320Y-141911337D01*
X155437000Y-141397881D01*
X155437000Y-140842119D01*
X156453000Y-140842119D01*
X156453000Y-141397881D01*
X156665680Y-141911337D01*
X157058663Y-142304320D01*
X157265513Y-142390000D01*
X157058663Y-142475680D01*
X156665680Y-142868663D01*
X156453000Y-143382119D01*
X156453000Y-143937881D01*
X156665680Y-144451337D01*
X157058663Y-144844320D01*
X157265513Y-144930000D01*
X157058663Y-145015680D01*
X156665680Y-145408663D01*
X156453000Y-145922119D01*
X156453000Y-146477881D01*
X156665680Y-146991337D01*
X157058663Y-147384320D01*
X157265513Y-147470000D01*
X157058663Y-147555680D01*
X156665680Y-147948663D01*
X156453000Y-148462119D01*
X156453000Y-149017881D01*
X156665680Y-149531337D01*
X157058663Y-149924320D01*
X157572119Y-150137000D01*
X158127881Y-150137000D01*
X158641337Y-149924320D01*
X159034320Y-149531337D01*
X159120000Y-149324487D01*
X159205680Y-149531337D01*
X159598663Y-149924320D01*
X160112119Y-150137000D01*
X160667881Y-150137000D01*
X161181337Y-149924320D01*
X161574320Y-149531337D01*
X161787000Y-149017881D01*
X161787000Y-148462119D01*
X161574320Y-147948663D01*
X161181337Y-147555680D01*
X160974487Y-147470000D01*
X161181337Y-147384320D01*
X161574320Y-146991337D01*
X161787000Y-146477881D01*
X161787000Y-145922119D01*
X161574320Y-145408663D01*
X161181337Y-145015680D01*
X160974487Y-144930000D01*
X161181337Y-144844320D01*
X161574320Y-144451337D01*
X161787000Y-143937881D01*
X161787000Y-143382119D01*
X161574320Y-142868663D01*
X161181337Y-142475680D01*
X160974487Y-142390000D01*
X161181337Y-142304320D01*
X161574320Y-141911337D01*
X161787000Y-141397881D01*
X161787000Y-140842119D01*
X162803000Y-140842119D01*
X162803000Y-141397881D01*
X163015680Y-141911337D01*
X163408663Y-142304320D01*
X163615513Y-142390000D01*
X163408663Y-142475680D01*
X163015680Y-142868663D01*
X162803000Y-143382119D01*
X162803000Y-143937881D01*
X163015680Y-144451337D01*
X163408663Y-144844320D01*
X163615513Y-144930000D01*
X163408663Y-145015680D01*
X163015680Y-145408663D01*
X162803000Y-145922119D01*
X162803000Y-146477881D01*
X163015680Y-146991337D01*
X163408663Y-147384320D01*
X163615513Y-147470000D01*
X163408663Y-147555680D01*
X163015680Y-147948663D01*
X162803000Y-148462119D01*
X162803000Y-149017881D01*
X163015680Y-149531337D01*
X163408663Y-149924320D01*
X163922119Y-150137000D01*
X164477881Y-150137000D01*
X164991337Y-149924320D01*
X165384320Y-149531337D01*
X165470000Y-149324487D01*
X165555680Y-149531337D01*
X165948663Y-149924320D01*
X166462119Y-150137000D01*
X167017881Y-150137000D01*
X167531337Y-149924320D01*
X167924320Y-149531337D01*
X168137000Y-149017881D01*
X168137000Y-148462119D01*
X167924320Y-147948663D01*
X167531337Y-147555680D01*
X167324487Y-147470000D01*
X167531337Y-147384320D01*
X167924320Y-146991337D01*
X168137000Y-146477881D01*
X168137000Y-145922119D01*
X168095146Y-145821072D01*
X190235000Y-145821072D01*
X190235000Y-146578928D01*
X190525019Y-147279096D01*
X191060904Y-147814981D01*
X191761072Y-148105000D01*
X192518928Y-148105000D01*
X193219096Y-147814981D01*
X193754981Y-147279096D01*
X194045000Y-146578928D01*
X194045000Y-145821072D01*
X193754981Y-145120904D01*
X193219096Y-144585019D01*
X192518928Y-144295000D01*
X191761072Y-144295000D01*
X191060904Y-144585019D01*
X190525019Y-145120904D01*
X190235000Y-145821072D01*
X168095146Y-145821072D01*
X167924320Y-145408663D01*
X167531337Y-145015680D01*
X167324487Y-144930000D01*
X167531337Y-144844320D01*
X167924320Y-144451337D01*
X168137000Y-143937881D01*
X168137000Y-143382119D01*
X167924320Y-142868663D01*
X167531337Y-142475680D01*
X167324487Y-142390000D01*
X167531337Y-142304320D01*
X167924320Y-141911337D01*
X168137000Y-141397881D01*
X168137000Y-140842119D01*
X167924320Y-140328663D01*
X167531337Y-139935680D01*
X167017881Y-139723000D01*
X166462119Y-139723000D01*
X165948663Y-139935680D01*
X165555680Y-140328663D01*
X165470000Y-140535513D01*
X165384320Y-140328663D01*
X164991337Y-139935680D01*
X164477881Y-139723000D01*
X163922119Y-139723000D01*
X163408663Y-139935680D01*
X163015680Y-140328663D01*
X162803000Y-140842119D01*
X161787000Y-140842119D01*
X161574320Y-140328663D01*
X161181337Y-139935680D01*
X160667881Y-139723000D01*
X160112119Y-139723000D01*
X159598663Y-139935680D01*
X159205680Y-140328663D01*
X159120000Y-140535513D01*
X159034320Y-140328663D01*
X158641337Y-139935680D01*
X158127881Y-139723000D01*
X157572119Y-139723000D01*
X157058663Y-139935680D01*
X156665680Y-140328663D01*
X156453000Y-140842119D01*
X155437000Y-140842119D01*
X155224320Y-140328663D01*
X154831337Y-139935680D01*
X154317881Y-139723000D01*
X153762119Y-139723000D01*
X153248663Y-139935680D01*
X152855680Y-140328663D01*
X152770000Y-140535513D01*
X152684320Y-140328663D01*
X152291337Y-139935680D01*
X151777881Y-139723000D01*
X151222119Y-139723000D01*
X150708663Y-139935680D01*
X150315680Y-140328663D01*
X150103000Y-140842119D01*
X149727000Y-140842119D01*
X149514320Y-140328663D01*
X149121337Y-139935680D01*
X148607881Y-139723000D01*
X148052119Y-139723000D01*
X147538663Y-139935680D01*
X147145680Y-140328663D01*
X147060000Y-140535513D01*
X146974320Y-140328663D01*
X146581337Y-139935680D01*
X146067881Y-139723000D01*
X145512119Y-139723000D01*
X144998663Y-139935680D01*
X144605680Y-140328663D01*
X144520000Y-140535513D01*
X144434320Y-140328663D01*
X144041337Y-139935680D01*
X143527881Y-139723000D01*
X142972119Y-139723000D01*
X142458663Y-139935680D01*
X142065680Y-140328663D01*
X141980000Y-140535513D01*
X141894320Y-140328663D01*
X141501337Y-139935680D01*
X140987881Y-139723000D01*
X140432119Y-139723000D01*
X139918663Y-139935680D01*
X139525680Y-140328663D01*
X139440000Y-140535513D01*
X139354320Y-140328663D01*
X138961337Y-139935680D01*
X138447881Y-139723000D01*
X137892119Y-139723000D01*
X137378663Y-139935680D01*
X136985680Y-140328663D01*
X136900000Y-140535513D01*
X136814320Y-140328663D01*
X136421337Y-139935680D01*
X135907881Y-139723000D01*
X135352119Y-139723000D01*
X134838663Y-139935680D01*
X134445680Y-140328663D01*
X134233000Y-140842119D01*
X124485000Y-140842119D01*
X124485000Y-136725866D01*
X131615000Y-136725866D01*
X131615000Y-137774134D01*
X132016155Y-138742608D01*
X132757392Y-139483845D01*
X133725866Y-139885000D01*
X134774134Y-139885000D01*
X135742608Y-139483845D01*
X136483845Y-138742608D01*
X136885000Y-137774134D01*
X136885000Y-136725866D01*
X180615000Y-136725866D01*
X180615000Y-137774134D01*
X181016155Y-138742608D01*
X181757392Y-139483845D01*
X182725866Y-139885000D01*
X183774134Y-139885000D01*
X184742608Y-139483845D01*
X185483845Y-138742608D01*
X185885000Y-137774134D01*
X185885000Y-136725866D01*
X185483845Y-135757392D01*
X184742608Y-135016155D01*
X183774134Y-134615000D01*
X182725866Y-134615000D01*
X181757392Y-135016155D01*
X181016155Y-135757392D01*
X180615000Y-136725866D01*
X136885000Y-136725866D01*
X136483845Y-135757392D01*
X135742608Y-135016155D01*
X134774134Y-134615000D01*
X133725866Y-134615000D01*
X132757392Y-135016155D01*
X132016155Y-135757392D01*
X131615000Y-136725866D01*
X124485000Y-136725866D01*
X124485000Y-132044126D01*
X164965000Y-132044126D01*
X164965000Y-132455874D01*
X165122569Y-132836280D01*
X165413720Y-133127431D01*
X165794126Y-133285000D01*
X166205874Y-133285000D01*
X166586280Y-133127431D01*
X166877431Y-132836280D01*
X167035000Y-132455874D01*
X167035000Y-132044126D01*
X166931447Y-131794126D01*
X170715000Y-131794126D01*
X170715000Y-132205874D01*
X170872569Y-132586280D01*
X171163720Y-132877431D01*
X171544126Y-133035000D01*
X171955874Y-133035000D01*
X172336280Y-132877431D01*
X172627431Y-132586280D01*
X172785000Y-132205874D01*
X172785000Y-132044126D01*
X176715000Y-132044126D01*
X176715000Y-132455874D01*
X176872569Y-132836280D01*
X177163720Y-133127431D01*
X177544126Y-133285000D01*
X177955874Y-133285000D01*
X178336280Y-133127431D01*
X178627431Y-132836280D01*
X178785000Y-132455874D01*
X178785000Y-132444126D01*
X182215000Y-132444126D01*
X182215000Y-132855874D01*
X182372569Y-133236280D01*
X182663720Y-133527431D01*
X183044126Y-133685000D01*
X183455874Y-133685000D01*
X183836280Y-133527431D01*
X184127431Y-133236280D01*
X184285000Y-132855874D01*
X184285000Y-132444126D01*
X184127431Y-132063720D01*
X183836280Y-131772569D01*
X183455874Y-131615000D01*
X183044126Y-131615000D01*
X182663720Y-131772569D01*
X182372569Y-132063720D01*
X182215000Y-132444126D01*
X178785000Y-132444126D01*
X178785000Y-132044126D01*
X178627431Y-131663720D01*
X178336280Y-131372569D01*
X177955874Y-131215000D01*
X177544126Y-131215000D01*
X177163720Y-131372569D01*
X176872569Y-131663720D01*
X176715000Y-132044126D01*
X172785000Y-132044126D01*
X172785000Y-131794126D01*
X172627431Y-131413720D01*
X172336280Y-131122569D01*
X171955874Y-130965000D01*
X171544126Y-130965000D01*
X171163720Y-131122569D01*
X170872569Y-131413720D01*
X170715000Y-131794126D01*
X166931447Y-131794126D01*
X166877431Y-131663720D01*
X166586280Y-131372569D01*
X166205874Y-131215000D01*
X165794126Y-131215000D01*
X165413720Y-131372569D01*
X165122569Y-131663720D01*
X164965000Y-132044126D01*
X124485000Y-132044126D01*
X124485000Y-112182119D01*
X127923000Y-112182119D01*
X127923000Y-112737881D01*
X128135680Y-113251337D01*
X128528663Y-113644320D01*
X128735513Y-113730000D01*
X128528663Y-113815680D01*
X128135680Y-114208663D01*
X127923000Y-114722119D01*
X127923000Y-115277881D01*
X128135680Y-115791337D01*
X128528663Y-116184320D01*
X128735513Y-116270000D01*
X128528663Y-116355680D01*
X128135680Y-116748663D01*
X127923000Y-117262119D01*
X127923000Y-117817881D01*
X128135680Y-118331337D01*
X128528663Y-118724320D01*
X128735513Y-118810000D01*
X128528663Y-118895680D01*
X128135680Y-119288663D01*
X127923000Y-119802119D01*
X127923000Y-120357881D01*
X128135680Y-120871337D01*
X128528663Y-121264320D01*
X128735513Y-121350000D01*
X128528663Y-121435680D01*
X128135680Y-121828663D01*
X127923000Y-122342119D01*
X127923000Y-122897881D01*
X128135680Y-123411337D01*
X128528663Y-123804320D01*
X129042119Y-124017000D01*
X129597881Y-124017000D01*
X130111337Y-123804320D01*
X130504320Y-123411337D01*
X130717000Y-122897881D01*
X130717000Y-122342119D01*
X133003000Y-122342119D01*
X133003000Y-122897881D01*
X133215680Y-123411337D01*
X133608663Y-123804320D01*
X133815513Y-123890000D01*
X133608663Y-123975680D01*
X133215680Y-124368663D01*
X133003000Y-124882119D01*
X133003000Y-125437881D01*
X133215680Y-125951337D01*
X133608663Y-126344320D01*
X134122119Y-126557000D01*
X134677881Y-126557000D01*
X135191337Y-126344320D01*
X135584320Y-125951337D01*
X135670000Y-125744487D01*
X135755680Y-125951337D01*
X136148663Y-126344320D01*
X136662119Y-126557000D01*
X137217881Y-126557000D01*
X137731337Y-126344320D01*
X138124320Y-125951337D01*
X138210000Y-125744487D01*
X138295680Y-125951337D01*
X138688663Y-126344320D01*
X139202119Y-126557000D01*
X139757881Y-126557000D01*
X140271337Y-126344320D01*
X140664320Y-125951337D01*
X140750000Y-125744487D01*
X140835680Y-125951337D01*
X141228663Y-126344320D01*
X141742119Y-126557000D01*
X142297881Y-126557000D01*
X142811337Y-126344320D01*
X143204320Y-125951337D01*
X143417000Y-125437881D01*
X143417000Y-124882119D01*
X143204320Y-124368663D01*
X142811337Y-123975680D01*
X142604487Y-123890000D01*
X142811337Y-123804320D01*
X143204320Y-123411337D01*
X143417000Y-122897881D01*
X143417000Y-122342119D01*
X145703000Y-122342119D01*
X145703000Y-122897881D01*
X145915680Y-123411337D01*
X146308663Y-123804320D01*
X146515513Y-123890000D01*
X146308663Y-123975680D01*
X145915680Y-124368663D01*
X145703000Y-124882119D01*
X145703000Y-125437881D01*
X145915680Y-125951337D01*
X146308663Y-126344320D01*
X146822119Y-126557000D01*
X147377881Y-126557000D01*
X147891337Y-126344320D01*
X148284320Y-125951337D01*
X148370000Y-125744487D01*
X148455680Y-125951337D01*
X148848663Y-126344320D01*
X149362119Y-126557000D01*
X149917881Y-126557000D01*
X150431337Y-126344320D01*
X150824320Y-125951337D01*
X150910000Y-125744487D01*
X150995680Y-125951337D01*
X151388663Y-126344320D01*
X151902119Y-126557000D01*
X152457881Y-126557000D01*
X152971337Y-126344320D01*
X153364320Y-125951337D01*
X153450000Y-125744487D01*
X153535680Y-125951337D01*
X153928663Y-126344320D01*
X154442119Y-126557000D01*
X154997881Y-126557000D01*
X155511337Y-126344320D01*
X155904320Y-125951337D01*
X156117000Y-125437881D01*
X156117000Y-124882119D01*
X155904320Y-124368663D01*
X155511337Y-123975680D01*
X155304487Y-123890000D01*
X155511337Y-123804320D01*
X155904320Y-123411337D01*
X156117000Y-122897881D01*
X156117000Y-122342119D01*
X160943000Y-122342119D01*
X160943000Y-122897881D01*
X161155680Y-123411337D01*
X161548663Y-123804320D01*
X161755513Y-123890000D01*
X161548663Y-123975680D01*
X161155680Y-124368663D01*
X160943000Y-124882119D01*
X160943000Y-125437881D01*
X161155680Y-125951337D01*
X161548663Y-126344320D01*
X162062119Y-126557000D01*
X162617881Y-126557000D01*
X163131337Y-126344320D01*
X163524320Y-125951337D01*
X163610000Y-125744487D01*
X163695680Y-125951337D01*
X164088663Y-126344320D01*
X164602119Y-126557000D01*
X165157881Y-126557000D01*
X165671337Y-126344320D01*
X166064320Y-125951337D01*
X166150000Y-125744487D01*
X166235680Y-125951337D01*
X166628663Y-126344320D01*
X167142119Y-126557000D01*
X167697881Y-126557000D01*
X168211337Y-126344320D01*
X168604320Y-125951337D01*
X168690000Y-125744487D01*
X168775680Y-125951337D01*
X169168663Y-126344320D01*
X169682119Y-126557000D01*
X170237881Y-126557000D01*
X170751337Y-126344320D01*
X171144320Y-125951337D01*
X171357000Y-125437881D01*
X171357000Y-124882119D01*
X171144320Y-124368663D01*
X170751337Y-123975680D01*
X170544487Y-123890000D01*
X170751337Y-123804320D01*
X171144320Y-123411337D01*
X171357000Y-122897881D01*
X171357000Y-122342119D01*
X173643000Y-122342119D01*
X173643000Y-122897881D01*
X173855680Y-123411337D01*
X174248663Y-123804320D01*
X174455513Y-123890000D01*
X174248663Y-123975680D01*
X173855680Y-124368663D01*
X173643000Y-124882119D01*
X173643000Y-125437881D01*
X173855680Y-125951337D01*
X174248663Y-126344320D01*
X174762119Y-126557000D01*
X175317881Y-126557000D01*
X175831337Y-126344320D01*
X176224320Y-125951337D01*
X176310000Y-125744487D01*
X176395680Y-125951337D01*
X176788663Y-126344320D01*
X177302119Y-126557000D01*
X177857881Y-126557000D01*
X178371337Y-126344320D01*
X178764320Y-125951337D01*
X178850000Y-125744487D01*
X178935680Y-125951337D01*
X179328663Y-126344320D01*
X179842119Y-126557000D01*
X180397881Y-126557000D01*
X180911337Y-126344320D01*
X181304320Y-125951337D01*
X181390000Y-125744487D01*
X181475680Y-125951337D01*
X181868663Y-126344320D01*
X182382119Y-126557000D01*
X182937881Y-126557000D01*
X183451337Y-126344320D01*
X183844320Y-125951337D01*
X184057000Y-125437881D01*
X184057000Y-124882119D01*
X183844320Y-124368663D01*
X183451337Y-123975680D01*
X183244487Y-123890000D01*
X183451337Y-123804320D01*
X183844320Y-123411337D01*
X184057000Y-122897881D01*
X184057000Y-122342119D01*
X183844320Y-121828663D01*
X183451337Y-121435680D01*
X182937881Y-121223000D01*
X182382119Y-121223000D01*
X181868663Y-121435680D01*
X181475680Y-121828663D01*
X181390000Y-122035513D01*
X181304320Y-121828663D01*
X180911337Y-121435680D01*
X180397881Y-121223000D01*
X179842119Y-121223000D01*
X179328663Y-121435680D01*
X178935680Y-121828663D01*
X178850000Y-122035513D01*
X178764320Y-121828663D01*
X178371337Y-121435680D01*
X177857881Y-121223000D01*
X177302119Y-121223000D01*
X176788663Y-121435680D01*
X176395680Y-121828663D01*
X176310000Y-122035513D01*
X176224320Y-121828663D01*
X175831337Y-121435680D01*
X175317881Y-121223000D01*
X174762119Y-121223000D01*
X174248663Y-121435680D01*
X173855680Y-121828663D01*
X173643000Y-122342119D01*
X171357000Y-122342119D01*
X171144320Y-121828663D01*
X170751337Y-121435680D01*
X170237881Y-121223000D01*
X169682119Y-121223000D01*
X169168663Y-121435680D01*
X168775680Y-121828663D01*
X168690000Y-122035513D01*
X168604320Y-121828663D01*
X168211337Y-121435680D01*
X167697881Y-121223000D01*
X167142119Y-121223000D01*
X166628663Y-121435680D01*
X166235680Y-121828663D01*
X166150000Y-122035513D01*
X166064320Y-121828663D01*
X165671337Y-121435680D01*
X165157881Y-121223000D01*
X164602119Y-121223000D01*
X164088663Y-121435680D01*
X163695680Y-121828663D01*
X163610000Y-122035513D01*
X163524320Y-121828663D01*
X163131337Y-121435680D01*
X162617881Y-121223000D01*
X162062119Y-121223000D01*
X161548663Y-121435680D01*
X161155680Y-121828663D01*
X160943000Y-122342119D01*
X156117000Y-122342119D01*
X155904320Y-121828663D01*
X155511337Y-121435680D01*
X154997881Y-121223000D01*
X154442119Y-121223000D01*
X153928663Y-121435680D01*
X153535680Y-121828663D01*
X153450000Y-122035513D01*
X153364320Y-121828663D01*
X152971337Y-121435680D01*
X152457881Y-121223000D01*
X151902119Y-121223000D01*
X151388663Y-121435680D01*
X150995680Y-121828663D01*
X150910000Y-122035513D01*
X150824320Y-121828663D01*
X150431337Y-121435680D01*
X149917881Y-121223000D01*
X149362119Y-121223000D01*
X148848663Y-121435680D01*
X148455680Y-121828663D01*
X148370000Y-122035513D01*
X148284320Y-121828663D01*
X147891337Y-121435680D01*
X147377881Y-121223000D01*
X146822119Y-121223000D01*
X146308663Y-121435680D01*
X145915680Y-121828663D01*
X145703000Y-122342119D01*
X143417000Y-122342119D01*
X143204320Y-121828663D01*
X142811337Y-121435680D01*
X142297881Y-121223000D01*
X141742119Y-121223000D01*
X141228663Y-121435680D01*
X140835680Y-121828663D01*
X140750000Y-122035513D01*
X140664320Y-121828663D01*
X140271337Y-121435680D01*
X139757881Y-121223000D01*
X139202119Y-121223000D01*
X138688663Y-121435680D01*
X138295680Y-121828663D01*
X138210000Y-122035513D01*
X138124320Y-121828663D01*
X137731337Y-121435680D01*
X137217881Y-121223000D01*
X136662119Y-121223000D01*
X136148663Y-121435680D01*
X135755680Y-121828663D01*
X135670000Y-122035513D01*
X135584320Y-121828663D01*
X135191337Y-121435680D01*
X134677881Y-121223000D01*
X134122119Y-121223000D01*
X133608663Y-121435680D01*
X133215680Y-121828663D01*
X133003000Y-122342119D01*
X130717000Y-122342119D01*
X130504320Y-121828663D01*
X130111337Y-121435680D01*
X129904487Y-121350000D01*
X130111337Y-121264320D01*
X130504320Y-120871337D01*
X130717000Y-120357881D01*
X130717000Y-119802119D01*
X130504320Y-119288663D01*
X130111337Y-118895680D01*
X129904487Y-118810000D01*
X130111337Y-118724320D01*
X130504320Y-118331337D01*
X130717000Y-117817881D01*
X130717000Y-117262119D01*
X130504320Y-116748663D01*
X130111337Y-116355680D01*
X129904487Y-116270000D01*
X130111337Y-116184320D01*
X130504320Y-115791337D01*
X130717000Y-115277881D01*
X130717000Y-114722119D01*
X130504320Y-114208663D01*
X130111337Y-113815680D01*
X129904487Y-113730000D01*
X130111337Y-113644320D01*
X130504320Y-113251337D01*
X130717000Y-112737881D01*
X130717000Y-112182119D01*
X186343000Y-112182119D01*
X186343000Y-112737881D01*
X186555680Y-113251337D01*
X186948663Y-113644320D01*
X187155513Y-113730000D01*
X186948663Y-113815680D01*
X186555680Y-114208663D01*
X186343000Y-114722119D01*
X186343000Y-115277881D01*
X186555680Y-115791337D01*
X186948663Y-116184320D01*
X187155513Y-116270000D01*
X186948663Y-116355680D01*
X186555680Y-116748663D01*
X186343000Y-117262119D01*
X186343000Y-117817881D01*
X186555680Y-118331337D01*
X186948663Y-118724320D01*
X187155513Y-118810000D01*
X186948663Y-118895680D01*
X186555680Y-119288663D01*
X186343000Y-119802119D01*
X186343000Y-120357881D01*
X186555680Y-120871337D01*
X186948663Y-121264320D01*
X187155513Y-121350000D01*
X186948663Y-121435680D01*
X186555680Y-121828663D01*
X186343000Y-122342119D01*
X186343000Y-122897881D01*
X186555680Y-123411337D01*
X186948663Y-123804320D01*
X187462119Y-124017000D01*
X188017881Y-124017000D01*
X188531337Y-123804320D01*
X188924320Y-123411337D01*
X189137000Y-122897881D01*
X189137000Y-122342119D01*
X188924320Y-121828663D01*
X188531337Y-121435680D01*
X188324487Y-121350000D01*
X188531337Y-121264320D01*
X188924320Y-120871337D01*
X189137000Y-120357881D01*
X189137000Y-119802119D01*
X188924320Y-119288663D01*
X188531337Y-118895680D01*
X188324487Y-118810000D01*
X188531337Y-118724320D01*
X188924320Y-118331337D01*
X189137000Y-117817881D01*
X189137000Y-117262119D01*
X188924320Y-116748663D01*
X188531337Y-116355680D01*
X188324487Y-116270000D01*
X188531337Y-116184320D01*
X188924320Y-115791337D01*
X189137000Y-115277881D01*
X189137000Y-114722119D01*
X188924320Y-114208663D01*
X188531337Y-113815680D01*
X188324487Y-113730000D01*
X188531337Y-113644320D01*
X188924320Y-113251337D01*
X189137000Y-112737881D01*
X189137000Y-112182119D01*
X188924320Y-111668663D01*
X188531337Y-111275680D01*
X188017881Y-111063000D01*
X187462119Y-111063000D01*
X186948663Y-111275680D01*
X186555680Y-111668663D01*
X186343000Y-112182119D01*
X130717000Y-112182119D01*
X130504320Y-111668663D01*
X130111337Y-111275680D01*
X129597881Y-111063000D01*
X129042119Y-111063000D01*
X128528663Y-111275680D01*
X128135680Y-111668663D01*
X127923000Y-112182119D01*
X124485000Y-112182119D01*
X124485000Y-106994126D01*
X166065000Y-106994126D01*
X166065000Y-107405874D01*
X166222569Y-107786280D01*
X166513720Y-108077431D01*
X166894126Y-108235000D01*
X167305874Y-108235000D01*
X167686280Y-108077431D01*
X167977431Y-107786280D01*
X168135000Y-107405874D01*
X168135000Y-106994126D01*
X167977431Y-106613720D01*
X167686280Y-106322569D01*
X167305874Y-106165000D01*
X166894126Y-106165000D01*
X166513720Y-106322569D01*
X166222569Y-106613720D01*
X166065000Y-106994126D01*
X124485000Y-106994126D01*
X124485000Y-98240000D01*
X127985908Y-98240000D01*
X128101161Y-98819418D01*
X128429375Y-99310625D01*
X128727761Y-99510000D01*
X128429375Y-99709375D01*
X128101161Y-100200582D01*
X127985908Y-100780000D01*
X128101161Y-101359418D01*
X128429375Y-101850625D01*
X128920582Y-102178839D01*
X129353744Y-102265000D01*
X129646256Y-102265000D01*
X130079418Y-102178839D01*
X130570625Y-101850625D01*
X130898839Y-101359418D01*
X131014092Y-100780000D01*
X130898839Y-100200582D01*
X130570625Y-99709375D01*
X130272239Y-99510000D01*
X130570625Y-99310625D01*
X130898839Y-98819418D01*
X131014092Y-98240000D01*
X130898839Y-97660582D01*
X130570625Y-97169375D01*
X130079418Y-96841161D01*
X129646256Y-96755000D01*
X129353744Y-96755000D01*
X128920582Y-96841161D01*
X128429375Y-97169375D01*
X128101161Y-97660582D01*
X127985908Y-98240000D01*
X124485000Y-98240000D01*
X124485000Y-95320000D01*
X150785908Y-95320000D01*
X150901161Y-95899418D01*
X151229375Y-96390625D01*
X151527761Y-96590000D01*
X151229375Y-96789375D01*
X150901161Y-97280582D01*
X150785908Y-97860000D01*
X150901161Y-98439418D01*
X151229375Y-98930625D01*
X151247619Y-98942816D01*
X151202235Y-98951843D01*
X150992191Y-99092191D01*
X150851843Y-99302235D01*
X150802560Y-99550000D01*
X150802560Y-101250000D01*
X150851843Y-101497765D01*
X150992191Y-101707809D01*
X151202235Y-101848157D01*
X151450000Y-101897440D01*
X153150000Y-101897440D01*
X153397765Y-101848157D01*
X153607809Y-101707809D01*
X153748157Y-101497765D01*
X153797440Y-101250000D01*
X153797440Y-99550000D01*
X153748157Y-99302235D01*
X153607809Y-99092191D01*
X153397765Y-98951843D01*
X153352381Y-98942816D01*
X153370625Y-98930625D01*
X153698839Y-98439418D01*
X153814092Y-97860000D01*
X153698839Y-97280582D01*
X153370625Y-96789375D01*
X153072239Y-96590000D01*
X153370625Y-96390625D01*
X153698839Y-95899418D01*
X153814092Y-95320000D01*
X153698839Y-94740582D01*
X153370625Y-94249375D01*
X152879418Y-93921161D01*
X152446256Y-93835000D01*
X152153744Y-93835000D01*
X151720582Y-93921161D01*
X151229375Y-94249375D01*
X150901161Y-94740582D01*
X150785908Y-95320000D01*
X124485000Y-95320000D01*
X124485000Y-85540000D01*
X127985908Y-85540000D01*
X128101161Y-86119418D01*
X128429375Y-86610625D01*
X128727761Y-86810000D01*
X128429375Y-87009375D01*
X128101161Y-87500582D01*
X127985908Y-88080000D01*
X128101161Y-88659418D01*
X128429375Y-89150625D01*
X128727761Y-89350000D01*
X128429375Y-89549375D01*
X128101161Y-90040582D01*
X127985908Y-90620000D01*
X128101161Y-91199418D01*
X128429375Y-91690625D01*
X128727761Y-91890000D01*
X128429375Y-92089375D01*
X128101161Y-92580582D01*
X127985908Y-93160000D01*
X128101161Y-93739418D01*
X128429375Y-94230625D01*
X128920582Y-94558839D01*
X129353744Y-94645000D01*
X129646256Y-94645000D01*
X130079418Y-94558839D01*
X130570625Y-94230625D01*
X130898839Y-93739418D01*
X131014092Y-93160000D01*
X130898839Y-92580582D01*
X130570625Y-92089375D01*
X130272239Y-91890000D01*
X130406933Y-91800000D01*
X155785908Y-91800000D01*
X155901161Y-92379418D01*
X156229375Y-92870625D01*
X156527761Y-93070000D01*
X156229375Y-93269375D01*
X155901161Y-93760582D01*
X155785908Y-94340000D01*
X155901161Y-94919418D01*
X156229375Y-95410625D01*
X156527761Y-95610000D01*
X156229375Y-95809375D01*
X155901161Y-96300582D01*
X155785908Y-96880000D01*
X155901161Y-97459418D01*
X156229375Y-97950625D01*
X156527761Y-98150000D01*
X156229375Y-98349375D01*
X155901161Y-98840582D01*
X155785908Y-99420000D01*
X155901161Y-99999418D01*
X156229375Y-100490625D01*
X156527761Y-100690000D01*
X156229375Y-100889375D01*
X155901161Y-101380582D01*
X155785908Y-101960000D01*
X155901161Y-102539418D01*
X156229375Y-103030625D01*
X156720582Y-103358839D01*
X157153744Y-103445000D01*
X157446256Y-103445000D01*
X157879418Y-103358839D01*
X158370625Y-103030625D01*
X158423415Y-102951618D01*
X170457828Y-102951618D01*
X170457828Y-103363366D01*
X170615397Y-103743772D01*
X170906548Y-104034923D01*
X171286954Y-104192492D01*
X171698702Y-104192492D01*
X172056889Y-104044126D01*
X176715000Y-104044126D01*
X176715000Y-104455874D01*
X176872569Y-104836280D01*
X177163720Y-105127431D01*
X177544126Y-105285000D01*
X177955874Y-105285000D01*
X178336280Y-105127431D01*
X178627431Y-104836280D01*
X178785000Y-104455874D01*
X178785000Y-104044126D01*
X178627431Y-103663720D01*
X178336280Y-103372569D01*
X177955874Y-103215000D01*
X177544126Y-103215000D01*
X177163720Y-103372569D01*
X176872569Y-103663720D01*
X176715000Y-104044126D01*
X172056889Y-104044126D01*
X172079108Y-104034923D01*
X172370259Y-103743772D01*
X172527828Y-103363366D01*
X172527828Y-102951618D01*
X172370259Y-102571212D01*
X172079108Y-102280061D01*
X171698702Y-102122492D01*
X171286954Y-102122492D01*
X170906548Y-102280061D01*
X170615397Y-102571212D01*
X170457828Y-102951618D01*
X158423415Y-102951618D01*
X158698839Y-102539418D01*
X158814092Y-101960000D01*
X158698839Y-101380582D01*
X158440618Y-100994126D01*
X174365000Y-100994126D01*
X174365000Y-101405874D01*
X174522569Y-101786280D01*
X174813720Y-102077431D01*
X175194126Y-102235000D01*
X175605874Y-102235000D01*
X175986280Y-102077431D01*
X176277431Y-101786280D01*
X176435000Y-101405874D01*
X176435000Y-100994126D01*
X176277431Y-100613720D01*
X175986280Y-100322569D01*
X175605874Y-100165000D01*
X175194126Y-100165000D01*
X174813720Y-100322569D01*
X174522569Y-100613720D01*
X174365000Y-100994126D01*
X158440618Y-100994126D01*
X158370625Y-100889375D01*
X158072239Y-100690000D01*
X158370625Y-100490625D01*
X158698839Y-99999418D01*
X158814092Y-99420000D01*
X158698839Y-98840582D01*
X158370625Y-98349375D01*
X158072239Y-98150000D01*
X158370625Y-97950625D01*
X158698839Y-97459418D01*
X158811282Y-96894126D01*
X164665000Y-96894126D01*
X164665000Y-97305874D01*
X164822569Y-97686280D01*
X165113720Y-97977431D01*
X165494126Y-98135000D01*
X165905874Y-98135000D01*
X166286280Y-97977431D01*
X166577431Y-97686280D01*
X166735000Y-97305874D01*
X166735000Y-96894126D01*
X166577431Y-96513720D01*
X166286280Y-96222569D01*
X165905874Y-96065000D01*
X165494126Y-96065000D01*
X165113720Y-96222569D01*
X164822569Y-96513720D01*
X164665000Y-96894126D01*
X158811282Y-96894126D01*
X158814092Y-96880000D01*
X158698839Y-96300582D01*
X158370625Y-95809375D01*
X158072239Y-95610000D01*
X158370625Y-95410625D01*
X158448467Y-95294126D01*
X185265000Y-95294126D01*
X185265000Y-95705874D01*
X185422569Y-96086280D01*
X185713720Y-96377431D01*
X186094126Y-96535000D01*
X186505874Y-96535000D01*
X186886280Y-96377431D01*
X187177431Y-96086280D01*
X187335000Y-95705874D01*
X187335000Y-95294126D01*
X187177431Y-94913720D01*
X186886280Y-94622569D01*
X186505874Y-94465000D01*
X186094126Y-94465000D01*
X185713720Y-94622569D01*
X185422569Y-94913720D01*
X185265000Y-95294126D01*
X158448467Y-95294126D01*
X158698839Y-94919418D01*
X158814092Y-94340000D01*
X158698839Y-93760582D01*
X158370625Y-93269375D01*
X158072239Y-93070000D01*
X158370625Y-92870625D01*
X158698839Y-92379418D01*
X158814092Y-91800000D01*
X158698839Y-91220582D01*
X158370625Y-90729375D01*
X157879418Y-90401161D01*
X157446256Y-90315000D01*
X157153744Y-90315000D01*
X156720582Y-90401161D01*
X156229375Y-90729375D01*
X155901161Y-91220582D01*
X155785908Y-91800000D01*
X130406933Y-91800000D01*
X130570625Y-91690625D01*
X130898839Y-91199418D01*
X131014092Y-90620000D01*
X130898839Y-90040582D01*
X130570625Y-89549375D01*
X130272239Y-89350000D01*
X130570625Y-89150625D01*
X130808829Y-88794126D01*
X188215000Y-88794126D01*
X188215000Y-89205874D01*
X188372569Y-89586280D01*
X188663720Y-89877431D01*
X189044126Y-90035000D01*
X189455874Y-90035000D01*
X189836280Y-89877431D01*
X190127431Y-89586280D01*
X190285000Y-89205874D01*
X190285000Y-88794126D01*
X190127431Y-88413720D01*
X189836280Y-88122569D01*
X189455874Y-87965000D01*
X189044126Y-87965000D01*
X188663720Y-88122569D01*
X188372569Y-88413720D01*
X188215000Y-88794126D01*
X130808829Y-88794126D01*
X130898839Y-88659418D01*
X131014092Y-88080000D01*
X130898839Y-87500582D01*
X130570625Y-87009375D01*
X130272239Y-86810000D01*
X130570625Y-86610625D01*
X130898839Y-86119418D01*
X131014092Y-85540000D01*
X130898839Y-84960582D01*
X130570625Y-84469375D01*
X130552381Y-84457184D01*
X130597765Y-84448157D01*
X130807809Y-84307809D01*
X130893208Y-84180000D01*
X155785908Y-84180000D01*
X155901161Y-84759418D01*
X156229375Y-85250625D01*
X156527761Y-85450000D01*
X156229375Y-85649375D01*
X155901161Y-86140582D01*
X155785908Y-86720000D01*
X155901161Y-87299418D01*
X156229375Y-87790625D01*
X156720582Y-88118839D01*
X157153744Y-88205000D01*
X157446256Y-88205000D01*
X157879418Y-88118839D01*
X158370625Y-87790625D01*
X158698839Y-87299418D01*
X158814092Y-86720000D01*
X158718615Y-86240000D01*
X194985908Y-86240000D01*
X195101161Y-86819418D01*
X195429375Y-87310625D01*
X195727761Y-87510000D01*
X195429375Y-87709375D01*
X195101161Y-88200582D01*
X194985908Y-88780000D01*
X195101161Y-89359418D01*
X195429375Y-89850625D01*
X195727761Y-90050000D01*
X195429375Y-90249375D01*
X195101161Y-90740582D01*
X194985908Y-91320000D01*
X195101161Y-91899418D01*
X195429375Y-92390625D01*
X195727761Y-92590000D01*
X195429375Y-92789375D01*
X195101161Y-93280582D01*
X194985908Y-93860000D01*
X195101161Y-94439418D01*
X195429375Y-94930625D01*
X195727761Y-95130000D01*
X195429375Y-95329375D01*
X195101161Y-95820582D01*
X194985908Y-96400000D01*
X195101161Y-96979418D01*
X195429375Y-97470625D01*
X195727761Y-97670000D01*
X195429375Y-97869375D01*
X195101161Y-98360582D01*
X194985908Y-98940000D01*
X195101161Y-99519418D01*
X195429375Y-100010625D01*
X195727761Y-100210000D01*
X195429375Y-100409375D01*
X195101161Y-100900582D01*
X194985908Y-101480000D01*
X195101161Y-102059418D01*
X195429375Y-102550625D01*
X195727761Y-102750000D01*
X195429375Y-102949375D01*
X195101161Y-103440582D01*
X194985908Y-104020000D01*
X195101161Y-104599418D01*
X195429375Y-105090625D01*
X195727761Y-105290000D01*
X195429375Y-105489375D01*
X195101161Y-105980582D01*
X194985908Y-106560000D01*
X195101161Y-107139418D01*
X195429375Y-107630625D01*
X195727761Y-107830000D01*
X195429375Y-108029375D01*
X195101161Y-108520582D01*
X194985908Y-109100000D01*
X195101161Y-109679418D01*
X195429375Y-110170625D01*
X195727761Y-110370000D01*
X195429375Y-110569375D01*
X195101161Y-111060582D01*
X194985908Y-111640000D01*
X195101161Y-112219418D01*
X195429375Y-112710625D01*
X195727761Y-112910000D01*
X195429375Y-113109375D01*
X195101161Y-113600582D01*
X194985908Y-114180000D01*
X195101161Y-114759418D01*
X195429375Y-115250625D01*
X195727761Y-115450000D01*
X195429375Y-115649375D01*
X195101161Y-116140582D01*
X194985908Y-116720000D01*
X195101161Y-117299418D01*
X195429375Y-117790625D01*
X195727761Y-117990000D01*
X195429375Y-118189375D01*
X195101161Y-118680582D01*
X194985908Y-119260000D01*
X195101161Y-119839418D01*
X195429375Y-120330625D01*
X195727761Y-120530000D01*
X195429375Y-120729375D01*
X195101161Y-121220582D01*
X194985908Y-121800000D01*
X195101161Y-122379418D01*
X195429375Y-122870625D01*
X195727761Y-123070000D01*
X195429375Y-123269375D01*
X195101161Y-123760582D01*
X194985908Y-124340000D01*
X195101161Y-124919418D01*
X195429375Y-125410625D01*
X195727761Y-125610000D01*
X195429375Y-125809375D01*
X195101161Y-126300582D01*
X194985908Y-126880000D01*
X195101161Y-127459418D01*
X195429375Y-127950625D01*
X195727761Y-128150000D01*
X195429375Y-128349375D01*
X195101161Y-128840582D01*
X194985908Y-129420000D01*
X195101161Y-129999418D01*
X195429375Y-130490625D01*
X195727761Y-130690000D01*
X195429375Y-130889375D01*
X195101161Y-131380582D01*
X194985908Y-131960000D01*
X195101161Y-132539418D01*
X195429375Y-133030625D01*
X195920582Y-133358839D01*
X196353744Y-133445000D01*
X196646256Y-133445000D01*
X197079418Y-133358839D01*
X197570625Y-133030625D01*
X197770000Y-132732239D01*
X197969375Y-133030625D01*
X198460582Y-133358839D01*
X198893744Y-133445000D01*
X199186256Y-133445000D01*
X199619418Y-133358839D01*
X200110625Y-133030625D01*
X200438839Y-132539418D01*
X200554092Y-131960000D01*
X200438839Y-131380582D01*
X200110625Y-130889375D01*
X199812239Y-130690000D01*
X200110625Y-130490625D01*
X200438839Y-129999418D01*
X200554092Y-129420000D01*
X200438839Y-128840582D01*
X200110625Y-128349375D01*
X199812239Y-128150000D01*
X200110625Y-127950625D01*
X200438839Y-127459418D01*
X200554092Y-126880000D01*
X200438839Y-126300582D01*
X200110625Y-125809375D01*
X199812239Y-125610000D01*
X200110625Y-125410625D01*
X200438839Y-124919418D01*
X200554092Y-124340000D01*
X200438839Y-123760582D01*
X200110625Y-123269375D01*
X199812239Y-123070000D01*
X200110625Y-122870625D01*
X200438839Y-122379418D01*
X200554092Y-121800000D01*
X200438839Y-121220582D01*
X200110625Y-120729375D01*
X199812239Y-120530000D01*
X200110625Y-120330625D01*
X200438839Y-119839418D01*
X200554092Y-119260000D01*
X200438839Y-118680582D01*
X200110625Y-118189375D01*
X199812239Y-117990000D01*
X200110625Y-117790625D01*
X200438839Y-117299418D01*
X200554092Y-116720000D01*
X200438839Y-116140582D01*
X200110625Y-115649375D01*
X199812239Y-115450000D01*
X200110625Y-115250625D01*
X200438839Y-114759418D01*
X200554092Y-114180000D01*
X200438839Y-113600582D01*
X200110625Y-113109375D01*
X199812239Y-112910000D01*
X200110625Y-112710625D01*
X200438839Y-112219418D01*
X200554092Y-111640000D01*
X200438839Y-111060582D01*
X200110625Y-110569375D01*
X199812239Y-110370000D01*
X200110625Y-110170625D01*
X200438839Y-109679418D01*
X200554092Y-109100000D01*
X200438839Y-108520582D01*
X200110625Y-108029375D01*
X199812239Y-107830000D01*
X200110625Y-107630625D01*
X200438839Y-107139418D01*
X200554092Y-106560000D01*
X200438839Y-105980582D01*
X200110625Y-105489375D01*
X199812239Y-105290000D01*
X200110625Y-105090625D01*
X200438839Y-104599418D01*
X200554092Y-104020000D01*
X200438839Y-103440582D01*
X200110625Y-102949375D01*
X199812239Y-102750000D01*
X200110625Y-102550625D01*
X200438839Y-102059418D01*
X200554092Y-101480000D01*
X200438839Y-100900582D01*
X200110625Y-100409375D01*
X199812239Y-100210000D01*
X200110625Y-100010625D01*
X200438839Y-99519418D01*
X200554092Y-98940000D01*
X200438839Y-98360582D01*
X200110625Y-97869375D01*
X199812239Y-97670000D01*
X200110625Y-97470625D01*
X200438839Y-96979418D01*
X200554092Y-96400000D01*
X200438839Y-95820582D01*
X200110625Y-95329375D01*
X199812239Y-95130000D01*
X200110625Y-94930625D01*
X200438839Y-94439418D01*
X200554092Y-93860000D01*
X200438839Y-93280582D01*
X200110625Y-92789375D01*
X199812239Y-92590000D01*
X200110625Y-92390625D01*
X200438839Y-91899418D01*
X200554092Y-91320000D01*
X200438839Y-90740582D01*
X200110625Y-90249375D01*
X199619418Y-89921161D01*
X199186256Y-89835000D01*
X198893744Y-89835000D01*
X198460582Y-89921161D01*
X197969375Y-90249375D01*
X197770000Y-90547761D01*
X197570625Y-90249375D01*
X197272239Y-90050000D01*
X197570625Y-89850625D01*
X197898839Y-89359418D01*
X198014092Y-88780000D01*
X197898839Y-88200582D01*
X197570625Y-87709375D01*
X197272239Y-87510000D01*
X197570625Y-87310625D01*
X197770000Y-87012239D01*
X197969375Y-87310625D01*
X198460582Y-87638839D01*
X198893744Y-87725000D01*
X199186256Y-87725000D01*
X199619418Y-87638839D01*
X200110625Y-87310625D01*
X200438839Y-86819418D01*
X200554092Y-86240000D01*
X200438839Y-85660582D01*
X200110625Y-85169375D01*
X199812239Y-84970000D01*
X200110625Y-84770625D01*
X200438839Y-84279418D01*
X200554092Y-83700000D01*
X200438839Y-83120582D01*
X200110625Y-82629375D01*
X199619418Y-82301161D01*
X199186256Y-82215000D01*
X198893744Y-82215000D01*
X198460582Y-82301161D01*
X197969375Y-82629375D01*
X197957184Y-82647619D01*
X197948157Y-82602235D01*
X197807809Y-82392191D01*
X197597765Y-82251843D01*
X197350000Y-82202560D01*
X195650000Y-82202560D01*
X195402235Y-82251843D01*
X195192191Y-82392191D01*
X195051843Y-82602235D01*
X195002560Y-82850000D01*
X195002560Y-84550000D01*
X195051843Y-84797765D01*
X195192191Y-85007809D01*
X195402235Y-85148157D01*
X195447619Y-85157184D01*
X195429375Y-85169375D01*
X195101161Y-85660582D01*
X194985908Y-86240000D01*
X158718615Y-86240000D01*
X158698839Y-86140582D01*
X158370625Y-85649375D01*
X158072239Y-85450000D01*
X158370625Y-85250625D01*
X158698839Y-84759418D01*
X158814092Y-84180000D01*
X158698839Y-83600582D01*
X158370625Y-83109375D01*
X157879418Y-82781161D01*
X157446256Y-82695000D01*
X157153744Y-82695000D01*
X156720582Y-82781161D01*
X156229375Y-83109375D01*
X155901161Y-83600582D01*
X155785908Y-84180000D01*
X130893208Y-84180000D01*
X130948157Y-84097765D01*
X130997440Y-83850000D01*
X130997440Y-82544126D01*
X191715000Y-82544126D01*
X191715000Y-82955874D01*
X191872569Y-83336280D01*
X192163720Y-83627431D01*
X192544126Y-83785000D01*
X192955874Y-83785000D01*
X193336280Y-83627431D01*
X193627431Y-83336280D01*
X193785000Y-82955874D01*
X193785000Y-82544126D01*
X193627431Y-82163720D01*
X193336280Y-81872569D01*
X192955874Y-81715000D01*
X192544126Y-81715000D01*
X192163720Y-81872569D01*
X191872569Y-82163720D01*
X191715000Y-82544126D01*
X130997440Y-82544126D01*
X130997440Y-82150000D01*
X130948157Y-81902235D01*
X130807809Y-81692191D01*
X130597765Y-81551843D01*
X130350000Y-81502560D01*
X128650000Y-81502560D01*
X128402235Y-81551843D01*
X128192191Y-81692191D01*
X128051843Y-81902235D01*
X128002560Y-82150000D01*
X128002560Y-83850000D01*
X128051843Y-84097765D01*
X128192191Y-84307809D01*
X128402235Y-84448157D01*
X128447619Y-84457184D01*
X128429375Y-84469375D01*
X128101161Y-84960582D01*
X127985908Y-85540000D01*
X124485000Y-85540000D01*
X124485000Y-78725866D01*
X131615000Y-78725866D01*
X131615000Y-79774134D01*
X132016155Y-80742608D01*
X132757392Y-81483845D01*
X133725866Y-81885000D01*
X134774134Y-81885000D01*
X135742608Y-81483845D01*
X136483845Y-80742608D01*
X136885000Y-79774134D01*
X136885000Y-78725866D01*
X136687890Y-78250000D01*
X155802560Y-78250000D01*
X155802560Y-79950000D01*
X155851843Y-80197765D01*
X155992191Y-80407809D01*
X156202235Y-80548157D01*
X156450000Y-80597440D01*
X158150000Y-80597440D01*
X158397765Y-80548157D01*
X158607809Y-80407809D01*
X158748157Y-80197765D01*
X158797440Y-79950000D01*
X158797440Y-78725866D01*
X180615000Y-78725866D01*
X180615000Y-79774134D01*
X181016155Y-80742608D01*
X181757392Y-81483845D01*
X182725866Y-81885000D01*
X183774134Y-81885000D01*
X184742608Y-81483845D01*
X185483845Y-80742608D01*
X185885000Y-79774134D01*
X185885000Y-78725866D01*
X185483845Y-77757392D01*
X184742608Y-77016155D01*
X183774134Y-76615000D01*
X182725866Y-76615000D01*
X181757392Y-77016155D01*
X181016155Y-77757392D01*
X180615000Y-78725866D01*
X158797440Y-78725866D01*
X158797440Y-78250000D01*
X158748157Y-78002235D01*
X158607809Y-77792191D01*
X158397765Y-77651843D01*
X158150000Y-77602560D01*
X156450000Y-77602560D01*
X156202235Y-77651843D01*
X155992191Y-77792191D01*
X155851843Y-78002235D01*
X155802560Y-78250000D01*
X136687890Y-78250000D01*
X136483845Y-77757392D01*
X135742608Y-77016155D01*
X134774134Y-76615000D01*
X133725866Y-76615000D01*
X132757392Y-77016155D01*
X132016155Y-77757392D01*
X131615000Y-78725866D01*
X124485000Y-78725866D01*
X124485000Y-72625000D01*
X142002560Y-72625000D01*
X142002560Y-74575000D01*
X142051843Y-74822765D01*
X142192191Y-75032809D01*
X142402235Y-75173157D01*
X142650000Y-75222440D01*
X144350000Y-75222440D01*
X144597765Y-75173157D01*
X144807809Y-75032809D01*
X144948157Y-74822765D01*
X144997440Y-74575000D01*
X144997440Y-73328745D01*
X147015000Y-73328745D01*
X147015000Y-73871256D01*
X147101161Y-74304418D01*
X147429375Y-74795625D01*
X147920583Y-75123839D01*
X148500000Y-75239092D01*
X149079418Y-75123839D01*
X149570625Y-74795625D01*
X149898839Y-74304417D01*
X149985000Y-73871255D01*
X149985000Y-73328744D01*
X149898839Y-72895582D01*
X149701338Y-72600000D01*
X164702560Y-72600000D01*
X164702560Y-74600000D01*
X164751843Y-74847765D01*
X164892191Y-75057809D01*
X165102235Y-75198157D01*
X165350000Y-75247440D01*
X167050000Y-75247440D01*
X167297765Y-75198157D01*
X167507809Y-75057809D01*
X167648157Y-74847765D01*
X167650719Y-74834886D01*
X168120583Y-75148839D01*
X168700000Y-75264092D01*
X169279418Y-75148839D01*
X169770625Y-74820625D01*
X170098839Y-74329417D01*
X170185000Y-73896255D01*
X170185000Y-73303744D01*
X170098839Y-72870582D01*
X169918042Y-72600000D01*
X173802560Y-72600000D01*
X173802560Y-74600000D01*
X173851843Y-74847765D01*
X173992191Y-75057809D01*
X174202235Y-75198157D01*
X174450000Y-75247440D01*
X176150000Y-75247440D01*
X176397765Y-75198157D01*
X176607809Y-75057809D01*
X176748157Y-74847765D01*
X176750719Y-74834886D01*
X177220583Y-75148839D01*
X177800000Y-75264092D01*
X178379418Y-75148839D01*
X178870625Y-74820625D01*
X179198839Y-74329417D01*
X179285000Y-73896255D01*
X179285000Y-73303744D01*
X179198839Y-72870582D01*
X178870625Y-72379375D01*
X178379417Y-72051161D01*
X177800000Y-71935908D01*
X177220582Y-72051161D01*
X176750719Y-72365114D01*
X176748157Y-72352235D01*
X176607809Y-72142191D01*
X176397765Y-72001843D01*
X176150000Y-71952560D01*
X174450000Y-71952560D01*
X174202235Y-72001843D01*
X173992191Y-72142191D01*
X173851843Y-72352235D01*
X173802560Y-72600000D01*
X169918042Y-72600000D01*
X169770625Y-72379375D01*
X169279417Y-72051161D01*
X168700000Y-71935908D01*
X168120582Y-72051161D01*
X167650719Y-72365114D01*
X167648157Y-72352235D01*
X167507809Y-72142191D01*
X167297765Y-72001843D01*
X167050000Y-71952560D01*
X165350000Y-71952560D01*
X165102235Y-72001843D01*
X164892191Y-72142191D01*
X164751843Y-72352235D01*
X164702560Y-72600000D01*
X149701338Y-72600000D01*
X149570625Y-72404375D01*
X149079417Y-72076161D01*
X148500000Y-71960908D01*
X147920582Y-72076161D01*
X147429375Y-72404375D01*
X147101161Y-72895583D01*
X147015000Y-73328745D01*
X144997440Y-73328745D01*
X144997440Y-72625000D01*
X144948157Y-72377235D01*
X144807809Y-72167191D01*
X144597765Y-72026843D01*
X144350000Y-71977560D01*
X142650000Y-71977560D01*
X142402235Y-72026843D01*
X142192191Y-72167191D01*
X142051843Y-72377235D01*
X142002560Y-72625000D01*
X124485000Y-72625000D01*
X124485000Y-71425521D01*
X125862441Y-71422037D01*
X125927612Y-71435000D01*
X202072388Y-71435000D01*
X202286783Y-71392354D01*
X202297789Y-71385000D01*
X202837481Y-71385000D01*
X203072608Y-152265000D01*
X203072608Y-152265000D01*
G37*
X203072608Y-152265000D02*
X125927612Y-152265000D01*
X125887393Y-152273000D01*
X124485000Y-152273000D01*
X124485000Y-145821072D01*
X128005000Y-145821072D01*
X128005000Y-146578928D01*
X128295019Y-147279096D01*
X128830904Y-147814981D01*
X129531072Y-148105000D01*
X130288928Y-148105000D01*
X130989096Y-147814981D01*
X131524981Y-147279096D01*
X131815000Y-146578928D01*
X131815000Y-145821072D01*
X131524981Y-145120904D01*
X130989096Y-144585019D01*
X130288928Y-144295000D01*
X129531072Y-144295000D01*
X128830904Y-144585019D01*
X128295019Y-145120904D01*
X128005000Y-145821072D01*
X124485000Y-145821072D01*
X124485000Y-140842119D01*
X134233000Y-140842119D01*
X134233000Y-141397881D01*
X134445680Y-141911337D01*
X134838663Y-142304320D01*
X135045513Y-142390000D01*
X134838663Y-142475680D01*
X134445680Y-142868663D01*
X134233000Y-143382119D01*
X134233000Y-143937881D01*
X134445680Y-144451337D01*
X134838663Y-144844320D01*
X135045513Y-144930000D01*
X134838663Y-145015680D01*
X134445680Y-145408663D01*
X134233000Y-145922119D01*
X134233000Y-146477881D01*
X134445680Y-146991337D01*
X134838663Y-147384320D01*
X135045513Y-147470000D01*
X134838663Y-147555680D01*
X134445680Y-147948663D01*
X134233000Y-148462119D01*
X134233000Y-149017881D01*
X134445680Y-149531337D01*
X134838663Y-149924320D01*
X135352119Y-150137000D01*
X135907881Y-150137000D01*
X136421337Y-149924320D01*
X136814320Y-149531337D01*
X136900000Y-149324487D01*
X136985680Y-149531337D01*
X137378663Y-149924320D01*
X137892119Y-150137000D01*
X138447881Y-150137000D01*
X138961337Y-149924320D01*
X139354320Y-149531337D01*
X139440000Y-149324487D01*
X139525680Y-149531337D01*
X139918663Y-149924320D01*
X140432119Y-150137000D01*
X140987881Y-150137000D01*
X141501337Y-149924320D01*
X141894320Y-149531337D01*
X141980000Y-149324487D01*
X142065680Y-149531337D01*
X142335683Y-149801340D01*
X142163720Y-149872569D01*
X141872569Y-150163720D01*
X141715000Y-150544126D01*
X141715000Y-150955874D01*
X141872569Y-151336280D01*
X142163720Y-151627431D01*
X142544126Y-151785000D01*
X142955874Y-151785000D01*
X143336280Y-151627431D01*
X143515930Y-151447781D01*
X143726496Y-151535000D01*
X144138244Y-151535000D01*
X144518650Y-151377431D01*
X144809801Y-151086280D01*
X144967370Y-150705874D01*
X144967370Y-150294126D01*
X144809801Y-149913720D01*
X144518650Y-149622569D01*
X144394509Y-149571148D01*
X144434320Y-149531337D01*
X144520000Y-149324487D01*
X144605680Y-149531337D01*
X144998663Y-149924320D01*
X145512119Y-150137000D01*
X146067881Y-150137000D01*
X146581337Y-149924320D01*
X146974320Y-149531337D01*
X147060000Y-149324487D01*
X147145680Y-149531337D01*
X147538663Y-149924320D01*
X148052119Y-150137000D01*
X148607881Y-150137000D01*
X149121337Y-149924320D01*
X149514320Y-149531337D01*
X149727000Y-149017881D01*
X149727000Y-148462119D01*
X149514320Y-147948663D01*
X149121337Y-147555680D01*
X148914487Y-147470000D01*
X149121337Y-147384320D01*
X149514320Y-146991337D01*
X149727000Y-146477881D01*
X149727000Y-145922119D01*
X149514320Y-145408663D01*
X149121337Y-145015680D01*
X148914487Y-144930000D01*
X149121337Y-144844320D01*
X149514320Y-144451337D01*
X149727000Y-143937881D01*
X149727000Y-143382119D01*
X149514320Y-142868663D01*
X149121337Y-142475680D01*
X148914487Y-142390000D01*
X149121337Y-142304320D01*
X149514320Y-141911337D01*
X149727000Y-141397881D01*
X149727000Y-140842119D01*
X150103000Y-140842119D01*
X150103000Y-141397881D01*
X150315680Y-141911337D01*
X150708663Y-142304320D01*
X150915513Y-142390000D01*
X150708663Y-142475680D01*
X150315680Y-142868663D01*
X150103000Y-143382119D01*
X150103000Y-143937881D01*
X150315680Y-144451337D01*
X150708663Y-144844320D01*
X150915513Y-144930000D01*
X150708663Y-145015680D01*
X150315680Y-145408663D01*
X150103000Y-145922119D01*
X150103000Y-146477881D01*
X150315680Y-146991337D01*
X150708663Y-147384320D01*
X150915513Y-147470000D01*
X150708663Y-147555680D01*
X150315680Y-147948663D01*
X150103000Y-148462119D01*
X150103000Y-149017881D01*
X150315680Y-149531337D01*
X150708663Y-149924320D01*
X151222119Y-150137000D01*
X151777881Y-150137000D01*
X152291337Y-149924320D01*
X152684320Y-149531337D01*
X152770000Y-149324487D01*
X152855680Y-149531337D01*
X153248663Y-149924320D01*
X153762119Y-150137000D01*
X154317881Y-150137000D01*
X154831337Y-149924320D01*
X155224320Y-149531337D01*
X155437000Y-149017881D01*
X155437000Y-148462119D01*
X155224320Y-147948663D01*
X154831337Y-147555680D01*
X154624487Y-147470000D01*
X154831337Y-147384320D01*
X155224320Y-146991337D01*
X155437000Y-146477881D01*
X155437000Y-145922119D01*
X155224320Y-145408663D01*
X154831337Y-145015680D01*
X154624487Y-144930000D01*
X154831337Y-144844320D01*
X155224320Y-144451337D01*
X155437000Y-143937881D01*
X155437000Y-143382119D01*
X155224320Y-142868663D01*
X154831337Y-142475680D01*
X154624487Y-142390000D01*
X154831337Y-142304320D01*
X155224320Y-141911337D01*
X155437000Y-141397881D01*
X155437000Y-140842119D01*
X156453000Y-140842119D01*
X156453000Y-141397881D01*
X156665680Y-141911337D01*
X157058663Y-142304320D01*
X157265513Y-142390000D01*
X157058663Y-142475680D01*
X156665680Y-142868663D01*
X156453000Y-143382119D01*
X156453000Y-143937881D01*
X156665680Y-144451337D01*
X157058663Y-144844320D01*
X157265513Y-144930000D01*
X157058663Y-145015680D01*
X156665680Y-145408663D01*
X156453000Y-145922119D01*
X156453000Y-146477881D01*
X156665680Y-146991337D01*
X157058663Y-147384320D01*
X157265513Y-147470000D01*
X157058663Y-147555680D01*
X156665680Y-147948663D01*
X156453000Y-148462119D01*
X156453000Y-149017881D01*
X156665680Y-149531337D01*
X157058663Y-149924320D01*
X157572119Y-150137000D01*
X158127881Y-150137000D01*
X158641337Y-149924320D01*
X159034320Y-149531337D01*
X159120000Y-149324487D01*
X159205680Y-149531337D01*
X159598663Y-149924320D01*
X160112119Y-150137000D01*
X160667881Y-150137000D01*
X161181337Y-149924320D01*
X161574320Y-149531337D01*
X161787000Y-149017881D01*
X161787000Y-148462119D01*
X161574320Y-147948663D01*
X161181337Y-147555680D01*
X160974487Y-147470000D01*
X161181337Y-147384320D01*
X161574320Y-146991337D01*
X161787000Y-146477881D01*
X161787000Y-145922119D01*
X161574320Y-145408663D01*
X161181337Y-145015680D01*
X160974487Y-144930000D01*
X161181337Y-144844320D01*
X161574320Y-144451337D01*
X161787000Y-143937881D01*
X161787000Y-143382119D01*
X161574320Y-142868663D01*
X161181337Y-142475680D01*
X160974487Y-142390000D01*
X161181337Y-142304320D01*
X161574320Y-141911337D01*
X161787000Y-141397881D01*
X161787000Y-140842119D01*
X162803000Y-140842119D01*
X162803000Y-141397881D01*
X163015680Y-141911337D01*
X163408663Y-142304320D01*
X163615513Y-142390000D01*
X163408663Y-142475680D01*
X163015680Y-142868663D01*
X162803000Y-143382119D01*
X162803000Y-143937881D01*
X163015680Y-144451337D01*
X163408663Y-144844320D01*
X163615513Y-144930000D01*
X163408663Y-145015680D01*
X163015680Y-145408663D01*
X162803000Y-145922119D01*
X162803000Y-146477881D01*
X163015680Y-146991337D01*
X163408663Y-147384320D01*
X163615513Y-147470000D01*
X163408663Y-147555680D01*
X163015680Y-147948663D01*
X162803000Y-148462119D01*
X162803000Y-149017881D01*
X163015680Y-149531337D01*
X163408663Y-149924320D01*
X163922119Y-150137000D01*
X164477881Y-150137000D01*
X164991337Y-149924320D01*
X165384320Y-149531337D01*
X165470000Y-149324487D01*
X165555680Y-149531337D01*
X165948663Y-149924320D01*
X166462119Y-150137000D01*
X167017881Y-150137000D01*
X167531337Y-149924320D01*
X167924320Y-149531337D01*
X168137000Y-149017881D01*
X168137000Y-148462119D01*
X167924320Y-147948663D01*
X167531337Y-147555680D01*
X167324487Y-147470000D01*
X167531337Y-147384320D01*
X167924320Y-146991337D01*
X168137000Y-146477881D01*
X168137000Y-145922119D01*
X168095146Y-145821072D01*
X190235000Y-145821072D01*
X190235000Y-146578928D01*
X190525019Y-147279096D01*
X191060904Y-147814981D01*
X191761072Y-148105000D01*
X192518928Y-148105000D01*
X193219096Y-147814981D01*
X193754981Y-147279096D01*
X194045000Y-146578928D01*
X194045000Y-145821072D01*
X193754981Y-145120904D01*
X193219096Y-144585019D01*
X192518928Y-144295000D01*
X191761072Y-144295000D01*
X191060904Y-144585019D01*
X190525019Y-145120904D01*
X190235000Y-145821072D01*
X168095146Y-145821072D01*
X167924320Y-145408663D01*
X167531337Y-145015680D01*
X167324487Y-144930000D01*
X167531337Y-144844320D01*
X167924320Y-144451337D01*
X168137000Y-143937881D01*
X168137000Y-143382119D01*
X167924320Y-142868663D01*
X167531337Y-142475680D01*
X167324487Y-142390000D01*
X167531337Y-142304320D01*
X167924320Y-141911337D01*
X168137000Y-141397881D01*
X168137000Y-140842119D01*
X167924320Y-140328663D01*
X167531337Y-139935680D01*
X167017881Y-139723000D01*
X166462119Y-139723000D01*
X165948663Y-139935680D01*
X165555680Y-140328663D01*
X165470000Y-140535513D01*
X165384320Y-140328663D01*
X164991337Y-139935680D01*
X164477881Y-139723000D01*
X163922119Y-139723000D01*
X163408663Y-139935680D01*
X163015680Y-140328663D01*
X162803000Y-140842119D01*
X161787000Y-140842119D01*
X161574320Y-140328663D01*
X161181337Y-139935680D01*
X160667881Y-139723000D01*
X160112119Y-139723000D01*
X159598663Y-139935680D01*
X159205680Y-140328663D01*
X159120000Y-140535513D01*
X159034320Y-140328663D01*
X158641337Y-139935680D01*
X158127881Y-139723000D01*
X157572119Y-139723000D01*
X157058663Y-139935680D01*
X156665680Y-140328663D01*
X156453000Y-140842119D01*
X155437000Y-140842119D01*
X155224320Y-140328663D01*
X154831337Y-139935680D01*
X154317881Y-139723000D01*
X153762119Y-139723000D01*
X153248663Y-139935680D01*
X152855680Y-140328663D01*
X152770000Y-140535513D01*
X152684320Y-140328663D01*
X152291337Y-139935680D01*
X151777881Y-139723000D01*
X151222119Y-139723000D01*
X150708663Y-139935680D01*
X150315680Y-140328663D01*
X150103000Y-140842119D01*
X149727000Y-140842119D01*
X149514320Y-140328663D01*
X149121337Y-139935680D01*
X148607881Y-139723000D01*
X148052119Y-139723000D01*
X147538663Y-139935680D01*
X147145680Y-140328663D01*
X147060000Y-140535513D01*
X146974320Y-140328663D01*
X146581337Y-139935680D01*
X146067881Y-139723000D01*
X145512119Y-139723000D01*
X144998663Y-139935680D01*
X144605680Y-140328663D01*
X144520000Y-140535513D01*
X144434320Y-140328663D01*
X144041337Y-139935680D01*
X143527881Y-139723000D01*
X142972119Y-139723000D01*
X142458663Y-139935680D01*
X142065680Y-140328663D01*
X141980000Y-140535513D01*
X141894320Y-140328663D01*
X141501337Y-139935680D01*
X140987881Y-139723000D01*
X140432119Y-139723000D01*
X139918663Y-139935680D01*
X139525680Y-140328663D01*
X139440000Y-140535513D01*
X139354320Y-140328663D01*
X138961337Y-139935680D01*
X138447881Y-139723000D01*
X137892119Y-139723000D01*
X137378663Y-139935680D01*
X136985680Y-140328663D01*
X136900000Y-140535513D01*
X136814320Y-140328663D01*
X136421337Y-139935680D01*
X135907881Y-139723000D01*
X135352119Y-139723000D01*
X134838663Y-139935680D01*
X134445680Y-140328663D01*
X134233000Y-140842119D01*
X124485000Y-140842119D01*
X124485000Y-136725866D01*
X131615000Y-136725866D01*
X131615000Y-137774134D01*
X132016155Y-138742608D01*
X132757392Y-139483845D01*
X133725866Y-139885000D01*
X134774134Y-139885000D01*
X135742608Y-139483845D01*
X136483845Y-138742608D01*
X136885000Y-137774134D01*
X136885000Y-136725866D01*
X180615000Y-136725866D01*
X180615000Y-137774134D01*
X181016155Y-138742608D01*
X181757392Y-139483845D01*
X182725866Y-139885000D01*
X183774134Y-139885000D01*
X184742608Y-139483845D01*
X185483845Y-138742608D01*
X185885000Y-137774134D01*
X185885000Y-136725866D01*
X185483845Y-135757392D01*
X184742608Y-135016155D01*
X183774134Y-134615000D01*
X182725866Y-134615000D01*
X181757392Y-135016155D01*
X181016155Y-135757392D01*
X180615000Y-136725866D01*
X136885000Y-136725866D01*
X136483845Y-135757392D01*
X135742608Y-135016155D01*
X134774134Y-134615000D01*
X133725866Y-134615000D01*
X132757392Y-135016155D01*
X132016155Y-135757392D01*
X131615000Y-136725866D01*
X124485000Y-136725866D01*
X124485000Y-132044126D01*
X164965000Y-132044126D01*
X164965000Y-132455874D01*
X165122569Y-132836280D01*
X165413720Y-133127431D01*
X165794126Y-133285000D01*
X166205874Y-133285000D01*
X166586280Y-133127431D01*
X166877431Y-132836280D01*
X167035000Y-132455874D01*
X167035000Y-132044126D01*
X166931447Y-131794126D01*
X170715000Y-131794126D01*
X170715000Y-132205874D01*
X170872569Y-132586280D01*
X171163720Y-132877431D01*
X171544126Y-133035000D01*
X171955874Y-133035000D01*
X172336280Y-132877431D01*
X172627431Y-132586280D01*
X172785000Y-132205874D01*
X172785000Y-132044126D01*
X176715000Y-132044126D01*
X176715000Y-132455874D01*
X176872569Y-132836280D01*
X177163720Y-133127431D01*
X177544126Y-133285000D01*
X177955874Y-133285000D01*
X178336280Y-133127431D01*
X178627431Y-132836280D01*
X178785000Y-132455874D01*
X178785000Y-132444126D01*
X182215000Y-132444126D01*
X182215000Y-132855874D01*
X182372569Y-133236280D01*
X182663720Y-133527431D01*
X183044126Y-133685000D01*
X183455874Y-133685000D01*
X183836280Y-133527431D01*
X184127431Y-133236280D01*
X184285000Y-132855874D01*
X184285000Y-132444126D01*
X184127431Y-132063720D01*
X183836280Y-131772569D01*
X183455874Y-131615000D01*
X183044126Y-131615000D01*
X182663720Y-131772569D01*
X182372569Y-132063720D01*
X182215000Y-132444126D01*
X178785000Y-132444126D01*
X178785000Y-132044126D01*
X178627431Y-131663720D01*
X178336280Y-131372569D01*
X177955874Y-131215000D01*
X177544126Y-131215000D01*
X177163720Y-131372569D01*
X176872569Y-131663720D01*
X176715000Y-132044126D01*
X172785000Y-132044126D01*
X172785000Y-131794126D01*
X172627431Y-131413720D01*
X172336280Y-131122569D01*
X171955874Y-130965000D01*
X171544126Y-130965000D01*
X171163720Y-131122569D01*
X170872569Y-131413720D01*
X170715000Y-131794126D01*
X166931447Y-131794126D01*
X166877431Y-131663720D01*
X166586280Y-131372569D01*
X166205874Y-131215000D01*
X165794126Y-131215000D01*
X165413720Y-131372569D01*
X165122569Y-131663720D01*
X164965000Y-132044126D01*
X124485000Y-132044126D01*
X124485000Y-112182119D01*
X127923000Y-112182119D01*
X127923000Y-112737881D01*
X128135680Y-113251337D01*
X128528663Y-113644320D01*
X128735513Y-113730000D01*
X128528663Y-113815680D01*
X128135680Y-114208663D01*
X127923000Y-114722119D01*
X127923000Y-115277881D01*
X128135680Y-115791337D01*
X128528663Y-116184320D01*
X128735513Y-116270000D01*
X128528663Y-116355680D01*
X128135680Y-116748663D01*
X127923000Y-117262119D01*
X127923000Y-117817881D01*
X128135680Y-118331337D01*
X128528663Y-118724320D01*
X128735513Y-118810000D01*
X128528663Y-118895680D01*
X128135680Y-119288663D01*
X127923000Y-119802119D01*
X127923000Y-120357881D01*
X128135680Y-120871337D01*
X128528663Y-121264320D01*
X128735513Y-121350000D01*
X128528663Y-121435680D01*
X128135680Y-121828663D01*
X127923000Y-122342119D01*
X127923000Y-122897881D01*
X128135680Y-123411337D01*
X128528663Y-123804320D01*
X129042119Y-124017000D01*
X129597881Y-124017000D01*
X130111337Y-123804320D01*
X130504320Y-123411337D01*
X130717000Y-122897881D01*
X130717000Y-122342119D01*
X133003000Y-122342119D01*
X133003000Y-122897881D01*
X133215680Y-123411337D01*
X133608663Y-123804320D01*
X133815513Y-123890000D01*
X133608663Y-123975680D01*
X133215680Y-124368663D01*
X133003000Y-124882119D01*
X133003000Y-125437881D01*
X133215680Y-125951337D01*
X133608663Y-126344320D01*
X134122119Y-126557000D01*
X134677881Y-126557000D01*
X135191337Y-126344320D01*
X135584320Y-125951337D01*
X135670000Y-125744487D01*
X135755680Y-125951337D01*
X136148663Y-126344320D01*
X136662119Y-126557000D01*
X137217881Y-126557000D01*
X137731337Y-126344320D01*
X138124320Y-125951337D01*
X138210000Y-125744487D01*
X138295680Y-125951337D01*
X138688663Y-126344320D01*
X139202119Y-126557000D01*
X139757881Y-126557000D01*
X140271337Y-126344320D01*
X140664320Y-125951337D01*
X140750000Y-125744487D01*
X140835680Y-125951337D01*
X141228663Y-126344320D01*
X141742119Y-126557000D01*
X142297881Y-126557000D01*
X142811337Y-126344320D01*
X143204320Y-125951337D01*
X143417000Y-125437881D01*
X143417000Y-124882119D01*
X143204320Y-124368663D01*
X142811337Y-123975680D01*
X142604487Y-123890000D01*
X142811337Y-123804320D01*
X143204320Y-123411337D01*
X143417000Y-122897881D01*
X143417000Y-122342119D01*
X145703000Y-122342119D01*
X145703000Y-122897881D01*
X145915680Y-123411337D01*
X146308663Y-123804320D01*
X146515513Y-123890000D01*
X146308663Y-123975680D01*
X145915680Y-124368663D01*
X145703000Y-124882119D01*
X145703000Y-125437881D01*
X145915680Y-125951337D01*
X146308663Y-126344320D01*
X146822119Y-126557000D01*
X147377881Y-126557000D01*
X147891337Y-126344320D01*
X148284320Y-125951337D01*
X148370000Y-125744487D01*
X148455680Y-125951337D01*
X148848663Y-126344320D01*
X149362119Y-126557000D01*
X149917881Y-126557000D01*
X150431337Y-126344320D01*
X150824320Y-125951337D01*
X150910000Y-125744487D01*
X150995680Y-125951337D01*
X151388663Y-126344320D01*
X151902119Y-126557000D01*
X152457881Y-126557000D01*
X152971337Y-126344320D01*
X153364320Y-125951337D01*
X153450000Y-125744487D01*
X153535680Y-125951337D01*
X153928663Y-126344320D01*
X154442119Y-126557000D01*
X154997881Y-126557000D01*
X155511337Y-126344320D01*
X155904320Y-125951337D01*
X156117000Y-125437881D01*
X156117000Y-124882119D01*
X155904320Y-124368663D01*
X155511337Y-123975680D01*
X155304487Y-123890000D01*
X155511337Y-123804320D01*
X155904320Y-123411337D01*
X156117000Y-122897881D01*
X156117000Y-122342119D01*
X160943000Y-122342119D01*
X160943000Y-122897881D01*
X161155680Y-123411337D01*
X161548663Y-123804320D01*
X161755513Y-123890000D01*
X161548663Y-123975680D01*
X161155680Y-124368663D01*
X160943000Y-124882119D01*
X160943000Y-125437881D01*
X161155680Y-125951337D01*
X161548663Y-126344320D01*
X162062119Y-126557000D01*
X162617881Y-126557000D01*
X163131337Y-126344320D01*
X163524320Y-125951337D01*
X163610000Y-125744487D01*
X163695680Y-125951337D01*
X164088663Y-126344320D01*
X164602119Y-126557000D01*
X165157881Y-126557000D01*
X165671337Y-126344320D01*
X166064320Y-125951337D01*
X166150000Y-125744487D01*
X166235680Y-125951337D01*
X166628663Y-126344320D01*
X167142119Y-126557000D01*
X167697881Y-126557000D01*
X168211337Y-126344320D01*
X168604320Y-125951337D01*
X168690000Y-125744487D01*
X168775680Y-125951337D01*
X169168663Y-126344320D01*
X169682119Y-126557000D01*
X170237881Y-126557000D01*
X170751337Y-126344320D01*
X171144320Y-125951337D01*
X171357000Y-125437881D01*
X171357000Y-124882119D01*
X171144320Y-124368663D01*
X170751337Y-123975680D01*
X170544487Y-123890000D01*
X170751337Y-123804320D01*
X171144320Y-123411337D01*
X171357000Y-122897881D01*
X171357000Y-122342119D01*
X173643000Y-122342119D01*
X173643000Y-122897881D01*
X173855680Y-123411337D01*
X174248663Y-123804320D01*
X174455513Y-123890000D01*
X174248663Y-123975680D01*
X173855680Y-124368663D01*
X173643000Y-124882119D01*
X173643000Y-125437881D01*
X173855680Y-125951337D01*
X174248663Y-126344320D01*
X174762119Y-126557000D01*
X175317881Y-126557000D01*
X175831337Y-126344320D01*
X176224320Y-125951337D01*
X176310000Y-125744487D01*
X176395680Y-125951337D01*
X176788663Y-126344320D01*
X177302119Y-126557000D01*
X177857881Y-126557000D01*
X178371337Y-126344320D01*
X178764320Y-125951337D01*
X178850000Y-125744487D01*
X178935680Y-125951337D01*
X179328663Y-126344320D01*
X179842119Y-126557000D01*
X180397881Y-126557000D01*
X180911337Y-126344320D01*
X181304320Y-125951337D01*
X181390000Y-125744487D01*
X181475680Y-125951337D01*
X181868663Y-126344320D01*
X182382119Y-126557000D01*
X182937881Y-126557000D01*
X183451337Y-126344320D01*
X183844320Y-125951337D01*
X184057000Y-125437881D01*
X184057000Y-124882119D01*
X183844320Y-124368663D01*
X183451337Y-123975680D01*
X183244487Y-123890000D01*
X183451337Y-123804320D01*
X183844320Y-123411337D01*
X184057000Y-122897881D01*
X184057000Y-122342119D01*
X183844320Y-121828663D01*
X183451337Y-121435680D01*
X182937881Y-121223000D01*
X182382119Y-121223000D01*
X181868663Y-121435680D01*
X181475680Y-121828663D01*
X181390000Y-122035513D01*
X181304320Y-121828663D01*
X180911337Y-121435680D01*
X180397881Y-121223000D01*
X179842119Y-121223000D01*
X179328663Y-121435680D01*
X178935680Y-121828663D01*
X178850000Y-122035513D01*
X178764320Y-121828663D01*
X178371337Y-121435680D01*
X177857881Y-121223000D01*
X177302119Y-121223000D01*
X176788663Y-121435680D01*
X176395680Y-121828663D01*
X176310000Y-122035513D01*
X176224320Y-121828663D01*
X175831337Y-121435680D01*
X175317881Y-121223000D01*
X174762119Y-121223000D01*
X174248663Y-121435680D01*
X173855680Y-121828663D01*
X173643000Y-122342119D01*
X171357000Y-122342119D01*
X171144320Y-121828663D01*
X170751337Y-121435680D01*
X170237881Y-121223000D01*
X169682119Y-121223000D01*
X169168663Y-121435680D01*
X168775680Y-121828663D01*
X168690000Y-122035513D01*
X168604320Y-121828663D01*
X168211337Y-121435680D01*
X167697881Y-121223000D01*
X167142119Y-121223000D01*
X166628663Y-121435680D01*
X166235680Y-121828663D01*
X166150000Y-122035513D01*
X166064320Y-121828663D01*
X165671337Y-121435680D01*
X165157881Y-121223000D01*
X164602119Y-121223000D01*
X164088663Y-121435680D01*
X163695680Y-121828663D01*
X163610000Y-122035513D01*
X163524320Y-121828663D01*
X163131337Y-121435680D01*
X162617881Y-121223000D01*
X162062119Y-121223000D01*
X161548663Y-121435680D01*
X161155680Y-121828663D01*
X160943000Y-122342119D01*
X156117000Y-122342119D01*
X155904320Y-121828663D01*
X155511337Y-121435680D01*
X154997881Y-121223000D01*
X154442119Y-121223000D01*
X153928663Y-121435680D01*
X153535680Y-121828663D01*
X153450000Y-122035513D01*
X153364320Y-121828663D01*
X152971337Y-121435680D01*
X152457881Y-121223000D01*
X151902119Y-121223000D01*
X151388663Y-121435680D01*
X150995680Y-121828663D01*
X150910000Y-122035513D01*
X150824320Y-121828663D01*
X150431337Y-121435680D01*
X149917881Y-121223000D01*
X149362119Y-121223000D01*
X148848663Y-121435680D01*
X148455680Y-121828663D01*
X148370000Y-122035513D01*
X148284320Y-121828663D01*
X147891337Y-121435680D01*
X147377881Y-121223000D01*
X146822119Y-121223000D01*
X146308663Y-121435680D01*
X145915680Y-121828663D01*
X145703000Y-122342119D01*
X143417000Y-122342119D01*
X143204320Y-121828663D01*
X142811337Y-121435680D01*
X142297881Y-121223000D01*
X141742119Y-121223000D01*
X141228663Y-121435680D01*
X140835680Y-121828663D01*
X140750000Y-122035513D01*
X140664320Y-121828663D01*
X140271337Y-121435680D01*
X139757881Y-121223000D01*
X139202119Y-121223000D01*
X138688663Y-121435680D01*
X138295680Y-121828663D01*
X138210000Y-122035513D01*
X138124320Y-121828663D01*
X137731337Y-121435680D01*
X137217881Y-121223000D01*
X136662119Y-121223000D01*
X136148663Y-121435680D01*
X135755680Y-121828663D01*
X135670000Y-122035513D01*
X135584320Y-121828663D01*
X135191337Y-121435680D01*
X134677881Y-121223000D01*
X134122119Y-121223000D01*
X133608663Y-121435680D01*
X133215680Y-121828663D01*
X133003000Y-122342119D01*
X130717000Y-122342119D01*
X130504320Y-121828663D01*
X130111337Y-121435680D01*
X129904487Y-121350000D01*
X130111337Y-121264320D01*
X130504320Y-120871337D01*
X130717000Y-120357881D01*
X130717000Y-119802119D01*
X130504320Y-119288663D01*
X130111337Y-118895680D01*
X129904487Y-118810000D01*
X130111337Y-118724320D01*
X130504320Y-118331337D01*
X130717000Y-117817881D01*
X130717000Y-117262119D01*
X130504320Y-116748663D01*
X130111337Y-116355680D01*
X129904487Y-116270000D01*
X130111337Y-116184320D01*
X130504320Y-115791337D01*
X130717000Y-115277881D01*
X130717000Y-114722119D01*
X130504320Y-114208663D01*
X130111337Y-113815680D01*
X129904487Y-113730000D01*
X130111337Y-113644320D01*
X130504320Y-113251337D01*
X130717000Y-112737881D01*
X130717000Y-112182119D01*
X186343000Y-112182119D01*
X186343000Y-112737881D01*
X186555680Y-113251337D01*
X186948663Y-113644320D01*
X187155513Y-113730000D01*
X186948663Y-113815680D01*
X186555680Y-114208663D01*
X186343000Y-114722119D01*
X186343000Y-115277881D01*
X186555680Y-115791337D01*
X186948663Y-116184320D01*
X187155513Y-116270000D01*
X186948663Y-116355680D01*
X186555680Y-116748663D01*
X186343000Y-117262119D01*
X186343000Y-117817881D01*
X186555680Y-118331337D01*
X186948663Y-118724320D01*
X187155513Y-118810000D01*
X186948663Y-118895680D01*
X186555680Y-119288663D01*
X186343000Y-119802119D01*
X186343000Y-120357881D01*
X186555680Y-120871337D01*
X186948663Y-121264320D01*
X187155513Y-121350000D01*
X186948663Y-121435680D01*
X186555680Y-121828663D01*
X186343000Y-122342119D01*
X186343000Y-122897881D01*
X186555680Y-123411337D01*
X186948663Y-123804320D01*
X187462119Y-124017000D01*
X188017881Y-124017000D01*
X188531337Y-123804320D01*
X188924320Y-123411337D01*
X189137000Y-122897881D01*
X189137000Y-122342119D01*
X188924320Y-121828663D01*
X188531337Y-121435680D01*
X188324487Y-121350000D01*
X188531337Y-121264320D01*
X188924320Y-120871337D01*
X189137000Y-120357881D01*
X189137000Y-119802119D01*
X188924320Y-119288663D01*
X188531337Y-118895680D01*
X188324487Y-118810000D01*
X188531337Y-118724320D01*
X188924320Y-118331337D01*
X189137000Y-117817881D01*
X189137000Y-117262119D01*
X188924320Y-116748663D01*
X188531337Y-116355680D01*
X188324487Y-116270000D01*
X188531337Y-116184320D01*
X188924320Y-115791337D01*
X189137000Y-115277881D01*
X189137000Y-114722119D01*
X188924320Y-114208663D01*
X188531337Y-113815680D01*
X188324487Y-113730000D01*
X188531337Y-113644320D01*
X188924320Y-113251337D01*
X189137000Y-112737881D01*
X189137000Y-112182119D01*
X188924320Y-111668663D01*
X188531337Y-111275680D01*
X188017881Y-111063000D01*
X187462119Y-111063000D01*
X186948663Y-111275680D01*
X186555680Y-111668663D01*
X186343000Y-112182119D01*
X130717000Y-112182119D01*
X130504320Y-111668663D01*
X130111337Y-111275680D01*
X129597881Y-111063000D01*
X129042119Y-111063000D01*
X128528663Y-111275680D01*
X128135680Y-111668663D01*
X127923000Y-112182119D01*
X124485000Y-112182119D01*
X124485000Y-106994126D01*
X166065000Y-106994126D01*
X166065000Y-107405874D01*
X166222569Y-107786280D01*
X166513720Y-108077431D01*
X166894126Y-108235000D01*
X167305874Y-108235000D01*
X167686280Y-108077431D01*
X167977431Y-107786280D01*
X168135000Y-107405874D01*
X168135000Y-106994126D01*
X167977431Y-106613720D01*
X167686280Y-106322569D01*
X167305874Y-106165000D01*
X166894126Y-106165000D01*
X166513720Y-106322569D01*
X166222569Y-106613720D01*
X166065000Y-106994126D01*
X124485000Y-106994126D01*
X124485000Y-98240000D01*
X127985908Y-98240000D01*
X128101161Y-98819418D01*
X128429375Y-99310625D01*
X128727761Y-99510000D01*
X128429375Y-99709375D01*
X128101161Y-100200582D01*
X127985908Y-100780000D01*
X128101161Y-101359418D01*
X128429375Y-101850625D01*
X128920582Y-102178839D01*
X129353744Y-102265000D01*
X129646256Y-102265000D01*
X130079418Y-102178839D01*
X130570625Y-101850625D01*
X130898839Y-101359418D01*
X131014092Y-100780000D01*
X130898839Y-100200582D01*
X130570625Y-99709375D01*
X130272239Y-99510000D01*
X130570625Y-99310625D01*
X130898839Y-98819418D01*
X131014092Y-98240000D01*
X130898839Y-97660582D01*
X130570625Y-97169375D01*
X130079418Y-96841161D01*
X129646256Y-96755000D01*
X129353744Y-96755000D01*
X128920582Y-96841161D01*
X128429375Y-97169375D01*
X128101161Y-97660582D01*
X127985908Y-98240000D01*
X124485000Y-98240000D01*
X124485000Y-95320000D01*
X150785908Y-95320000D01*
X150901161Y-95899418D01*
X151229375Y-96390625D01*
X151527761Y-96590000D01*
X151229375Y-96789375D01*
X150901161Y-97280582D01*
X150785908Y-97860000D01*
X150901161Y-98439418D01*
X151229375Y-98930625D01*
X151247619Y-98942816D01*
X151202235Y-98951843D01*
X150992191Y-99092191D01*
X150851843Y-99302235D01*
X150802560Y-99550000D01*
X150802560Y-101250000D01*
X150851843Y-101497765D01*
X150992191Y-101707809D01*
X151202235Y-101848157D01*
X151450000Y-101897440D01*
X153150000Y-101897440D01*
X153397765Y-101848157D01*
X153607809Y-101707809D01*
X153748157Y-101497765D01*
X153797440Y-101250000D01*
X153797440Y-99550000D01*
X153748157Y-99302235D01*
X153607809Y-99092191D01*
X153397765Y-98951843D01*
X153352381Y-98942816D01*
X153370625Y-98930625D01*
X153698839Y-98439418D01*
X153814092Y-97860000D01*
X153698839Y-97280582D01*
X153370625Y-96789375D01*
X153072239Y-96590000D01*
X153370625Y-96390625D01*
X153698839Y-95899418D01*
X153814092Y-95320000D01*
X153698839Y-94740582D01*
X153370625Y-94249375D01*
X152879418Y-93921161D01*
X152446256Y-93835000D01*
X152153744Y-93835000D01*
X151720582Y-93921161D01*
X151229375Y-94249375D01*
X150901161Y-94740582D01*
X150785908Y-95320000D01*
X124485000Y-95320000D01*
X124485000Y-85540000D01*
X127985908Y-85540000D01*
X128101161Y-86119418D01*
X128429375Y-86610625D01*
X128727761Y-86810000D01*
X128429375Y-87009375D01*
X128101161Y-87500582D01*
X127985908Y-88080000D01*
X128101161Y-88659418D01*
X128429375Y-89150625D01*
X128727761Y-89350000D01*
X128429375Y-89549375D01*
X128101161Y-90040582D01*
X127985908Y-90620000D01*
X128101161Y-91199418D01*
X128429375Y-91690625D01*
X128727761Y-91890000D01*
X128429375Y-92089375D01*
X128101161Y-92580582D01*
X127985908Y-93160000D01*
X128101161Y-93739418D01*
X128429375Y-94230625D01*
X128920582Y-94558839D01*
X129353744Y-94645000D01*
X129646256Y-94645000D01*
X130079418Y-94558839D01*
X130570625Y-94230625D01*
X130898839Y-93739418D01*
X131014092Y-93160000D01*
X130898839Y-92580582D01*
X130570625Y-92089375D01*
X130272239Y-91890000D01*
X130406933Y-91800000D01*
X155785908Y-91800000D01*
X155901161Y-92379418D01*
X156229375Y-92870625D01*
X156527761Y-93070000D01*
X156229375Y-93269375D01*
X155901161Y-93760582D01*
X155785908Y-94340000D01*
X155901161Y-94919418D01*
X156229375Y-95410625D01*
X156527761Y-95610000D01*
X156229375Y-95809375D01*
X155901161Y-96300582D01*
X155785908Y-96880000D01*
X155901161Y-97459418D01*
X156229375Y-97950625D01*
X156527761Y-98150000D01*
X156229375Y-98349375D01*
X155901161Y-98840582D01*
X155785908Y-99420000D01*
X155901161Y-99999418D01*
X156229375Y-100490625D01*
X156527761Y-100690000D01*
X156229375Y-100889375D01*
X155901161Y-101380582D01*
X155785908Y-101960000D01*
X155901161Y-102539418D01*
X156229375Y-103030625D01*
X156720582Y-103358839D01*
X157153744Y-103445000D01*
X157446256Y-103445000D01*
X157879418Y-103358839D01*
X158370625Y-103030625D01*
X158423415Y-102951618D01*
X170457828Y-102951618D01*
X170457828Y-103363366D01*
X170615397Y-103743772D01*
X170906548Y-104034923D01*
X171286954Y-104192492D01*
X171698702Y-104192492D01*
X172056889Y-104044126D01*
X176715000Y-104044126D01*
X176715000Y-104455874D01*
X176872569Y-104836280D01*
X177163720Y-105127431D01*
X177544126Y-105285000D01*
X177955874Y-105285000D01*
X178336280Y-105127431D01*
X178627431Y-104836280D01*
X178785000Y-104455874D01*
X178785000Y-104044126D01*
X178627431Y-103663720D01*
X178336280Y-103372569D01*
X177955874Y-103215000D01*
X177544126Y-103215000D01*
X177163720Y-103372569D01*
X176872569Y-103663720D01*
X176715000Y-104044126D01*
X172056889Y-104044126D01*
X172079108Y-104034923D01*
X172370259Y-103743772D01*
X172527828Y-103363366D01*
X172527828Y-102951618D01*
X172370259Y-102571212D01*
X172079108Y-102280061D01*
X171698702Y-102122492D01*
X171286954Y-102122492D01*
X170906548Y-102280061D01*
X170615397Y-102571212D01*
X170457828Y-102951618D01*
X158423415Y-102951618D01*
X158698839Y-102539418D01*
X158814092Y-101960000D01*
X158698839Y-101380582D01*
X158440618Y-100994126D01*
X174365000Y-100994126D01*
X174365000Y-101405874D01*
X174522569Y-101786280D01*
X174813720Y-102077431D01*
X175194126Y-102235000D01*
X175605874Y-102235000D01*
X175986280Y-102077431D01*
X176277431Y-101786280D01*
X176435000Y-101405874D01*
X176435000Y-100994126D01*
X176277431Y-100613720D01*
X175986280Y-100322569D01*
X175605874Y-100165000D01*
X175194126Y-100165000D01*
X174813720Y-100322569D01*
X174522569Y-100613720D01*
X174365000Y-100994126D01*
X158440618Y-100994126D01*
X158370625Y-100889375D01*
X158072239Y-100690000D01*
X158370625Y-100490625D01*
X158698839Y-99999418D01*
X158814092Y-99420000D01*
X158698839Y-98840582D01*
X158370625Y-98349375D01*
X158072239Y-98150000D01*
X158370625Y-97950625D01*
X158698839Y-97459418D01*
X158811282Y-96894126D01*
X164665000Y-96894126D01*
X164665000Y-97305874D01*
X164822569Y-97686280D01*
X165113720Y-97977431D01*
X165494126Y-98135000D01*
X165905874Y-98135000D01*
X166286280Y-97977431D01*
X166577431Y-97686280D01*
X166735000Y-97305874D01*
X166735000Y-96894126D01*
X166577431Y-96513720D01*
X166286280Y-96222569D01*
X165905874Y-96065000D01*
X165494126Y-96065000D01*
X165113720Y-96222569D01*
X164822569Y-96513720D01*
X164665000Y-96894126D01*
X158811282Y-96894126D01*
X158814092Y-96880000D01*
X158698839Y-96300582D01*
X158370625Y-95809375D01*
X158072239Y-95610000D01*
X158370625Y-95410625D01*
X158448467Y-95294126D01*
X185265000Y-95294126D01*
X185265000Y-95705874D01*
X185422569Y-96086280D01*
X185713720Y-96377431D01*
X186094126Y-96535000D01*
X186505874Y-96535000D01*
X186886280Y-96377431D01*
X187177431Y-96086280D01*
X187335000Y-95705874D01*
X187335000Y-95294126D01*
X187177431Y-94913720D01*
X186886280Y-94622569D01*
X186505874Y-94465000D01*
X186094126Y-94465000D01*
X185713720Y-94622569D01*
X185422569Y-94913720D01*
X185265000Y-95294126D01*
X158448467Y-95294126D01*
X158698839Y-94919418D01*
X158814092Y-94340000D01*
X158698839Y-93760582D01*
X158370625Y-93269375D01*
X158072239Y-93070000D01*
X158370625Y-92870625D01*
X158698839Y-92379418D01*
X158814092Y-91800000D01*
X158698839Y-91220582D01*
X158370625Y-90729375D01*
X157879418Y-90401161D01*
X157446256Y-90315000D01*
X157153744Y-90315000D01*
X156720582Y-90401161D01*
X156229375Y-90729375D01*
X155901161Y-91220582D01*
X155785908Y-91800000D01*
X130406933Y-91800000D01*
X130570625Y-91690625D01*
X130898839Y-91199418D01*
X131014092Y-90620000D01*
X130898839Y-90040582D01*
X130570625Y-89549375D01*
X130272239Y-89350000D01*
X130570625Y-89150625D01*
X130808829Y-88794126D01*
X188215000Y-88794126D01*
X188215000Y-89205874D01*
X188372569Y-89586280D01*
X188663720Y-89877431D01*
X189044126Y-90035000D01*
X189455874Y-90035000D01*
X189836280Y-89877431D01*
X190127431Y-89586280D01*
X190285000Y-89205874D01*
X190285000Y-88794126D01*
X190127431Y-88413720D01*
X189836280Y-88122569D01*
X189455874Y-87965000D01*
X189044126Y-87965000D01*
X188663720Y-88122569D01*
X188372569Y-88413720D01*
X188215000Y-88794126D01*
X130808829Y-88794126D01*
X130898839Y-88659418D01*
X131014092Y-88080000D01*
X130898839Y-87500582D01*
X130570625Y-87009375D01*
X130272239Y-86810000D01*
X130570625Y-86610625D01*
X130898839Y-86119418D01*
X131014092Y-85540000D01*
X130898839Y-84960582D01*
X130570625Y-84469375D01*
X130552381Y-84457184D01*
X130597765Y-84448157D01*
X130807809Y-84307809D01*
X130893208Y-84180000D01*
X155785908Y-84180000D01*
X155901161Y-84759418D01*
X156229375Y-85250625D01*
X156527761Y-85450000D01*
X156229375Y-85649375D01*
X155901161Y-86140582D01*
X155785908Y-86720000D01*
X155901161Y-87299418D01*
X156229375Y-87790625D01*
X156720582Y-88118839D01*
X157153744Y-88205000D01*
X157446256Y-88205000D01*
X157879418Y-88118839D01*
X158370625Y-87790625D01*
X158698839Y-87299418D01*
X158814092Y-86720000D01*
X158718615Y-86240000D01*
X194985908Y-86240000D01*
X195101161Y-86819418D01*
X195429375Y-87310625D01*
X195727761Y-87510000D01*
X195429375Y-87709375D01*
X195101161Y-88200582D01*
X194985908Y-88780000D01*
X195101161Y-89359418D01*
X195429375Y-89850625D01*
X195727761Y-90050000D01*
X195429375Y-90249375D01*
X195101161Y-90740582D01*
X194985908Y-91320000D01*
X195101161Y-91899418D01*
X195429375Y-92390625D01*
X195727761Y-92590000D01*
X195429375Y-92789375D01*
X195101161Y-93280582D01*
X194985908Y-93860000D01*
X195101161Y-94439418D01*
X195429375Y-94930625D01*
X195727761Y-95130000D01*
X195429375Y-95329375D01*
X195101161Y-95820582D01*
X194985908Y-96400000D01*
X195101161Y-96979418D01*
X195429375Y-97470625D01*
X195727761Y-97670000D01*
X195429375Y-97869375D01*
X195101161Y-98360582D01*
X194985908Y-98940000D01*
X195101161Y-99519418D01*
X195429375Y-100010625D01*
X195727761Y-100210000D01*
X195429375Y-100409375D01*
X195101161Y-100900582D01*
X194985908Y-101480000D01*
X195101161Y-102059418D01*
X195429375Y-102550625D01*
X195727761Y-102750000D01*
X195429375Y-102949375D01*
X195101161Y-103440582D01*
X194985908Y-104020000D01*
X195101161Y-104599418D01*
X195429375Y-105090625D01*
X195727761Y-105290000D01*
X195429375Y-105489375D01*
X195101161Y-105980582D01*
X194985908Y-106560000D01*
X195101161Y-107139418D01*
X195429375Y-107630625D01*
X195727761Y-107830000D01*
X195429375Y-108029375D01*
X195101161Y-108520582D01*
X194985908Y-109100000D01*
X195101161Y-109679418D01*
X195429375Y-110170625D01*
X195727761Y-110370000D01*
X195429375Y-110569375D01*
X195101161Y-111060582D01*
X194985908Y-111640000D01*
X195101161Y-112219418D01*
X195429375Y-112710625D01*
X195727761Y-112910000D01*
X195429375Y-113109375D01*
X195101161Y-113600582D01*
X194985908Y-114180000D01*
X195101161Y-114759418D01*
X195429375Y-115250625D01*
X195727761Y-115450000D01*
X195429375Y-115649375D01*
X195101161Y-116140582D01*
X194985908Y-116720000D01*
X195101161Y-117299418D01*
X195429375Y-117790625D01*
X195727761Y-117990000D01*
X195429375Y-118189375D01*
X195101161Y-118680582D01*
X194985908Y-119260000D01*
X195101161Y-119839418D01*
X195429375Y-120330625D01*
X195727761Y-120530000D01*
X195429375Y-120729375D01*
X195101161Y-121220582D01*
X194985908Y-121800000D01*
X195101161Y-122379418D01*
X195429375Y-122870625D01*
X195727761Y-123070000D01*
X195429375Y-123269375D01*
X195101161Y-123760582D01*
X194985908Y-124340000D01*
X195101161Y-124919418D01*
X195429375Y-125410625D01*
X195727761Y-125610000D01*
X195429375Y-125809375D01*
X195101161Y-126300582D01*
X194985908Y-126880000D01*
X195101161Y-127459418D01*
X195429375Y-127950625D01*
X195727761Y-128150000D01*
X195429375Y-128349375D01*
X195101161Y-128840582D01*
X194985908Y-129420000D01*
X195101161Y-129999418D01*
X195429375Y-130490625D01*
X195727761Y-130690000D01*
X195429375Y-130889375D01*
X195101161Y-131380582D01*
X194985908Y-131960000D01*
X195101161Y-132539418D01*
X195429375Y-133030625D01*
X195920582Y-133358839D01*
X196353744Y-133445000D01*
X196646256Y-133445000D01*
X197079418Y-133358839D01*
X197570625Y-133030625D01*
X197770000Y-132732239D01*
X197969375Y-133030625D01*
X198460582Y-133358839D01*
X198893744Y-133445000D01*
X199186256Y-133445000D01*
X199619418Y-133358839D01*
X200110625Y-133030625D01*
X200438839Y-132539418D01*
X200554092Y-131960000D01*
X200438839Y-131380582D01*
X200110625Y-130889375D01*
X199812239Y-130690000D01*
X200110625Y-130490625D01*
X200438839Y-129999418D01*
X200554092Y-129420000D01*
X200438839Y-128840582D01*
X200110625Y-128349375D01*
X199812239Y-128150000D01*
X200110625Y-127950625D01*
X200438839Y-127459418D01*
X200554092Y-126880000D01*
X200438839Y-126300582D01*
X200110625Y-125809375D01*
X199812239Y-125610000D01*
X200110625Y-125410625D01*
X200438839Y-124919418D01*
X200554092Y-124340000D01*
X200438839Y-123760582D01*
X200110625Y-123269375D01*
X199812239Y-123070000D01*
X200110625Y-122870625D01*
X200438839Y-122379418D01*
X200554092Y-121800000D01*
X200438839Y-121220582D01*
X200110625Y-120729375D01*
X199812239Y-120530000D01*
X200110625Y-120330625D01*
X200438839Y-119839418D01*
X200554092Y-119260000D01*
X200438839Y-118680582D01*
X200110625Y-118189375D01*
X199812239Y-117990000D01*
X200110625Y-117790625D01*
X200438839Y-117299418D01*
X200554092Y-116720000D01*
X200438839Y-116140582D01*
X200110625Y-115649375D01*
X199812239Y-115450000D01*
X200110625Y-115250625D01*
X200438839Y-114759418D01*
X200554092Y-114180000D01*
X200438839Y-113600582D01*
X200110625Y-113109375D01*
X199812239Y-112910000D01*
X200110625Y-112710625D01*
X200438839Y-112219418D01*
X200554092Y-111640000D01*
X200438839Y-111060582D01*
X200110625Y-110569375D01*
X199812239Y-110370000D01*
X200110625Y-110170625D01*
X200438839Y-109679418D01*
X200554092Y-109100000D01*
X200438839Y-108520582D01*
X200110625Y-108029375D01*
X199812239Y-107830000D01*
X200110625Y-107630625D01*
X200438839Y-107139418D01*
X200554092Y-106560000D01*
X200438839Y-105980582D01*
X200110625Y-105489375D01*
X199812239Y-105290000D01*
X200110625Y-105090625D01*
X200438839Y-104599418D01*
X200554092Y-104020000D01*
X200438839Y-103440582D01*
X200110625Y-102949375D01*
X199812239Y-102750000D01*
X200110625Y-102550625D01*
X200438839Y-102059418D01*
X200554092Y-101480000D01*
X200438839Y-100900582D01*
X200110625Y-100409375D01*
X199812239Y-100210000D01*
X200110625Y-100010625D01*
X200438839Y-99519418D01*
X200554092Y-98940000D01*
X200438839Y-98360582D01*
X200110625Y-97869375D01*
X199812239Y-97670000D01*
X200110625Y-97470625D01*
X200438839Y-96979418D01*
X200554092Y-96400000D01*
X200438839Y-95820582D01*
X200110625Y-95329375D01*
X199812239Y-95130000D01*
X200110625Y-94930625D01*
X200438839Y-94439418D01*
X200554092Y-93860000D01*
X200438839Y-93280582D01*
X200110625Y-92789375D01*
X199812239Y-92590000D01*
X200110625Y-92390625D01*
X200438839Y-91899418D01*
X200554092Y-91320000D01*
X200438839Y-90740582D01*
X200110625Y-90249375D01*
X199619418Y-89921161D01*
X199186256Y-89835000D01*
X198893744Y-89835000D01*
X198460582Y-89921161D01*
X197969375Y-90249375D01*
X197770000Y-90547761D01*
X197570625Y-90249375D01*
X197272239Y-90050000D01*
X197570625Y-89850625D01*
X197898839Y-89359418D01*
X198014092Y-88780000D01*
X197898839Y-88200582D01*
X197570625Y-87709375D01*
X197272239Y-87510000D01*
X197570625Y-87310625D01*
X197770000Y-87012239D01*
X197969375Y-87310625D01*
X198460582Y-87638839D01*
X198893744Y-87725000D01*
X199186256Y-87725000D01*
X199619418Y-87638839D01*
X200110625Y-87310625D01*
X200438839Y-86819418D01*
X200554092Y-86240000D01*
X200438839Y-85660582D01*
X200110625Y-85169375D01*
X199812239Y-84970000D01*
X200110625Y-84770625D01*
X200438839Y-84279418D01*
X200554092Y-83700000D01*
X200438839Y-83120582D01*
X200110625Y-82629375D01*
X199619418Y-82301161D01*
X199186256Y-82215000D01*
X198893744Y-82215000D01*
X198460582Y-82301161D01*
X197969375Y-82629375D01*
X197957184Y-82647619D01*
X197948157Y-82602235D01*
X197807809Y-82392191D01*
X197597765Y-82251843D01*
X197350000Y-82202560D01*
X195650000Y-82202560D01*
X195402235Y-82251843D01*
X195192191Y-82392191D01*
X195051843Y-82602235D01*
X195002560Y-82850000D01*
X195002560Y-84550000D01*
X195051843Y-84797765D01*
X195192191Y-85007809D01*
X195402235Y-85148157D01*
X195447619Y-85157184D01*
X195429375Y-85169375D01*
X195101161Y-85660582D01*
X194985908Y-86240000D01*
X158718615Y-86240000D01*
X158698839Y-86140582D01*
X158370625Y-85649375D01*
X158072239Y-85450000D01*
X158370625Y-85250625D01*
X158698839Y-84759418D01*
X158814092Y-84180000D01*
X158698839Y-83600582D01*
X158370625Y-83109375D01*
X157879418Y-82781161D01*
X157446256Y-82695000D01*
X157153744Y-82695000D01*
X156720582Y-82781161D01*
X156229375Y-83109375D01*
X155901161Y-83600582D01*
X155785908Y-84180000D01*
X130893208Y-84180000D01*
X130948157Y-84097765D01*
X130997440Y-83850000D01*
X130997440Y-82544126D01*
X191715000Y-82544126D01*
X191715000Y-82955874D01*
X191872569Y-83336280D01*
X192163720Y-83627431D01*
X192544126Y-83785000D01*
X192955874Y-83785000D01*
X193336280Y-83627431D01*
X193627431Y-83336280D01*
X193785000Y-82955874D01*
X193785000Y-82544126D01*
X193627431Y-82163720D01*
X193336280Y-81872569D01*
X192955874Y-81715000D01*
X192544126Y-81715000D01*
X192163720Y-81872569D01*
X191872569Y-82163720D01*
X191715000Y-82544126D01*
X130997440Y-82544126D01*
X130997440Y-82150000D01*
X130948157Y-81902235D01*
X130807809Y-81692191D01*
X130597765Y-81551843D01*
X130350000Y-81502560D01*
X128650000Y-81502560D01*
X128402235Y-81551843D01*
X128192191Y-81692191D01*
X128051843Y-81902235D01*
X128002560Y-82150000D01*
X128002560Y-83850000D01*
X128051843Y-84097765D01*
X128192191Y-84307809D01*
X128402235Y-84448157D01*
X128447619Y-84457184D01*
X128429375Y-84469375D01*
X128101161Y-84960582D01*
X127985908Y-85540000D01*
X124485000Y-85540000D01*
X124485000Y-78725866D01*
X131615000Y-78725866D01*
X131615000Y-79774134D01*
X132016155Y-80742608D01*
X132757392Y-81483845D01*
X133725866Y-81885000D01*
X134774134Y-81885000D01*
X135742608Y-81483845D01*
X136483845Y-80742608D01*
X136885000Y-79774134D01*
X136885000Y-78725866D01*
X136687890Y-78250000D01*
X155802560Y-78250000D01*
X155802560Y-79950000D01*
X155851843Y-80197765D01*
X155992191Y-80407809D01*
X156202235Y-80548157D01*
X156450000Y-80597440D01*
X158150000Y-80597440D01*
X158397765Y-80548157D01*
X158607809Y-80407809D01*
X158748157Y-80197765D01*
X158797440Y-79950000D01*
X158797440Y-78725866D01*
X180615000Y-78725866D01*
X180615000Y-79774134D01*
X181016155Y-80742608D01*
X181757392Y-81483845D01*
X182725866Y-81885000D01*
X183774134Y-81885000D01*
X184742608Y-81483845D01*
X185483845Y-80742608D01*
X185885000Y-79774134D01*
X185885000Y-78725866D01*
X185483845Y-77757392D01*
X184742608Y-77016155D01*
X183774134Y-76615000D01*
X182725866Y-76615000D01*
X181757392Y-77016155D01*
X181016155Y-77757392D01*
X180615000Y-78725866D01*
X158797440Y-78725866D01*
X158797440Y-78250000D01*
X158748157Y-78002235D01*
X158607809Y-77792191D01*
X158397765Y-77651843D01*
X158150000Y-77602560D01*
X156450000Y-77602560D01*
X156202235Y-77651843D01*
X155992191Y-77792191D01*
X155851843Y-78002235D01*
X155802560Y-78250000D01*
X136687890Y-78250000D01*
X136483845Y-77757392D01*
X135742608Y-77016155D01*
X134774134Y-76615000D01*
X133725866Y-76615000D01*
X132757392Y-77016155D01*
X132016155Y-77757392D01*
X131615000Y-78725866D01*
X124485000Y-78725866D01*
X124485000Y-72625000D01*
X142002560Y-72625000D01*
X142002560Y-74575000D01*
X142051843Y-74822765D01*
X142192191Y-75032809D01*
X142402235Y-75173157D01*
X142650000Y-75222440D01*
X144350000Y-75222440D01*
X144597765Y-75173157D01*
X144807809Y-75032809D01*
X144948157Y-74822765D01*
X144997440Y-74575000D01*
X144997440Y-73328745D01*
X147015000Y-73328745D01*
X147015000Y-73871256D01*
X147101161Y-74304418D01*
X147429375Y-74795625D01*
X147920583Y-75123839D01*
X148500000Y-75239092D01*
X149079418Y-75123839D01*
X149570625Y-74795625D01*
X149898839Y-74304417D01*
X149985000Y-73871255D01*
X149985000Y-73328744D01*
X149898839Y-72895582D01*
X149701338Y-72600000D01*
X164702560Y-72600000D01*
X164702560Y-74600000D01*
X164751843Y-74847765D01*
X164892191Y-75057809D01*
X165102235Y-75198157D01*
X165350000Y-75247440D01*
X167050000Y-75247440D01*
X167297765Y-75198157D01*
X167507809Y-75057809D01*
X167648157Y-74847765D01*
X167650719Y-74834886D01*
X168120583Y-75148839D01*
X168700000Y-75264092D01*
X169279418Y-75148839D01*
X169770625Y-74820625D01*
X170098839Y-74329417D01*
X170185000Y-73896255D01*
X170185000Y-73303744D01*
X170098839Y-72870582D01*
X169918042Y-72600000D01*
X173802560Y-72600000D01*
X173802560Y-74600000D01*
X173851843Y-74847765D01*
X173992191Y-75057809D01*
X174202235Y-75198157D01*
X174450000Y-75247440D01*
X176150000Y-75247440D01*
X176397765Y-75198157D01*
X176607809Y-75057809D01*
X176748157Y-74847765D01*
X176750719Y-74834886D01*
X177220583Y-75148839D01*
X177800000Y-75264092D01*
X178379418Y-75148839D01*
X178870625Y-74820625D01*
X179198839Y-74329417D01*
X179285000Y-73896255D01*
X179285000Y-73303744D01*
X179198839Y-72870582D01*
X178870625Y-72379375D01*
X178379417Y-72051161D01*
X177800000Y-71935908D01*
X177220582Y-72051161D01*
X176750719Y-72365114D01*
X176748157Y-72352235D01*
X176607809Y-72142191D01*
X176397765Y-72001843D01*
X176150000Y-71952560D01*
X174450000Y-71952560D01*
X174202235Y-72001843D01*
X173992191Y-72142191D01*
X173851843Y-72352235D01*
X173802560Y-72600000D01*
X169918042Y-72600000D01*
X169770625Y-72379375D01*
X169279417Y-72051161D01*
X168700000Y-71935908D01*
X168120582Y-72051161D01*
X167650719Y-72365114D01*
X167648157Y-72352235D01*
X167507809Y-72142191D01*
X167297765Y-72001843D01*
X167050000Y-71952560D01*
X165350000Y-71952560D01*
X165102235Y-72001843D01*
X164892191Y-72142191D01*
X164751843Y-72352235D01*
X164702560Y-72600000D01*
X149701338Y-72600000D01*
X149570625Y-72404375D01*
X149079417Y-72076161D01*
X148500000Y-71960908D01*
X147920582Y-72076161D01*
X147429375Y-72404375D01*
X147101161Y-72895583D01*
X147015000Y-73328745D01*
X144997440Y-73328745D01*
X144997440Y-72625000D01*
X144948157Y-72377235D01*
X144807809Y-72167191D01*
X144597765Y-72026843D01*
X144350000Y-71977560D01*
X142650000Y-71977560D01*
X142402235Y-72026843D01*
X142192191Y-72167191D01*
X142051843Y-72377235D01*
X142002560Y-72625000D01*
X124485000Y-72625000D01*
X124485000Y-71425521D01*
X125862441Y-71422037D01*
X125927612Y-71435000D01*
X202072388Y-71435000D01*
X202286783Y-71392354D01*
X202297789Y-71385000D01*
X202837481Y-71385000D01*
X203072608Y-152265000D01*
G04 #@! TD*
M02*
