G04 #@! TF.GenerationSoftware,KiCad,Pcbnew,(5.0.0)*
G04 #@! TF.CreationDate,2019-02-22T13:26:14-05:00*
G04 #@! TF.ProjectId,_saved_sensor_suite,5F73617665645F73656E736F725F7375,rev?*
G04 #@! TF.SameCoordinates,Original*
G04 #@! TF.FileFunction,Copper,L1,Top,Signal*
G04 #@! TF.FilePolarity,Positive*
%FSLAX46Y46*%
G04 Gerber Fmt 4.6, Leading zero omitted, Abs format (unit mm)*
G04 Created by KiCad (PCBNEW (5.0.0)) date 02/22/19 13:26:14*
%MOMM*%
%LPD*%
G01*
G04 APERTURE LIST*
G04 #@! TA.AperFunction,ComponentPad*
%ADD10R,1.700000X1.950000*%
G04 #@! TD*
G04 #@! TA.AperFunction,ComponentPad*
%ADD11O,1.700000X1.950000*%
G04 #@! TD*
G04 #@! TA.AperFunction,ComponentPad*
%ADD12C,4.000000*%
G04 #@! TD*
G04 #@! TA.AperFunction,ComponentPad*
%ADD13R,1.700000X1.700000*%
G04 #@! TD*
G04 #@! TA.AperFunction,ComponentPad*
%ADD14O,1.700000X1.700000*%
G04 #@! TD*
G04 #@! TA.AperFunction,Conductor*
%ADD15C,0.100000*%
G04 #@! TD*
G04 #@! TA.AperFunction,SMDPad,CuDef*
%ADD16C,2.700000*%
G04 #@! TD*
G04 #@! TA.AperFunction,SMDPad,CuDef*
%ADD17C,0.250000*%
G04 #@! TD*
G04 #@! TA.AperFunction,SMDPad,CuDef*
%ADD18R,0.800000X0.900000*%
G04 #@! TD*
G04 #@! TA.AperFunction,ComponentPad*
%ADD19C,1.524000*%
G04 #@! TD*
G04 #@! TA.AperFunction,SMDPad,CuDef*
%ADD20C,1.150000*%
G04 #@! TD*
G04 #@! TA.AperFunction,SMDPad,CuDef*
%ADD21R,1.000000X1.500000*%
G04 #@! TD*
G04 #@! TA.AperFunction,SMDPad,CuDef*
%ADD22C,0.500000*%
G04 #@! TD*
G04 #@! TA.AperFunction,ComponentPad*
%ADD23O,1.700000X2.000000*%
G04 #@! TD*
G04 #@! TA.AperFunction,ComponentPad*
%ADD24R,1.700000X2.000000*%
G04 #@! TD*
G04 #@! TA.AperFunction,ViaPad*
%ADD25C,0.800000*%
G04 #@! TD*
G04 #@! TA.AperFunction,Conductor*
%ADD26C,0.250000*%
G04 #@! TD*
G04 #@! TA.AperFunction,Conductor*
%ADD27C,0.228600*%
G04 #@! TD*
G04 #@! TA.AperFunction,Conductor*
%ADD28C,0.152400*%
G04 #@! TD*
G04 APERTURE END LIST*
D10*
G04 #@! TO.P,J7,1*
G04 #@! TO.N,+5VP*
X143500000Y-73600000D03*
D11*
G04 #@! TO.P,J7,2*
G04 #@! TO.N,GNDPWR*
X146000000Y-73600000D03*
G04 #@! TO.P,J7,3*
G04 #@! TO.N,Net-(J7-Pad3)*
X148500000Y-73600000D03*
G04 #@! TD*
D12*
G04 #@! TO.P,U2,4*
G04 #@! TO.N,N/C*
X134250000Y-137250000D03*
G04 #@! TO.P,U2,3*
X183250000Y-137250000D03*
G04 #@! TO.P,U2,2*
X183250000Y-79250000D03*
G04 #@! TO.P,U2,1*
X134250000Y-79250000D03*
G04 #@! TD*
D13*
G04 #@! TO.P,J8,1*
G04 #@! TO.N,+5VP*
X157300000Y-79100000D03*
D14*
G04 #@! TO.P,J8,2*
G04 #@! TO.N,GNDPWR*
X157300000Y-81640000D03*
G04 #@! TO.P,J8,3*
G04 #@! TO.N,SCL_iso*
X157300000Y-84180000D03*
G04 #@! TO.P,J8,4*
G04 #@! TO.N,SDA_iso*
X157300000Y-86720000D03*
G04 #@! TO.P,J8,5*
G04 #@! TO.N,GNDPWR*
X157300000Y-89260000D03*
G04 #@! TO.P,J8,6*
G04 #@! TO.N,Net-(J8-Pad6)*
X157300000Y-91800000D03*
G04 #@! TO.P,J8,7*
G04 #@! TO.N,Net-(J7-Pad3)*
X157300000Y-94340000D03*
G04 #@! TO.P,J8,8*
G04 #@! TO.N,Net-(J8-Pad8)*
X157300000Y-96880000D03*
G04 #@! TO.P,J8,9*
G04 #@! TO.N,Net-(J8-Pad9)*
X157300000Y-99420000D03*
G04 #@! TO.P,J8,10*
G04 #@! TO.N,Net-(J8-Pad10)*
X157300000Y-101960000D03*
G04 #@! TD*
D13*
G04 #@! TO.P,J6,1*
G04 #@! TO.N,Net-(J6-Pad1)*
X196500000Y-83700000D03*
D14*
G04 #@! TO.P,J6,2*
G04 #@! TO.N,+5VP*
X199040000Y-83700000D03*
G04 #@! TO.P,J6,3*
G04 #@! TO.N,SDA_iso*
X196500000Y-86240000D03*
G04 #@! TO.P,J6,4*
G04 #@! TO.N,Net-(J6-Pad4)*
X199040000Y-86240000D03*
G04 #@! TO.P,J6,5*
G04 #@! TO.N,SCL_iso*
X196500000Y-88780000D03*
G04 #@! TO.P,J6,6*
G04 #@! TO.N,GNDPWR*
X199040000Y-88780000D03*
G04 #@! TO.P,J6,7*
G04 #@! TO.N,Net-(J6-Pad7)*
X196500000Y-91320000D03*
G04 #@! TO.P,J6,8*
G04 #@! TO.N,Net-(J6-Pad8)*
X199040000Y-91320000D03*
G04 #@! TO.P,J6,9*
G04 #@! TO.N,Net-(J6-Pad9)*
X196500000Y-93860000D03*
G04 #@! TO.P,J6,10*
G04 #@! TO.N,Net-(J6-Pad10)*
X199040000Y-93860000D03*
G04 #@! TO.P,J6,11*
G04 #@! TO.N,/DigitalOutput1*
X196500000Y-96400000D03*
G04 #@! TO.P,J6,12*
G04 #@! TO.N,Net-(J6-Pad12)*
X199040000Y-96400000D03*
G04 #@! TO.P,J6,13*
G04 #@! TO.N,/DigitalOutput2*
X196500000Y-98940000D03*
G04 #@! TO.P,J6,14*
G04 #@! TO.N,Net-(J6-Pad14)*
X199040000Y-98940000D03*
G04 #@! TO.P,J6,15*
G04 #@! TO.N,Net-(J6-Pad15)*
X196500000Y-101480000D03*
G04 #@! TO.P,J6,16*
G04 #@! TO.N,Net-(J6-Pad16)*
X199040000Y-101480000D03*
G04 #@! TO.P,J6,17*
G04 #@! TO.N,Net-(J6-Pad17)*
X196500000Y-104020000D03*
G04 #@! TO.P,J6,18*
G04 #@! TO.N,Net-(J6-Pad18)*
X199040000Y-104020000D03*
G04 #@! TO.P,J6,19*
G04 #@! TO.N,Net-(J6-Pad19)*
X196500000Y-106560000D03*
G04 #@! TO.P,J6,20*
G04 #@! TO.N,Net-(J6-Pad20)*
X199040000Y-106560000D03*
G04 #@! TO.P,J6,21*
G04 #@! TO.N,Net-(J6-Pad21)*
X196500000Y-109100000D03*
G04 #@! TO.P,J6,22*
G04 #@! TO.N,Net-(J6-Pad22)*
X199040000Y-109100000D03*
G04 #@! TO.P,J6,23*
G04 #@! TO.N,Net-(J6-Pad23)*
X196500000Y-111640000D03*
G04 #@! TO.P,J6,24*
G04 #@! TO.N,Net-(J6-Pad24)*
X199040000Y-111640000D03*
G04 #@! TO.P,J6,25*
G04 #@! TO.N,Net-(J6-Pad25)*
X196500000Y-114180000D03*
G04 #@! TO.P,J6,26*
G04 #@! TO.N,Net-(J6-Pad26)*
X199040000Y-114180000D03*
G04 #@! TO.P,J6,27*
G04 #@! TO.N,Net-(J6-Pad27)*
X196500000Y-116720000D03*
G04 #@! TO.P,J6,28*
G04 #@! TO.N,Net-(J6-Pad28)*
X199040000Y-116720000D03*
G04 #@! TO.P,J6,29*
G04 #@! TO.N,DigitalOutput3*
X196500000Y-119260000D03*
G04 #@! TO.P,J6,30*
G04 #@! TO.N,Net-(J6-Pad30)*
X199040000Y-119260000D03*
G04 #@! TO.P,J6,31*
G04 #@! TO.N,DigitalOutput4*
X196500000Y-121800000D03*
G04 #@! TO.P,J6,32*
G04 #@! TO.N,Net-(J6-Pad32)*
X199040000Y-121800000D03*
G04 #@! TO.P,J6,33*
G04 #@! TO.N,DigitalOutput6*
X196500000Y-124340000D03*
G04 #@! TO.P,J6,34*
G04 #@! TO.N,Net-(J6-Pad34)*
X199040000Y-124340000D03*
G04 #@! TO.P,J6,35*
G04 #@! TO.N,DigitalOutput5*
X196500000Y-126880000D03*
G04 #@! TO.P,J6,36*
G04 #@! TO.N,Net-(J6-Pad36)*
X199040000Y-126880000D03*
G04 #@! TO.P,J6,37*
G04 #@! TO.N,Net-(J6-Pad37)*
X196500000Y-129420000D03*
G04 #@! TO.P,J6,38*
G04 #@! TO.N,Net-(J6-Pad38)*
X199040000Y-129420000D03*
G04 #@! TO.P,J6,39*
G04 #@! TO.N,Net-(J6-Pad39)*
X196500000Y-131960000D03*
G04 #@! TO.P,J6,40*
G04 #@! TO.N,Net-(J6-Pad40)*
X199040000Y-131960000D03*
G04 #@! TD*
D15*
G04 #@! TO.N,GNDPWR*
G04 #@! TO.C,U1*
G36*
X167924503Y-102751204D02*
X167948772Y-102754804D01*
X167972570Y-102760765D01*
X167995670Y-102769030D01*
X168017849Y-102779520D01*
X168038892Y-102792133D01*
X168058598Y-102806748D01*
X168076776Y-102823224D01*
X168093252Y-102841402D01*
X168107867Y-102861108D01*
X168120480Y-102882151D01*
X168130970Y-102904330D01*
X168139235Y-102927430D01*
X168145196Y-102951228D01*
X168148796Y-102975497D01*
X168150000Y-103000001D01*
X168150000Y-105199999D01*
X168148796Y-105224503D01*
X168145196Y-105248772D01*
X168139235Y-105272570D01*
X168130970Y-105295670D01*
X168120480Y-105317849D01*
X168107867Y-105338892D01*
X168093252Y-105358598D01*
X168076776Y-105376776D01*
X168058598Y-105393252D01*
X168038892Y-105407867D01*
X168017849Y-105420480D01*
X167995670Y-105430970D01*
X167972570Y-105439235D01*
X167948772Y-105445196D01*
X167924503Y-105448796D01*
X167899999Y-105450000D01*
X165700001Y-105450000D01*
X165675497Y-105448796D01*
X165651228Y-105445196D01*
X165627430Y-105439235D01*
X165604330Y-105430970D01*
X165582151Y-105420480D01*
X165561108Y-105407867D01*
X165541402Y-105393252D01*
X165523224Y-105376776D01*
X165506748Y-105358598D01*
X165492133Y-105338892D01*
X165479520Y-105317849D01*
X165469030Y-105295670D01*
X165460765Y-105272570D01*
X165454804Y-105248772D01*
X165451204Y-105224503D01*
X165450000Y-105199999D01*
X165450000Y-103000001D01*
X165451204Y-102975497D01*
X165454804Y-102951228D01*
X165460765Y-102927430D01*
X165469030Y-102904330D01*
X165479520Y-102882151D01*
X165492133Y-102861108D01*
X165506748Y-102841402D01*
X165523224Y-102823224D01*
X165541402Y-102806748D01*
X165561108Y-102792133D01*
X165582151Y-102779520D01*
X165604330Y-102769030D01*
X165627430Y-102760765D01*
X165651228Y-102754804D01*
X165675497Y-102751204D01*
X165700001Y-102750000D01*
X167899999Y-102750000D01*
X167924503Y-102751204D01*
X167924503Y-102751204D01*
G37*
D16*
G04 #@! TD*
G04 #@! TO.P,U1,25*
G04 #@! TO.N,GNDPWR*
X166800000Y-104100000D03*
D15*
G04 #@! TO.N,/temp1p*
G04 #@! TO.C,U1*
G36*
X168118626Y-101725301D02*
X168124693Y-101726201D01*
X168130643Y-101727691D01*
X168136418Y-101729758D01*
X168141962Y-101732380D01*
X168147223Y-101735533D01*
X168152150Y-101739187D01*
X168156694Y-101743306D01*
X168160813Y-101747850D01*
X168164467Y-101752777D01*
X168167620Y-101758038D01*
X168170242Y-101763582D01*
X168172309Y-101769357D01*
X168173799Y-101775307D01*
X168174699Y-101781374D01*
X168175000Y-101787500D01*
X168175000Y-102487500D01*
X168174699Y-102493626D01*
X168173799Y-102499693D01*
X168172309Y-102505643D01*
X168170242Y-102511418D01*
X168167620Y-102516962D01*
X168164467Y-102522223D01*
X168160813Y-102527150D01*
X168156694Y-102531694D01*
X168152150Y-102535813D01*
X168147223Y-102539467D01*
X168141962Y-102542620D01*
X168136418Y-102545242D01*
X168130643Y-102547309D01*
X168124693Y-102548799D01*
X168118626Y-102549699D01*
X168112500Y-102550000D01*
X167987500Y-102550000D01*
X167981374Y-102549699D01*
X167975307Y-102548799D01*
X167969357Y-102547309D01*
X167963582Y-102545242D01*
X167958038Y-102542620D01*
X167952777Y-102539467D01*
X167947850Y-102535813D01*
X167943306Y-102531694D01*
X167939187Y-102527150D01*
X167935533Y-102522223D01*
X167932380Y-102516962D01*
X167929758Y-102511418D01*
X167927691Y-102505643D01*
X167926201Y-102499693D01*
X167925301Y-102493626D01*
X167925000Y-102487500D01*
X167925000Y-101787500D01*
X167925301Y-101781374D01*
X167926201Y-101775307D01*
X167927691Y-101769357D01*
X167929758Y-101763582D01*
X167932380Y-101758038D01*
X167935533Y-101752777D01*
X167939187Y-101747850D01*
X167943306Y-101743306D01*
X167947850Y-101739187D01*
X167952777Y-101735533D01*
X167958038Y-101732380D01*
X167963582Y-101729758D01*
X167969357Y-101727691D01*
X167975307Y-101726201D01*
X167981374Y-101725301D01*
X167987500Y-101725000D01*
X168112500Y-101725000D01*
X168118626Y-101725301D01*
X168118626Y-101725301D01*
G37*
D17*
G04 #@! TD*
G04 #@! TO.P,U1,1*
G04 #@! TO.N,/temp1p*
X168050000Y-102137500D03*
D15*
G04 #@! TO.N,/temp1n*
G04 #@! TO.C,U1*
G36*
X167618626Y-101725301D02*
X167624693Y-101726201D01*
X167630643Y-101727691D01*
X167636418Y-101729758D01*
X167641962Y-101732380D01*
X167647223Y-101735533D01*
X167652150Y-101739187D01*
X167656694Y-101743306D01*
X167660813Y-101747850D01*
X167664467Y-101752777D01*
X167667620Y-101758038D01*
X167670242Y-101763582D01*
X167672309Y-101769357D01*
X167673799Y-101775307D01*
X167674699Y-101781374D01*
X167675000Y-101787500D01*
X167675000Y-102487500D01*
X167674699Y-102493626D01*
X167673799Y-102499693D01*
X167672309Y-102505643D01*
X167670242Y-102511418D01*
X167667620Y-102516962D01*
X167664467Y-102522223D01*
X167660813Y-102527150D01*
X167656694Y-102531694D01*
X167652150Y-102535813D01*
X167647223Y-102539467D01*
X167641962Y-102542620D01*
X167636418Y-102545242D01*
X167630643Y-102547309D01*
X167624693Y-102548799D01*
X167618626Y-102549699D01*
X167612500Y-102550000D01*
X167487500Y-102550000D01*
X167481374Y-102549699D01*
X167475307Y-102548799D01*
X167469357Y-102547309D01*
X167463582Y-102545242D01*
X167458038Y-102542620D01*
X167452777Y-102539467D01*
X167447850Y-102535813D01*
X167443306Y-102531694D01*
X167439187Y-102527150D01*
X167435533Y-102522223D01*
X167432380Y-102516962D01*
X167429758Y-102511418D01*
X167427691Y-102505643D01*
X167426201Y-102499693D01*
X167425301Y-102493626D01*
X167425000Y-102487500D01*
X167425000Y-101787500D01*
X167425301Y-101781374D01*
X167426201Y-101775307D01*
X167427691Y-101769357D01*
X167429758Y-101763582D01*
X167432380Y-101758038D01*
X167435533Y-101752777D01*
X167439187Y-101747850D01*
X167443306Y-101743306D01*
X167447850Y-101739187D01*
X167452777Y-101735533D01*
X167458038Y-101732380D01*
X167463582Y-101729758D01*
X167469357Y-101727691D01*
X167475307Y-101726201D01*
X167481374Y-101725301D01*
X167487500Y-101725000D01*
X167612500Y-101725000D01*
X167618626Y-101725301D01*
X167618626Y-101725301D01*
G37*
D17*
G04 #@! TD*
G04 #@! TO.P,U1,2*
G04 #@! TO.N,/temp1n*
X167550000Y-102137500D03*
D15*
G04 #@! TO.N,/temp2p*
G04 #@! TO.C,U1*
G36*
X167118626Y-101725301D02*
X167124693Y-101726201D01*
X167130643Y-101727691D01*
X167136418Y-101729758D01*
X167141962Y-101732380D01*
X167147223Y-101735533D01*
X167152150Y-101739187D01*
X167156694Y-101743306D01*
X167160813Y-101747850D01*
X167164467Y-101752777D01*
X167167620Y-101758038D01*
X167170242Y-101763582D01*
X167172309Y-101769357D01*
X167173799Y-101775307D01*
X167174699Y-101781374D01*
X167175000Y-101787500D01*
X167175000Y-102487500D01*
X167174699Y-102493626D01*
X167173799Y-102499693D01*
X167172309Y-102505643D01*
X167170242Y-102511418D01*
X167167620Y-102516962D01*
X167164467Y-102522223D01*
X167160813Y-102527150D01*
X167156694Y-102531694D01*
X167152150Y-102535813D01*
X167147223Y-102539467D01*
X167141962Y-102542620D01*
X167136418Y-102545242D01*
X167130643Y-102547309D01*
X167124693Y-102548799D01*
X167118626Y-102549699D01*
X167112500Y-102550000D01*
X166987500Y-102550000D01*
X166981374Y-102549699D01*
X166975307Y-102548799D01*
X166969357Y-102547309D01*
X166963582Y-102545242D01*
X166958038Y-102542620D01*
X166952777Y-102539467D01*
X166947850Y-102535813D01*
X166943306Y-102531694D01*
X166939187Y-102527150D01*
X166935533Y-102522223D01*
X166932380Y-102516962D01*
X166929758Y-102511418D01*
X166927691Y-102505643D01*
X166926201Y-102499693D01*
X166925301Y-102493626D01*
X166925000Y-102487500D01*
X166925000Y-101787500D01*
X166925301Y-101781374D01*
X166926201Y-101775307D01*
X166927691Y-101769357D01*
X166929758Y-101763582D01*
X166932380Y-101758038D01*
X166935533Y-101752777D01*
X166939187Y-101747850D01*
X166943306Y-101743306D01*
X166947850Y-101739187D01*
X166952777Y-101735533D01*
X166958038Y-101732380D01*
X166963582Y-101729758D01*
X166969357Y-101727691D01*
X166975307Y-101726201D01*
X166981374Y-101725301D01*
X166987500Y-101725000D01*
X167112500Y-101725000D01*
X167118626Y-101725301D01*
X167118626Y-101725301D01*
G37*
D17*
G04 #@! TD*
G04 #@! TO.P,U1,3*
G04 #@! TO.N,/temp2p*
X167050000Y-102137500D03*
D15*
G04 #@! TO.N,/temp2n*
G04 #@! TO.C,U1*
G36*
X166618626Y-101725301D02*
X166624693Y-101726201D01*
X166630643Y-101727691D01*
X166636418Y-101729758D01*
X166641962Y-101732380D01*
X166647223Y-101735533D01*
X166652150Y-101739187D01*
X166656694Y-101743306D01*
X166660813Y-101747850D01*
X166664467Y-101752777D01*
X166667620Y-101758038D01*
X166670242Y-101763582D01*
X166672309Y-101769357D01*
X166673799Y-101775307D01*
X166674699Y-101781374D01*
X166675000Y-101787500D01*
X166675000Y-102487500D01*
X166674699Y-102493626D01*
X166673799Y-102499693D01*
X166672309Y-102505643D01*
X166670242Y-102511418D01*
X166667620Y-102516962D01*
X166664467Y-102522223D01*
X166660813Y-102527150D01*
X166656694Y-102531694D01*
X166652150Y-102535813D01*
X166647223Y-102539467D01*
X166641962Y-102542620D01*
X166636418Y-102545242D01*
X166630643Y-102547309D01*
X166624693Y-102548799D01*
X166618626Y-102549699D01*
X166612500Y-102550000D01*
X166487500Y-102550000D01*
X166481374Y-102549699D01*
X166475307Y-102548799D01*
X166469357Y-102547309D01*
X166463582Y-102545242D01*
X166458038Y-102542620D01*
X166452777Y-102539467D01*
X166447850Y-102535813D01*
X166443306Y-102531694D01*
X166439187Y-102527150D01*
X166435533Y-102522223D01*
X166432380Y-102516962D01*
X166429758Y-102511418D01*
X166427691Y-102505643D01*
X166426201Y-102499693D01*
X166425301Y-102493626D01*
X166425000Y-102487500D01*
X166425000Y-101787500D01*
X166425301Y-101781374D01*
X166426201Y-101775307D01*
X166427691Y-101769357D01*
X166429758Y-101763582D01*
X166432380Y-101758038D01*
X166435533Y-101752777D01*
X166439187Y-101747850D01*
X166443306Y-101743306D01*
X166447850Y-101739187D01*
X166452777Y-101735533D01*
X166458038Y-101732380D01*
X166463582Y-101729758D01*
X166469357Y-101727691D01*
X166475307Y-101726201D01*
X166481374Y-101725301D01*
X166487500Y-101725000D01*
X166612500Y-101725000D01*
X166618626Y-101725301D01*
X166618626Y-101725301D01*
G37*
D17*
G04 #@! TD*
G04 #@! TO.P,U1,4*
G04 #@! TO.N,/temp2n*
X166550000Y-102137500D03*
D15*
G04 #@! TO.N,Net-(C5-Pad2)*
G04 #@! TO.C,U1*
G36*
X166118626Y-101725301D02*
X166124693Y-101726201D01*
X166130643Y-101727691D01*
X166136418Y-101729758D01*
X166141962Y-101732380D01*
X166147223Y-101735533D01*
X166152150Y-101739187D01*
X166156694Y-101743306D01*
X166160813Y-101747850D01*
X166164467Y-101752777D01*
X166167620Y-101758038D01*
X166170242Y-101763582D01*
X166172309Y-101769357D01*
X166173799Y-101775307D01*
X166174699Y-101781374D01*
X166175000Y-101787500D01*
X166175000Y-102487500D01*
X166174699Y-102493626D01*
X166173799Y-102499693D01*
X166172309Y-102505643D01*
X166170242Y-102511418D01*
X166167620Y-102516962D01*
X166164467Y-102522223D01*
X166160813Y-102527150D01*
X166156694Y-102531694D01*
X166152150Y-102535813D01*
X166147223Y-102539467D01*
X166141962Y-102542620D01*
X166136418Y-102545242D01*
X166130643Y-102547309D01*
X166124693Y-102548799D01*
X166118626Y-102549699D01*
X166112500Y-102550000D01*
X165987500Y-102550000D01*
X165981374Y-102549699D01*
X165975307Y-102548799D01*
X165969357Y-102547309D01*
X165963582Y-102545242D01*
X165958038Y-102542620D01*
X165952777Y-102539467D01*
X165947850Y-102535813D01*
X165943306Y-102531694D01*
X165939187Y-102527150D01*
X165935533Y-102522223D01*
X165932380Y-102516962D01*
X165929758Y-102511418D01*
X165927691Y-102505643D01*
X165926201Y-102499693D01*
X165925301Y-102493626D01*
X165925000Y-102487500D01*
X165925000Y-101787500D01*
X165925301Y-101781374D01*
X165926201Y-101775307D01*
X165927691Y-101769357D01*
X165929758Y-101763582D01*
X165932380Y-101758038D01*
X165935533Y-101752777D01*
X165939187Y-101747850D01*
X165943306Y-101743306D01*
X165947850Y-101739187D01*
X165952777Y-101735533D01*
X165958038Y-101732380D01*
X165963582Y-101729758D01*
X165969357Y-101727691D01*
X165975307Y-101726201D01*
X165981374Y-101725301D01*
X165987500Y-101725000D01*
X166112500Y-101725000D01*
X166118626Y-101725301D01*
X166118626Y-101725301D01*
G37*
D17*
G04 #@! TD*
G04 #@! TO.P,U1,5*
G04 #@! TO.N,Net-(C5-Pad2)*
X166050000Y-102137500D03*
D15*
G04 #@! TO.N,Net-(U1-Pad6)*
G04 #@! TO.C,U1*
G36*
X165618626Y-101725301D02*
X165624693Y-101726201D01*
X165630643Y-101727691D01*
X165636418Y-101729758D01*
X165641962Y-101732380D01*
X165647223Y-101735533D01*
X165652150Y-101739187D01*
X165656694Y-101743306D01*
X165660813Y-101747850D01*
X165664467Y-101752777D01*
X165667620Y-101758038D01*
X165670242Y-101763582D01*
X165672309Y-101769357D01*
X165673799Y-101775307D01*
X165674699Y-101781374D01*
X165675000Y-101787500D01*
X165675000Y-102487500D01*
X165674699Y-102493626D01*
X165673799Y-102499693D01*
X165672309Y-102505643D01*
X165670242Y-102511418D01*
X165667620Y-102516962D01*
X165664467Y-102522223D01*
X165660813Y-102527150D01*
X165656694Y-102531694D01*
X165652150Y-102535813D01*
X165647223Y-102539467D01*
X165641962Y-102542620D01*
X165636418Y-102545242D01*
X165630643Y-102547309D01*
X165624693Y-102548799D01*
X165618626Y-102549699D01*
X165612500Y-102550000D01*
X165487500Y-102550000D01*
X165481374Y-102549699D01*
X165475307Y-102548799D01*
X165469357Y-102547309D01*
X165463582Y-102545242D01*
X165458038Y-102542620D01*
X165452777Y-102539467D01*
X165447850Y-102535813D01*
X165443306Y-102531694D01*
X165439187Y-102527150D01*
X165435533Y-102522223D01*
X165432380Y-102516962D01*
X165429758Y-102511418D01*
X165427691Y-102505643D01*
X165426201Y-102499693D01*
X165425301Y-102493626D01*
X165425000Y-102487500D01*
X165425000Y-101787500D01*
X165425301Y-101781374D01*
X165426201Y-101775307D01*
X165427691Y-101769357D01*
X165429758Y-101763582D01*
X165432380Y-101758038D01*
X165435533Y-101752777D01*
X165439187Y-101747850D01*
X165443306Y-101743306D01*
X165447850Y-101739187D01*
X165452777Y-101735533D01*
X165458038Y-101732380D01*
X165463582Y-101729758D01*
X165469357Y-101727691D01*
X165475307Y-101726201D01*
X165481374Y-101725301D01*
X165487500Y-101725000D01*
X165612500Y-101725000D01*
X165618626Y-101725301D01*
X165618626Y-101725301D01*
G37*
D17*
G04 #@! TD*
G04 #@! TO.P,U1,6*
G04 #@! TO.N,Net-(U1-Pad6)*
X165550000Y-102137500D03*
D15*
G04 #@! TO.N,Net-(C5-Pad1)*
G04 #@! TO.C,U1*
G36*
X165193626Y-102725301D02*
X165199693Y-102726201D01*
X165205643Y-102727691D01*
X165211418Y-102729758D01*
X165216962Y-102732380D01*
X165222223Y-102735533D01*
X165227150Y-102739187D01*
X165231694Y-102743306D01*
X165235813Y-102747850D01*
X165239467Y-102752777D01*
X165242620Y-102758038D01*
X165245242Y-102763582D01*
X165247309Y-102769357D01*
X165248799Y-102775307D01*
X165249699Y-102781374D01*
X165250000Y-102787500D01*
X165250000Y-102912500D01*
X165249699Y-102918626D01*
X165248799Y-102924693D01*
X165247309Y-102930643D01*
X165245242Y-102936418D01*
X165242620Y-102941962D01*
X165239467Y-102947223D01*
X165235813Y-102952150D01*
X165231694Y-102956694D01*
X165227150Y-102960813D01*
X165222223Y-102964467D01*
X165216962Y-102967620D01*
X165211418Y-102970242D01*
X165205643Y-102972309D01*
X165199693Y-102973799D01*
X165193626Y-102974699D01*
X165187500Y-102975000D01*
X164487500Y-102975000D01*
X164481374Y-102974699D01*
X164475307Y-102973799D01*
X164469357Y-102972309D01*
X164463582Y-102970242D01*
X164458038Y-102967620D01*
X164452777Y-102964467D01*
X164447850Y-102960813D01*
X164443306Y-102956694D01*
X164439187Y-102952150D01*
X164435533Y-102947223D01*
X164432380Y-102941962D01*
X164429758Y-102936418D01*
X164427691Y-102930643D01*
X164426201Y-102924693D01*
X164425301Y-102918626D01*
X164425000Y-102912500D01*
X164425000Y-102787500D01*
X164425301Y-102781374D01*
X164426201Y-102775307D01*
X164427691Y-102769357D01*
X164429758Y-102763582D01*
X164432380Y-102758038D01*
X164435533Y-102752777D01*
X164439187Y-102747850D01*
X164443306Y-102743306D01*
X164447850Y-102739187D01*
X164452777Y-102735533D01*
X164458038Y-102732380D01*
X164463582Y-102729758D01*
X164469357Y-102727691D01*
X164475307Y-102726201D01*
X164481374Y-102725301D01*
X164487500Y-102725000D01*
X165187500Y-102725000D01*
X165193626Y-102725301D01*
X165193626Y-102725301D01*
G37*
D17*
G04 #@! TD*
G04 #@! TO.P,U1,7*
G04 #@! TO.N,Net-(C5-Pad1)*
X164837500Y-102850000D03*
D15*
G04 #@! TO.N,Net-(C8-Pad1)*
G04 #@! TO.C,U1*
G36*
X165193626Y-103225301D02*
X165199693Y-103226201D01*
X165205643Y-103227691D01*
X165211418Y-103229758D01*
X165216962Y-103232380D01*
X165222223Y-103235533D01*
X165227150Y-103239187D01*
X165231694Y-103243306D01*
X165235813Y-103247850D01*
X165239467Y-103252777D01*
X165242620Y-103258038D01*
X165245242Y-103263582D01*
X165247309Y-103269357D01*
X165248799Y-103275307D01*
X165249699Y-103281374D01*
X165250000Y-103287500D01*
X165250000Y-103412500D01*
X165249699Y-103418626D01*
X165248799Y-103424693D01*
X165247309Y-103430643D01*
X165245242Y-103436418D01*
X165242620Y-103441962D01*
X165239467Y-103447223D01*
X165235813Y-103452150D01*
X165231694Y-103456694D01*
X165227150Y-103460813D01*
X165222223Y-103464467D01*
X165216962Y-103467620D01*
X165211418Y-103470242D01*
X165205643Y-103472309D01*
X165199693Y-103473799D01*
X165193626Y-103474699D01*
X165187500Y-103475000D01*
X164487500Y-103475000D01*
X164481374Y-103474699D01*
X164475307Y-103473799D01*
X164469357Y-103472309D01*
X164463582Y-103470242D01*
X164458038Y-103467620D01*
X164452777Y-103464467D01*
X164447850Y-103460813D01*
X164443306Y-103456694D01*
X164439187Y-103452150D01*
X164435533Y-103447223D01*
X164432380Y-103441962D01*
X164429758Y-103436418D01*
X164427691Y-103430643D01*
X164426201Y-103424693D01*
X164425301Y-103418626D01*
X164425000Y-103412500D01*
X164425000Y-103287500D01*
X164425301Y-103281374D01*
X164426201Y-103275307D01*
X164427691Y-103269357D01*
X164429758Y-103263582D01*
X164432380Y-103258038D01*
X164435533Y-103252777D01*
X164439187Y-103247850D01*
X164443306Y-103243306D01*
X164447850Y-103239187D01*
X164452777Y-103235533D01*
X164458038Y-103232380D01*
X164463582Y-103229758D01*
X164469357Y-103227691D01*
X164475307Y-103226201D01*
X164481374Y-103225301D01*
X164487500Y-103225000D01*
X165187500Y-103225000D01*
X165193626Y-103225301D01*
X165193626Y-103225301D01*
G37*
D17*
G04 #@! TD*
G04 #@! TO.P,U1,8*
G04 #@! TO.N,Net-(C8-Pad1)*
X164837500Y-103350000D03*
D15*
G04 #@! TO.N,Net-(C8-Pad2)*
G04 #@! TO.C,U1*
G36*
X165193626Y-103725301D02*
X165199693Y-103726201D01*
X165205643Y-103727691D01*
X165211418Y-103729758D01*
X165216962Y-103732380D01*
X165222223Y-103735533D01*
X165227150Y-103739187D01*
X165231694Y-103743306D01*
X165235813Y-103747850D01*
X165239467Y-103752777D01*
X165242620Y-103758038D01*
X165245242Y-103763582D01*
X165247309Y-103769357D01*
X165248799Y-103775307D01*
X165249699Y-103781374D01*
X165250000Y-103787500D01*
X165250000Y-103912500D01*
X165249699Y-103918626D01*
X165248799Y-103924693D01*
X165247309Y-103930643D01*
X165245242Y-103936418D01*
X165242620Y-103941962D01*
X165239467Y-103947223D01*
X165235813Y-103952150D01*
X165231694Y-103956694D01*
X165227150Y-103960813D01*
X165222223Y-103964467D01*
X165216962Y-103967620D01*
X165211418Y-103970242D01*
X165205643Y-103972309D01*
X165199693Y-103973799D01*
X165193626Y-103974699D01*
X165187500Y-103975000D01*
X164487500Y-103975000D01*
X164481374Y-103974699D01*
X164475307Y-103973799D01*
X164469357Y-103972309D01*
X164463582Y-103970242D01*
X164458038Y-103967620D01*
X164452777Y-103964467D01*
X164447850Y-103960813D01*
X164443306Y-103956694D01*
X164439187Y-103952150D01*
X164435533Y-103947223D01*
X164432380Y-103941962D01*
X164429758Y-103936418D01*
X164427691Y-103930643D01*
X164426201Y-103924693D01*
X164425301Y-103918626D01*
X164425000Y-103912500D01*
X164425000Y-103787500D01*
X164425301Y-103781374D01*
X164426201Y-103775307D01*
X164427691Y-103769357D01*
X164429758Y-103763582D01*
X164432380Y-103758038D01*
X164435533Y-103752777D01*
X164439187Y-103747850D01*
X164443306Y-103743306D01*
X164447850Y-103739187D01*
X164452777Y-103735533D01*
X164458038Y-103732380D01*
X164463582Y-103729758D01*
X164469357Y-103727691D01*
X164475307Y-103726201D01*
X164481374Y-103725301D01*
X164487500Y-103725000D01*
X165187500Y-103725000D01*
X165193626Y-103725301D01*
X165193626Y-103725301D01*
G37*
D17*
G04 #@! TD*
G04 #@! TO.P,U1,9*
G04 #@! TO.N,Net-(C8-Pad2)*
X164837500Y-103850000D03*
D15*
G04 #@! TO.N,Net-(C7-Pad1)*
G04 #@! TO.C,U1*
G36*
X165193626Y-104225301D02*
X165199693Y-104226201D01*
X165205643Y-104227691D01*
X165211418Y-104229758D01*
X165216962Y-104232380D01*
X165222223Y-104235533D01*
X165227150Y-104239187D01*
X165231694Y-104243306D01*
X165235813Y-104247850D01*
X165239467Y-104252777D01*
X165242620Y-104258038D01*
X165245242Y-104263582D01*
X165247309Y-104269357D01*
X165248799Y-104275307D01*
X165249699Y-104281374D01*
X165250000Y-104287500D01*
X165250000Y-104412500D01*
X165249699Y-104418626D01*
X165248799Y-104424693D01*
X165247309Y-104430643D01*
X165245242Y-104436418D01*
X165242620Y-104441962D01*
X165239467Y-104447223D01*
X165235813Y-104452150D01*
X165231694Y-104456694D01*
X165227150Y-104460813D01*
X165222223Y-104464467D01*
X165216962Y-104467620D01*
X165211418Y-104470242D01*
X165205643Y-104472309D01*
X165199693Y-104473799D01*
X165193626Y-104474699D01*
X165187500Y-104475000D01*
X164487500Y-104475000D01*
X164481374Y-104474699D01*
X164475307Y-104473799D01*
X164469357Y-104472309D01*
X164463582Y-104470242D01*
X164458038Y-104467620D01*
X164452777Y-104464467D01*
X164447850Y-104460813D01*
X164443306Y-104456694D01*
X164439187Y-104452150D01*
X164435533Y-104447223D01*
X164432380Y-104441962D01*
X164429758Y-104436418D01*
X164427691Y-104430643D01*
X164426201Y-104424693D01*
X164425301Y-104418626D01*
X164425000Y-104412500D01*
X164425000Y-104287500D01*
X164425301Y-104281374D01*
X164426201Y-104275307D01*
X164427691Y-104269357D01*
X164429758Y-104263582D01*
X164432380Y-104258038D01*
X164435533Y-104252777D01*
X164439187Y-104247850D01*
X164443306Y-104243306D01*
X164447850Y-104239187D01*
X164452777Y-104235533D01*
X164458038Y-104232380D01*
X164463582Y-104229758D01*
X164469357Y-104227691D01*
X164475307Y-104226201D01*
X164481374Y-104225301D01*
X164487500Y-104225000D01*
X165187500Y-104225000D01*
X165193626Y-104225301D01*
X165193626Y-104225301D01*
G37*
D17*
G04 #@! TD*
G04 #@! TO.P,U1,10*
G04 #@! TO.N,Net-(C7-Pad1)*
X164837500Y-104350000D03*
D15*
G04 #@! TO.N,Net-(C7-Pad2)*
G04 #@! TO.C,U1*
G36*
X165193626Y-104725301D02*
X165199693Y-104726201D01*
X165205643Y-104727691D01*
X165211418Y-104729758D01*
X165216962Y-104732380D01*
X165222223Y-104735533D01*
X165227150Y-104739187D01*
X165231694Y-104743306D01*
X165235813Y-104747850D01*
X165239467Y-104752777D01*
X165242620Y-104758038D01*
X165245242Y-104763582D01*
X165247309Y-104769357D01*
X165248799Y-104775307D01*
X165249699Y-104781374D01*
X165250000Y-104787500D01*
X165250000Y-104912500D01*
X165249699Y-104918626D01*
X165248799Y-104924693D01*
X165247309Y-104930643D01*
X165245242Y-104936418D01*
X165242620Y-104941962D01*
X165239467Y-104947223D01*
X165235813Y-104952150D01*
X165231694Y-104956694D01*
X165227150Y-104960813D01*
X165222223Y-104964467D01*
X165216962Y-104967620D01*
X165211418Y-104970242D01*
X165205643Y-104972309D01*
X165199693Y-104973799D01*
X165193626Y-104974699D01*
X165187500Y-104975000D01*
X164487500Y-104975000D01*
X164481374Y-104974699D01*
X164475307Y-104973799D01*
X164469357Y-104972309D01*
X164463582Y-104970242D01*
X164458038Y-104967620D01*
X164452777Y-104964467D01*
X164447850Y-104960813D01*
X164443306Y-104956694D01*
X164439187Y-104952150D01*
X164435533Y-104947223D01*
X164432380Y-104941962D01*
X164429758Y-104936418D01*
X164427691Y-104930643D01*
X164426201Y-104924693D01*
X164425301Y-104918626D01*
X164425000Y-104912500D01*
X164425000Y-104787500D01*
X164425301Y-104781374D01*
X164426201Y-104775307D01*
X164427691Y-104769357D01*
X164429758Y-104763582D01*
X164432380Y-104758038D01*
X164435533Y-104752777D01*
X164439187Y-104747850D01*
X164443306Y-104743306D01*
X164447850Y-104739187D01*
X164452777Y-104735533D01*
X164458038Y-104732380D01*
X164463582Y-104729758D01*
X164469357Y-104727691D01*
X164475307Y-104726201D01*
X164481374Y-104725301D01*
X164487500Y-104725000D01*
X165187500Y-104725000D01*
X165193626Y-104725301D01*
X165193626Y-104725301D01*
G37*
D17*
G04 #@! TD*
G04 #@! TO.P,U1,11*
G04 #@! TO.N,Net-(C7-Pad2)*
X164837500Y-104850000D03*
D15*
G04 #@! TO.N,Net-(C6-Pad1)*
G04 #@! TO.C,U1*
G36*
X165193626Y-105225301D02*
X165199693Y-105226201D01*
X165205643Y-105227691D01*
X165211418Y-105229758D01*
X165216962Y-105232380D01*
X165222223Y-105235533D01*
X165227150Y-105239187D01*
X165231694Y-105243306D01*
X165235813Y-105247850D01*
X165239467Y-105252777D01*
X165242620Y-105258038D01*
X165245242Y-105263582D01*
X165247309Y-105269357D01*
X165248799Y-105275307D01*
X165249699Y-105281374D01*
X165250000Y-105287500D01*
X165250000Y-105412500D01*
X165249699Y-105418626D01*
X165248799Y-105424693D01*
X165247309Y-105430643D01*
X165245242Y-105436418D01*
X165242620Y-105441962D01*
X165239467Y-105447223D01*
X165235813Y-105452150D01*
X165231694Y-105456694D01*
X165227150Y-105460813D01*
X165222223Y-105464467D01*
X165216962Y-105467620D01*
X165211418Y-105470242D01*
X165205643Y-105472309D01*
X165199693Y-105473799D01*
X165193626Y-105474699D01*
X165187500Y-105475000D01*
X164487500Y-105475000D01*
X164481374Y-105474699D01*
X164475307Y-105473799D01*
X164469357Y-105472309D01*
X164463582Y-105470242D01*
X164458038Y-105467620D01*
X164452777Y-105464467D01*
X164447850Y-105460813D01*
X164443306Y-105456694D01*
X164439187Y-105452150D01*
X164435533Y-105447223D01*
X164432380Y-105441962D01*
X164429758Y-105436418D01*
X164427691Y-105430643D01*
X164426201Y-105424693D01*
X164425301Y-105418626D01*
X164425000Y-105412500D01*
X164425000Y-105287500D01*
X164425301Y-105281374D01*
X164426201Y-105275307D01*
X164427691Y-105269357D01*
X164429758Y-105263582D01*
X164432380Y-105258038D01*
X164435533Y-105252777D01*
X164439187Y-105247850D01*
X164443306Y-105243306D01*
X164447850Y-105239187D01*
X164452777Y-105235533D01*
X164458038Y-105232380D01*
X164463582Y-105229758D01*
X164469357Y-105227691D01*
X164475307Y-105226201D01*
X164481374Y-105225301D01*
X164487500Y-105225000D01*
X165187500Y-105225000D01*
X165193626Y-105225301D01*
X165193626Y-105225301D01*
G37*
D17*
G04 #@! TD*
G04 #@! TO.P,U1,12*
G04 #@! TO.N,Net-(C6-Pad1)*
X164837500Y-105350000D03*
D15*
G04 #@! TO.N,Net-(C6-Pad2)*
G04 #@! TO.C,U1*
G36*
X165618626Y-105650301D02*
X165624693Y-105651201D01*
X165630643Y-105652691D01*
X165636418Y-105654758D01*
X165641962Y-105657380D01*
X165647223Y-105660533D01*
X165652150Y-105664187D01*
X165656694Y-105668306D01*
X165660813Y-105672850D01*
X165664467Y-105677777D01*
X165667620Y-105683038D01*
X165670242Y-105688582D01*
X165672309Y-105694357D01*
X165673799Y-105700307D01*
X165674699Y-105706374D01*
X165675000Y-105712500D01*
X165675000Y-106412500D01*
X165674699Y-106418626D01*
X165673799Y-106424693D01*
X165672309Y-106430643D01*
X165670242Y-106436418D01*
X165667620Y-106441962D01*
X165664467Y-106447223D01*
X165660813Y-106452150D01*
X165656694Y-106456694D01*
X165652150Y-106460813D01*
X165647223Y-106464467D01*
X165641962Y-106467620D01*
X165636418Y-106470242D01*
X165630643Y-106472309D01*
X165624693Y-106473799D01*
X165618626Y-106474699D01*
X165612500Y-106475000D01*
X165487500Y-106475000D01*
X165481374Y-106474699D01*
X165475307Y-106473799D01*
X165469357Y-106472309D01*
X165463582Y-106470242D01*
X165458038Y-106467620D01*
X165452777Y-106464467D01*
X165447850Y-106460813D01*
X165443306Y-106456694D01*
X165439187Y-106452150D01*
X165435533Y-106447223D01*
X165432380Y-106441962D01*
X165429758Y-106436418D01*
X165427691Y-106430643D01*
X165426201Y-106424693D01*
X165425301Y-106418626D01*
X165425000Y-106412500D01*
X165425000Y-105712500D01*
X165425301Y-105706374D01*
X165426201Y-105700307D01*
X165427691Y-105694357D01*
X165429758Y-105688582D01*
X165432380Y-105683038D01*
X165435533Y-105677777D01*
X165439187Y-105672850D01*
X165443306Y-105668306D01*
X165447850Y-105664187D01*
X165452777Y-105660533D01*
X165458038Y-105657380D01*
X165463582Y-105654758D01*
X165469357Y-105652691D01*
X165475307Y-105651201D01*
X165481374Y-105650301D01*
X165487500Y-105650000D01*
X165612500Y-105650000D01*
X165618626Y-105650301D01*
X165618626Y-105650301D01*
G37*
D17*
G04 #@! TD*
G04 #@! TO.P,U1,13*
G04 #@! TO.N,Net-(C6-Pad2)*
X165550000Y-106062500D03*
D15*
G04 #@! TO.N,+5VP*
G04 #@! TO.C,U1*
G36*
X166118626Y-105650301D02*
X166124693Y-105651201D01*
X166130643Y-105652691D01*
X166136418Y-105654758D01*
X166141962Y-105657380D01*
X166147223Y-105660533D01*
X166152150Y-105664187D01*
X166156694Y-105668306D01*
X166160813Y-105672850D01*
X166164467Y-105677777D01*
X166167620Y-105683038D01*
X166170242Y-105688582D01*
X166172309Y-105694357D01*
X166173799Y-105700307D01*
X166174699Y-105706374D01*
X166175000Y-105712500D01*
X166175000Y-106412500D01*
X166174699Y-106418626D01*
X166173799Y-106424693D01*
X166172309Y-106430643D01*
X166170242Y-106436418D01*
X166167620Y-106441962D01*
X166164467Y-106447223D01*
X166160813Y-106452150D01*
X166156694Y-106456694D01*
X166152150Y-106460813D01*
X166147223Y-106464467D01*
X166141962Y-106467620D01*
X166136418Y-106470242D01*
X166130643Y-106472309D01*
X166124693Y-106473799D01*
X166118626Y-106474699D01*
X166112500Y-106475000D01*
X165987500Y-106475000D01*
X165981374Y-106474699D01*
X165975307Y-106473799D01*
X165969357Y-106472309D01*
X165963582Y-106470242D01*
X165958038Y-106467620D01*
X165952777Y-106464467D01*
X165947850Y-106460813D01*
X165943306Y-106456694D01*
X165939187Y-106452150D01*
X165935533Y-106447223D01*
X165932380Y-106441962D01*
X165929758Y-106436418D01*
X165927691Y-106430643D01*
X165926201Y-106424693D01*
X165925301Y-106418626D01*
X165925000Y-106412500D01*
X165925000Y-105712500D01*
X165925301Y-105706374D01*
X165926201Y-105700307D01*
X165927691Y-105694357D01*
X165929758Y-105688582D01*
X165932380Y-105683038D01*
X165935533Y-105677777D01*
X165939187Y-105672850D01*
X165943306Y-105668306D01*
X165947850Y-105664187D01*
X165952777Y-105660533D01*
X165958038Y-105657380D01*
X165963582Y-105654758D01*
X165969357Y-105652691D01*
X165975307Y-105651201D01*
X165981374Y-105650301D01*
X165987500Y-105650000D01*
X166112500Y-105650000D01*
X166118626Y-105650301D01*
X166118626Y-105650301D01*
G37*
D17*
G04 #@! TD*
G04 #@! TO.P,U1,14*
G04 #@! TO.N,+5VP*
X166050000Y-106062500D03*
D15*
G04 #@! TO.N,+5VP*
G04 #@! TO.C,U1*
G36*
X166618626Y-105650301D02*
X166624693Y-105651201D01*
X166630643Y-105652691D01*
X166636418Y-105654758D01*
X166641962Y-105657380D01*
X166647223Y-105660533D01*
X166652150Y-105664187D01*
X166656694Y-105668306D01*
X166660813Y-105672850D01*
X166664467Y-105677777D01*
X166667620Y-105683038D01*
X166670242Y-105688582D01*
X166672309Y-105694357D01*
X166673799Y-105700307D01*
X166674699Y-105706374D01*
X166675000Y-105712500D01*
X166675000Y-106412500D01*
X166674699Y-106418626D01*
X166673799Y-106424693D01*
X166672309Y-106430643D01*
X166670242Y-106436418D01*
X166667620Y-106441962D01*
X166664467Y-106447223D01*
X166660813Y-106452150D01*
X166656694Y-106456694D01*
X166652150Y-106460813D01*
X166647223Y-106464467D01*
X166641962Y-106467620D01*
X166636418Y-106470242D01*
X166630643Y-106472309D01*
X166624693Y-106473799D01*
X166618626Y-106474699D01*
X166612500Y-106475000D01*
X166487500Y-106475000D01*
X166481374Y-106474699D01*
X166475307Y-106473799D01*
X166469357Y-106472309D01*
X166463582Y-106470242D01*
X166458038Y-106467620D01*
X166452777Y-106464467D01*
X166447850Y-106460813D01*
X166443306Y-106456694D01*
X166439187Y-106452150D01*
X166435533Y-106447223D01*
X166432380Y-106441962D01*
X166429758Y-106436418D01*
X166427691Y-106430643D01*
X166426201Y-106424693D01*
X166425301Y-106418626D01*
X166425000Y-106412500D01*
X166425000Y-105712500D01*
X166425301Y-105706374D01*
X166426201Y-105700307D01*
X166427691Y-105694357D01*
X166429758Y-105688582D01*
X166432380Y-105683038D01*
X166435533Y-105677777D01*
X166439187Y-105672850D01*
X166443306Y-105668306D01*
X166447850Y-105664187D01*
X166452777Y-105660533D01*
X166458038Y-105657380D01*
X166463582Y-105654758D01*
X166469357Y-105652691D01*
X166475307Y-105651201D01*
X166481374Y-105650301D01*
X166487500Y-105650000D01*
X166612500Y-105650000D01*
X166618626Y-105650301D01*
X166618626Y-105650301D01*
G37*
D17*
G04 #@! TD*
G04 #@! TO.P,U1,15*
G04 #@! TO.N,+5VP*
X166550000Y-106062500D03*
D15*
G04 #@! TO.N,Net-(U1-Pad16)*
G04 #@! TO.C,U1*
G36*
X167118626Y-105650301D02*
X167124693Y-105651201D01*
X167130643Y-105652691D01*
X167136418Y-105654758D01*
X167141962Y-105657380D01*
X167147223Y-105660533D01*
X167152150Y-105664187D01*
X167156694Y-105668306D01*
X167160813Y-105672850D01*
X167164467Y-105677777D01*
X167167620Y-105683038D01*
X167170242Y-105688582D01*
X167172309Y-105694357D01*
X167173799Y-105700307D01*
X167174699Y-105706374D01*
X167175000Y-105712500D01*
X167175000Y-106412500D01*
X167174699Y-106418626D01*
X167173799Y-106424693D01*
X167172309Y-106430643D01*
X167170242Y-106436418D01*
X167167620Y-106441962D01*
X167164467Y-106447223D01*
X167160813Y-106452150D01*
X167156694Y-106456694D01*
X167152150Y-106460813D01*
X167147223Y-106464467D01*
X167141962Y-106467620D01*
X167136418Y-106470242D01*
X167130643Y-106472309D01*
X167124693Y-106473799D01*
X167118626Y-106474699D01*
X167112500Y-106475000D01*
X166987500Y-106475000D01*
X166981374Y-106474699D01*
X166975307Y-106473799D01*
X166969357Y-106472309D01*
X166963582Y-106470242D01*
X166958038Y-106467620D01*
X166952777Y-106464467D01*
X166947850Y-106460813D01*
X166943306Y-106456694D01*
X166939187Y-106452150D01*
X166935533Y-106447223D01*
X166932380Y-106441962D01*
X166929758Y-106436418D01*
X166927691Y-106430643D01*
X166926201Y-106424693D01*
X166925301Y-106418626D01*
X166925000Y-106412500D01*
X166925000Y-105712500D01*
X166925301Y-105706374D01*
X166926201Y-105700307D01*
X166927691Y-105694357D01*
X166929758Y-105688582D01*
X166932380Y-105683038D01*
X166935533Y-105677777D01*
X166939187Y-105672850D01*
X166943306Y-105668306D01*
X166947850Y-105664187D01*
X166952777Y-105660533D01*
X166958038Y-105657380D01*
X166963582Y-105654758D01*
X166969357Y-105652691D01*
X166975307Y-105651201D01*
X166981374Y-105650301D01*
X166987500Y-105650000D01*
X167112500Y-105650000D01*
X167118626Y-105650301D01*
X167118626Y-105650301D01*
G37*
D17*
G04 #@! TD*
G04 #@! TO.P,U1,16*
G04 #@! TO.N,Net-(U1-Pad16)*
X167050000Y-106062500D03*
D15*
G04 #@! TO.N,+5VP*
G04 #@! TO.C,U1*
G36*
X167618626Y-105650301D02*
X167624693Y-105651201D01*
X167630643Y-105652691D01*
X167636418Y-105654758D01*
X167641962Y-105657380D01*
X167647223Y-105660533D01*
X167652150Y-105664187D01*
X167656694Y-105668306D01*
X167660813Y-105672850D01*
X167664467Y-105677777D01*
X167667620Y-105683038D01*
X167670242Y-105688582D01*
X167672309Y-105694357D01*
X167673799Y-105700307D01*
X167674699Y-105706374D01*
X167675000Y-105712500D01*
X167675000Y-106412500D01*
X167674699Y-106418626D01*
X167673799Y-106424693D01*
X167672309Y-106430643D01*
X167670242Y-106436418D01*
X167667620Y-106441962D01*
X167664467Y-106447223D01*
X167660813Y-106452150D01*
X167656694Y-106456694D01*
X167652150Y-106460813D01*
X167647223Y-106464467D01*
X167641962Y-106467620D01*
X167636418Y-106470242D01*
X167630643Y-106472309D01*
X167624693Y-106473799D01*
X167618626Y-106474699D01*
X167612500Y-106475000D01*
X167487500Y-106475000D01*
X167481374Y-106474699D01*
X167475307Y-106473799D01*
X167469357Y-106472309D01*
X167463582Y-106470242D01*
X167458038Y-106467620D01*
X167452777Y-106464467D01*
X167447850Y-106460813D01*
X167443306Y-106456694D01*
X167439187Y-106452150D01*
X167435533Y-106447223D01*
X167432380Y-106441962D01*
X167429758Y-106436418D01*
X167427691Y-106430643D01*
X167426201Y-106424693D01*
X167425301Y-106418626D01*
X167425000Y-106412500D01*
X167425000Y-105712500D01*
X167425301Y-105706374D01*
X167426201Y-105700307D01*
X167427691Y-105694357D01*
X167429758Y-105688582D01*
X167432380Y-105683038D01*
X167435533Y-105677777D01*
X167439187Y-105672850D01*
X167443306Y-105668306D01*
X167447850Y-105664187D01*
X167452777Y-105660533D01*
X167458038Y-105657380D01*
X167463582Y-105654758D01*
X167469357Y-105652691D01*
X167475307Y-105651201D01*
X167481374Y-105650301D01*
X167487500Y-105650000D01*
X167612500Y-105650000D01*
X167618626Y-105650301D01*
X167618626Y-105650301D01*
G37*
D17*
G04 #@! TD*
G04 #@! TO.P,U1,17*
G04 #@! TO.N,+5VP*
X167550000Y-106062500D03*
D15*
G04 #@! TO.N,Net-(U1-Pad18)*
G04 #@! TO.C,U1*
G36*
X168118626Y-105650301D02*
X168124693Y-105651201D01*
X168130643Y-105652691D01*
X168136418Y-105654758D01*
X168141962Y-105657380D01*
X168147223Y-105660533D01*
X168152150Y-105664187D01*
X168156694Y-105668306D01*
X168160813Y-105672850D01*
X168164467Y-105677777D01*
X168167620Y-105683038D01*
X168170242Y-105688582D01*
X168172309Y-105694357D01*
X168173799Y-105700307D01*
X168174699Y-105706374D01*
X168175000Y-105712500D01*
X168175000Y-106412500D01*
X168174699Y-106418626D01*
X168173799Y-106424693D01*
X168172309Y-106430643D01*
X168170242Y-106436418D01*
X168167620Y-106441962D01*
X168164467Y-106447223D01*
X168160813Y-106452150D01*
X168156694Y-106456694D01*
X168152150Y-106460813D01*
X168147223Y-106464467D01*
X168141962Y-106467620D01*
X168136418Y-106470242D01*
X168130643Y-106472309D01*
X168124693Y-106473799D01*
X168118626Y-106474699D01*
X168112500Y-106475000D01*
X167987500Y-106475000D01*
X167981374Y-106474699D01*
X167975307Y-106473799D01*
X167969357Y-106472309D01*
X167963582Y-106470242D01*
X167958038Y-106467620D01*
X167952777Y-106464467D01*
X167947850Y-106460813D01*
X167943306Y-106456694D01*
X167939187Y-106452150D01*
X167935533Y-106447223D01*
X167932380Y-106441962D01*
X167929758Y-106436418D01*
X167927691Y-106430643D01*
X167926201Y-106424693D01*
X167925301Y-106418626D01*
X167925000Y-106412500D01*
X167925000Y-105712500D01*
X167925301Y-105706374D01*
X167926201Y-105700307D01*
X167927691Y-105694357D01*
X167929758Y-105688582D01*
X167932380Y-105683038D01*
X167935533Y-105677777D01*
X167939187Y-105672850D01*
X167943306Y-105668306D01*
X167947850Y-105664187D01*
X167952777Y-105660533D01*
X167958038Y-105657380D01*
X167963582Y-105654758D01*
X167969357Y-105652691D01*
X167975307Y-105651201D01*
X167981374Y-105650301D01*
X167987500Y-105650000D01*
X168112500Y-105650000D01*
X168118626Y-105650301D01*
X168118626Y-105650301D01*
G37*
D17*
G04 #@! TD*
G04 #@! TO.P,U1,18*
G04 #@! TO.N,Net-(U1-Pad18)*
X168050000Y-106062500D03*
D15*
G04 #@! TO.N,SDA_iso*
G04 #@! TO.C,U1*
G36*
X169118626Y-105225301D02*
X169124693Y-105226201D01*
X169130643Y-105227691D01*
X169136418Y-105229758D01*
X169141962Y-105232380D01*
X169147223Y-105235533D01*
X169152150Y-105239187D01*
X169156694Y-105243306D01*
X169160813Y-105247850D01*
X169164467Y-105252777D01*
X169167620Y-105258038D01*
X169170242Y-105263582D01*
X169172309Y-105269357D01*
X169173799Y-105275307D01*
X169174699Y-105281374D01*
X169175000Y-105287500D01*
X169175000Y-105412500D01*
X169174699Y-105418626D01*
X169173799Y-105424693D01*
X169172309Y-105430643D01*
X169170242Y-105436418D01*
X169167620Y-105441962D01*
X169164467Y-105447223D01*
X169160813Y-105452150D01*
X169156694Y-105456694D01*
X169152150Y-105460813D01*
X169147223Y-105464467D01*
X169141962Y-105467620D01*
X169136418Y-105470242D01*
X169130643Y-105472309D01*
X169124693Y-105473799D01*
X169118626Y-105474699D01*
X169112500Y-105475000D01*
X168412500Y-105475000D01*
X168406374Y-105474699D01*
X168400307Y-105473799D01*
X168394357Y-105472309D01*
X168388582Y-105470242D01*
X168383038Y-105467620D01*
X168377777Y-105464467D01*
X168372850Y-105460813D01*
X168368306Y-105456694D01*
X168364187Y-105452150D01*
X168360533Y-105447223D01*
X168357380Y-105441962D01*
X168354758Y-105436418D01*
X168352691Y-105430643D01*
X168351201Y-105424693D01*
X168350301Y-105418626D01*
X168350000Y-105412500D01*
X168350000Y-105287500D01*
X168350301Y-105281374D01*
X168351201Y-105275307D01*
X168352691Y-105269357D01*
X168354758Y-105263582D01*
X168357380Y-105258038D01*
X168360533Y-105252777D01*
X168364187Y-105247850D01*
X168368306Y-105243306D01*
X168372850Y-105239187D01*
X168377777Y-105235533D01*
X168383038Y-105232380D01*
X168388582Y-105229758D01*
X168394357Y-105227691D01*
X168400307Y-105226201D01*
X168406374Y-105225301D01*
X168412500Y-105225000D01*
X169112500Y-105225000D01*
X169118626Y-105225301D01*
X169118626Y-105225301D01*
G37*
D17*
G04 #@! TD*
G04 #@! TO.P,U1,19*
G04 #@! TO.N,SDA_iso*
X168762500Y-105350000D03*
D15*
G04 #@! TO.N,SCL_iso*
G04 #@! TO.C,U1*
G36*
X169118626Y-104725301D02*
X169124693Y-104726201D01*
X169130643Y-104727691D01*
X169136418Y-104729758D01*
X169141962Y-104732380D01*
X169147223Y-104735533D01*
X169152150Y-104739187D01*
X169156694Y-104743306D01*
X169160813Y-104747850D01*
X169164467Y-104752777D01*
X169167620Y-104758038D01*
X169170242Y-104763582D01*
X169172309Y-104769357D01*
X169173799Y-104775307D01*
X169174699Y-104781374D01*
X169175000Y-104787500D01*
X169175000Y-104912500D01*
X169174699Y-104918626D01*
X169173799Y-104924693D01*
X169172309Y-104930643D01*
X169170242Y-104936418D01*
X169167620Y-104941962D01*
X169164467Y-104947223D01*
X169160813Y-104952150D01*
X169156694Y-104956694D01*
X169152150Y-104960813D01*
X169147223Y-104964467D01*
X169141962Y-104967620D01*
X169136418Y-104970242D01*
X169130643Y-104972309D01*
X169124693Y-104973799D01*
X169118626Y-104974699D01*
X169112500Y-104975000D01*
X168412500Y-104975000D01*
X168406374Y-104974699D01*
X168400307Y-104973799D01*
X168394357Y-104972309D01*
X168388582Y-104970242D01*
X168383038Y-104967620D01*
X168377777Y-104964467D01*
X168372850Y-104960813D01*
X168368306Y-104956694D01*
X168364187Y-104952150D01*
X168360533Y-104947223D01*
X168357380Y-104941962D01*
X168354758Y-104936418D01*
X168352691Y-104930643D01*
X168351201Y-104924693D01*
X168350301Y-104918626D01*
X168350000Y-104912500D01*
X168350000Y-104787500D01*
X168350301Y-104781374D01*
X168351201Y-104775307D01*
X168352691Y-104769357D01*
X168354758Y-104763582D01*
X168357380Y-104758038D01*
X168360533Y-104752777D01*
X168364187Y-104747850D01*
X168368306Y-104743306D01*
X168372850Y-104739187D01*
X168377777Y-104735533D01*
X168383038Y-104732380D01*
X168388582Y-104729758D01*
X168394357Y-104727691D01*
X168400307Y-104726201D01*
X168406374Y-104725301D01*
X168412500Y-104725000D01*
X169112500Y-104725000D01*
X169118626Y-104725301D01*
X169118626Y-104725301D01*
G37*
D17*
G04 #@! TD*
G04 #@! TO.P,U1,20*
G04 #@! TO.N,SCL_iso*
X168762500Y-104850000D03*
D15*
G04 #@! TO.N,Net-(C3-Pad1)*
G04 #@! TO.C,U1*
G36*
X169118626Y-104225301D02*
X169124693Y-104226201D01*
X169130643Y-104227691D01*
X169136418Y-104229758D01*
X169141962Y-104232380D01*
X169147223Y-104235533D01*
X169152150Y-104239187D01*
X169156694Y-104243306D01*
X169160813Y-104247850D01*
X169164467Y-104252777D01*
X169167620Y-104258038D01*
X169170242Y-104263582D01*
X169172309Y-104269357D01*
X169173799Y-104275307D01*
X169174699Y-104281374D01*
X169175000Y-104287500D01*
X169175000Y-104412500D01*
X169174699Y-104418626D01*
X169173799Y-104424693D01*
X169172309Y-104430643D01*
X169170242Y-104436418D01*
X169167620Y-104441962D01*
X169164467Y-104447223D01*
X169160813Y-104452150D01*
X169156694Y-104456694D01*
X169152150Y-104460813D01*
X169147223Y-104464467D01*
X169141962Y-104467620D01*
X169136418Y-104470242D01*
X169130643Y-104472309D01*
X169124693Y-104473799D01*
X169118626Y-104474699D01*
X169112500Y-104475000D01*
X168412500Y-104475000D01*
X168406374Y-104474699D01*
X168400307Y-104473799D01*
X168394357Y-104472309D01*
X168388582Y-104470242D01*
X168383038Y-104467620D01*
X168377777Y-104464467D01*
X168372850Y-104460813D01*
X168368306Y-104456694D01*
X168364187Y-104452150D01*
X168360533Y-104447223D01*
X168357380Y-104441962D01*
X168354758Y-104436418D01*
X168352691Y-104430643D01*
X168351201Y-104424693D01*
X168350301Y-104418626D01*
X168350000Y-104412500D01*
X168350000Y-104287500D01*
X168350301Y-104281374D01*
X168351201Y-104275307D01*
X168352691Y-104269357D01*
X168354758Y-104263582D01*
X168357380Y-104258038D01*
X168360533Y-104252777D01*
X168364187Y-104247850D01*
X168368306Y-104243306D01*
X168372850Y-104239187D01*
X168377777Y-104235533D01*
X168383038Y-104232380D01*
X168388582Y-104229758D01*
X168394357Y-104227691D01*
X168400307Y-104226201D01*
X168406374Y-104225301D01*
X168412500Y-104225000D01*
X169112500Y-104225000D01*
X169118626Y-104225301D01*
X169118626Y-104225301D01*
G37*
D17*
G04 #@! TD*
G04 #@! TO.P,U1,21*
G04 #@! TO.N,Net-(C3-Pad1)*
X168762500Y-104350000D03*
D15*
G04 #@! TO.N,Net-(U1-Pad22)*
G04 #@! TO.C,U1*
G36*
X169118626Y-103725301D02*
X169124693Y-103726201D01*
X169130643Y-103727691D01*
X169136418Y-103729758D01*
X169141962Y-103732380D01*
X169147223Y-103735533D01*
X169152150Y-103739187D01*
X169156694Y-103743306D01*
X169160813Y-103747850D01*
X169164467Y-103752777D01*
X169167620Y-103758038D01*
X169170242Y-103763582D01*
X169172309Y-103769357D01*
X169173799Y-103775307D01*
X169174699Y-103781374D01*
X169175000Y-103787500D01*
X169175000Y-103912500D01*
X169174699Y-103918626D01*
X169173799Y-103924693D01*
X169172309Y-103930643D01*
X169170242Y-103936418D01*
X169167620Y-103941962D01*
X169164467Y-103947223D01*
X169160813Y-103952150D01*
X169156694Y-103956694D01*
X169152150Y-103960813D01*
X169147223Y-103964467D01*
X169141962Y-103967620D01*
X169136418Y-103970242D01*
X169130643Y-103972309D01*
X169124693Y-103973799D01*
X169118626Y-103974699D01*
X169112500Y-103975000D01*
X168412500Y-103975000D01*
X168406374Y-103974699D01*
X168400307Y-103973799D01*
X168394357Y-103972309D01*
X168388582Y-103970242D01*
X168383038Y-103967620D01*
X168377777Y-103964467D01*
X168372850Y-103960813D01*
X168368306Y-103956694D01*
X168364187Y-103952150D01*
X168360533Y-103947223D01*
X168357380Y-103941962D01*
X168354758Y-103936418D01*
X168352691Y-103930643D01*
X168351201Y-103924693D01*
X168350301Y-103918626D01*
X168350000Y-103912500D01*
X168350000Y-103787500D01*
X168350301Y-103781374D01*
X168351201Y-103775307D01*
X168352691Y-103769357D01*
X168354758Y-103763582D01*
X168357380Y-103758038D01*
X168360533Y-103752777D01*
X168364187Y-103747850D01*
X168368306Y-103743306D01*
X168372850Y-103739187D01*
X168377777Y-103735533D01*
X168383038Y-103732380D01*
X168388582Y-103729758D01*
X168394357Y-103727691D01*
X168400307Y-103726201D01*
X168406374Y-103725301D01*
X168412500Y-103725000D01*
X169112500Y-103725000D01*
X169118626Y-103725301D01*
X169118626Y-103725301D01*
G37*
D17*
G04 #@! TD*
G04 #@! TO.P,U1,22*
G04 #@! TO.N,Net-(U1-Pad22)*
X168762500Y-103850000D03*
D15*
G04 #@! TO.N,Net-(C4-Pad1)*
G04 #@! TO.C,U1*
G36*
X169118626Y-103225301D02*
X169124693Y-103226201D01*
X169130643Y-103227691D01*
X169136418Y-103229758D01*
X169141962Y-103232380D01*
X169147223Y-103235533D01*
X169152150Y-103239187D01*
X169156694Y-103243306D01*
X169160813Y-103247850D01*
X169164467Y-103252777D01*
X169167620Y-103258038D01*
X169170242Y-103263582D01*
X169172309Y-103269357D01*
X169173799Y-103275307D01*
X169174699Y-103281374D01*
X169175000Y-103287500D01*
X169175000Y-103412500D01*
X169174699Y-103418626D01*
X169173799Y-103424693D01*
X169172309Y-103430643D01*
X169170242Y-103436418D01*
X169167620Y-103441962D01*
X169164467Y-103447223D01*
X169160813Y-103452150D01*
X169156694Y-103456694D01*
X169152150Y-103460813D01*
X169147223Y-103464467D01*
X169141962Y-103467620D01*
X169136418Y-103470242D01*
X169130643Y-103472309D01*
X169124693Y-103473799D01*
X169118626Y-103474699D01*
X169112500Y-103475000D01*
X168412500Y-103475000D01*
X168406374Y-103474699D01*
X168400307Y-103473799D01*
X168394357Y-103472309D01*
X168388582Y-103470242D01*
X168383038Y-103467620D01*
X168377777Y-103464467D01*
X168372850Y-103460813D01*
X168368306Y-103456694D01*
X168364187Y-103452150D01*
X168360533Y-103447223D01*
X168357380Y-103441962D01*
X168354758Y-103436418D01*
X168352691Y-103430643D01*
X168351201Y-103424693D01*
X168350301Y-103418626D01*
X168350000Y-103412500D01*
X168350000Y-103287500D01*
X168350301Y-103281374D01*
X168351201Y-103275307D01*
X168352691Y-103269357D01*
X168354758Y-103263582D01*
X168357380Y-103258038D01*
X168360533Y-103252777D01*
X168364187Y-103247850D01*
X168368306Y-103243306D01*
X168372850Y-103239187D01*
X168377777Y-103235533D01*
X168383038Y-103232380D01*
X168388582Y-103229758D01*
X168394357Y-103227691D01*
X168400307Y-103226201D01*
X168406374Y-103225301D01*
X168412500Y-103225000D01*
X169112500Y-103225000D01*
X169118626Y-103225301D01*
X169118626Y-103225301D01*
G37*
D17*
G04 #@! TD*
G04 #@! TO.P,U1,23*
G04 #@! TO.N,Net-(C4-Pad1)*
X168762500Y-103350000D03*
D15*
G04 #@! TO.N,Net-(C4-Pad2)*
G04 #@! TO.C,U1*
G36*
X169118626Y-102725301D02*
X169124693Y-102726201D01*
X169130643Y-102727691D01*
X169136418Y-102729758D01*
X169141962Y-102732380D01*
X169147223Y-102735533D01*
X169152150Y-102739187D01*
X169156694Y-102743306D01*
X169160813Y-102747850D01*
X169164467Y-102752777D01*
X169167620Y-102758038D01*
X169170242Y-102763582D01*
X169172309Y-102769357D01*
X169173799Y-102775307D01*
X169174699Y-102781374D01*
X169175000Y-102787500D01*
X169175000Y-102912500D01*
X169174699Y-102918626D01*
X169173799Y-102924693D01*
X169172309Y-102930643D01*
X169170242Y-102936418D01*
X169167620Y-102941962D01*
X169164467Y-102947223D01*
X169160813Y-102952150D01*
X169156694Y-102956694D01*
X169152150Y-102960813D01*
X169147223Y-102964467D01*
X169141962Y-102967620D01*
X169136418Y-102970242D01*
X169130643Y-102972309D01*
X169124693Y-102973799D01*
X169118626Y-102974699D01*
X169112500Y-102975000D01*
X168412500Y-102975000D01*
X168406374Y-102974699D01*
X168400307Y-102973799D01*
X168394357Y-102972309D01*
X168388582Y-102970242D01*
X168383038Y-102967620D01*
X168377777Y-102964467D01*
X168372850Y-102960813D01*
X168368306Y-102956694D01*
X168364187Y-102952150D01*
X168360533Y-102947223D01*
X168357380Y-102941962D01*
X168354758Y-102936418D01*
X168352691Y-102930643D01*
X168351201Y-102924693D01*
X168350301Y-102918626D01*
X168350000Y-102912500D01*
X168350000Y-102787500D01*
X168350301Y-102781374D01*
X168351201Y-102775307D01*
X168352691Y-102769357D01*
X168354758Y-102763582D01*
X168357380Y-102758038D01*
X168360533Y-102752777D01*
X168364187Y-102747850D01*
X168368306Y-102743306D01*
X168372850Y-102739187D01*
X168377777Y-102735533D01*
X168383038Y-102732380D01*
X168388582Y-102729758D01*
X168394357Y-102727691D01*
X168400307Y-102726201D01*
X168406374Y-102725301D01*
X168412500Y-102725000D01*
X169112500Y-102725000D01*
X169118626Y-102725301D01*
X169118626Y-102725301D01*
G37*
D17*
G04 #@! TD*
G04 #@! TO.P,U1,24*
G04 #@! TO.N,Net-(C4-Pad2)*
X168762500Y-102850000D03*
D18*
G04 #@! TO.P,U3,1*
G04 #@! TO.N,+3V3*
X183550000Y-104300000D03*
G04 #@! TO.P,U3,2*
G04 #@! TO.N,+5VP*
X181650000Y-104300000D03*
G04 #@! TO.P,U3,3*
G04 #@! TO.N,GNDPWR*
X182600000Y-106300000D03*
G04 #@! TD*
D19*
G04 #@! TO.P,J2,19*
G04 #@! TO.N,SDA_iso*
X129320000Y-117540000D03*
G04 #@! TO.P,J2,18*
G04 #@! TO.N,SCL_iso*
X129320000Y-115000000D03*
G04 #@! TO.P,J2,20*
G04 #@! TO.N,+5VP*
X129320000Y-120080000D03*
G04 #@! TO.P,J2,*
G04 #@! TO.N,*
X129320000Y-112460000D03*
G04 #@! TO.P,J2,17*
G04 #@! TO.N,GNDPWR*
X129320000Y-109920000D03*
G04 #@! TO.P,J2,*
G04 #@! TO.N,*
X129320000Y-122620000D03*
G04 #@! TO.P,J2,19*
G04 #@! TO.N,SDA_iso*
X187740000Y-117540000D03*
G04 #@! TO.P,J2,20*
G04 #@! TO.N,+5VP*
X187740000Y-120080000D03*
G04 #@! TO.P,J2,18*
G04 #@! TO.N,SCL_iso*
X187740000Y-115000000D03*
G04 #@! TO.P,J2,*
G04 #@! TO.N,*
X187740000Y-112460000D03*
G04 #@! TO.P,J2,17*
G04 #@! TO.N,GNDPWR*
X187740000Y-109920000D03*
G04 #@! TO.P,J2,*
G04 #@! TO.N,*
X187740000Y-122620000D03*
G04 #@! TO.P,J2,17*
G04 #@! TO.N,GNDPWR*
X134400000Y-127700000D03*
G04 #@! TO.P,J2,*
G04 #@! TO.N,*
X134400000Y-125160000D03*
G04 #@! TO.P,J2,1*
G04 #@! TO.N,PWM_0*
X134400000Y-122620000D03*
G04 #@! TO.P,J2,2*
G04 #@! TO.N,PWM_1*
X136940000Y-122620000D03*
G04 #@! TO.P,J2,17*
G04 #@! TO.N,GNDPWR*
X136940000Y-127700000D03*
G04 #@! TO.P,J2,*
G04 #@! TO.N,*
X136940000Y-125160000D03*
G04 #@! TO.P,J2,3*
G04 #@! TO.N,PWM_2*
X139480000Y-122620000D03*
G04 #@! TO.P,J2,17*
G04 #@! TO.N,GNDPWR*
X139480000Y-127700000D03*
G04 #@! TO.P,J2,*
G04 #@! TO.N,*
X139480000Y-125160000D03*
G04 #@! TO.P,J2,4*
G04 #@! TO.N,PWM_3*
X142020000Y-122620000D03*
G04 #@! TO.P,J2,17*
G04 #@! TO.N,GNDPWR*
X142020000Y-127700000D03*
G04 #@! TO.P,J2,*
G04 #@! TO.N,*
X142020000Y-125160000D03*
G04 #@! TO.P,J2,5*
G04 #@! TO.N,PWM_4*
X147100000Y-122620000D03*
G04 #@! TO.P,J2,17*
G04 #@! TO.N,GNDPWR*
X147100000Y-127700000D03*
G04 #@! TO.P,J2,*
G04 #@! TO.N,*
X147100000Y-125160000D03*
G04 #@! TO.P,J2,6*
G04 #@! TO.N,PWM_5*
X149640000Y-122620000D03*
G04 #@! TO.P,J2,17*
G04 #@! TO.N,GNDPWR*
X149640000Y-127700000D03*
G04 #@! TO.P,J2,*
G04 #@! TO.N,*
X149640000Y-125160000D03*
G04 #@! TO.P,J2,7*
G04 #@! TO.N,PWM_6*
X152180000Y-122620000D03*
G04 #@! TO.P,J2,17*
G04 #@! TO.N,GNDPWR*
X152180000Y-127700000D03*
G04 #@! TO.P,J2,*
G04 #@! TO.N,*
X152180000Y-125160000D03*
G04 #@! TO.P,J2,8*
G04 #@! TO.N,PWM_7*
X154720000Y-122620000D03*
G04 #@! TO.P,J2,17*
G04 #@! TO.N,GNDPWR*
X154720000Y-127700000D03*
G04 #@! TO.P,J2,*
G04 #@! TO.N,*
X154720000Y-125160000D03*
G04 #@! TO.P,J2,9*
G04 #@! TO.N,PWM_8*
X162340000Y-122620000D03*
G04 #@! TO.P,J2,17*
G04 #@! TO.N,GNDPWR*
X162340000Y-127700000D03*
G04 #@! TO.P,J2,*
G04 #@! TO.N,*
X162340000Y-125160000D03*
G04 #@! TO.P,J2,10*
G04 #@! TO.N,PWM_9*
X164880000Y-122620000D03*
G04 #@! TO.P,J2,*
G04 #@! TO.N,*
X164880000Y-125160000D03*
G04 #@! TO.P,J2,17*
G04 #@! TO.N,GNDPWR*
X164880000Y-127700000D03*
G04 #@! TO.P,J2,11*
G04 #@! TO.N,PWM_10*
X167420000Y-122620000D03*
G04 #@! TO.P,J2,*
G04 #@! TO.N,*
X167420000Y-125160000D03*
G04 #@! TO.P,J2,17*
G04 #@! TO.N,GNDPWR*
X167420000Y-127700000D03*
G04 #@! TO.P,J2,12*
G04 #@! TO.N,PWM_11*
X169960000Y-122620000D03*
G04 #@! TO.P,J2,*
G04 #@! TO.N,*
X169960000Y-125160000D03*
G04 #@! TO.P,J2,17*
G04 #@! TO.N,GNDPWR*
X169960000Y-127700000D03*
G04 #@! TO.P,J2,16*
G04 #@! TO.N,PWM_15_*
X182660000Y-122620000D03*
G04 #@! TO.P,J2,17*
G04 #@! TO.N,GNDPWR*
X182660000Y-127700000D03*
G04 #@! TO.P,J2,*
G04 #@! TO.N,*
X182660000Y-125160000D03*
G04 #@! TO.P,J2,15*
G04 #@! TO.N,PWM_14_*
X180120000Y-122620000D03*
G04 #@! TO.P,J2,*
G04 #@! TO.N,*
X180120000Y-125160000D03*
G04 #@! TO.P,J2,17*
G04 #@! TO.N,GNDPWR*
X180120000Y-127700000D03*
X177580000Y-127700000D03*
G04 #@! TO.P,J2,*
G04 #@! TO.N,*
X177580000Y-125160000D03*
G04 #@! TO.P,J2,14*
G04 #@! TO.N,PWM_13_*
X177580000Y-122620000D03*
G04 #@! TO.P,J2,13*
G04 #@! TO.N,PWM_12_*
X175040000Y-122620000D03*
G04 #@! TO.P,J2,*
G04 #@! TO.N,*
X175040000Y-125160000D03*
G04 #@! TO.P,J2,17*
G04 #@! TO.N,GNDPWR*
X175040000Y-127700000D03*
G04 #@! TD*
D15*
G04 #@! TO.N,+5VP*
G04 #@! TO.C,C9*
G36*
X179724505Y-103676204D02*
X179748773Y-103679804D01*
X179772572Y-103685765D01*
X179795671Y-103694030D01*
X179817850Y-103704520D01*
X179838893Y-103717132D01*
X179858599Y-103731747D01*
X179876777Y-103748223D01*
X179893253Y-103766401D01*
X179907868Y-103786107D01*
X179920480Y-103807150D01*
X179930970Y-103829329D01*
X179939235Y-103852428D01*
X179945196Y-103876227D01*
X179948796Y-103900495D01*
X179950000Y-103924999D01*
X179950000Y-104575001D01*
X179948796Y-104599505D01*
X179945196Y-104623773D01*
X179939235Y-104647572D01*
X179930970Y-104670671D01*
X179920480Y-104692850D01*
X179907868Y-104713893D01*
X179893253Y-104733599D01*
X179876777Y-104751777D01*
X179858599Y-104768253D01*
X179838893Y-104782868D01*
X179817850Y-104795480D01*
X179795671Y-104805970D01*
X179772572Y-104814235D01*
X179748773Y-104820196D01*
X179724505Y-104823796D01*
X179700001Y-104825000D01*
X178799999Y-104825000D01*
X178775495Y-104823796D01*
X178751227Y-104820196D01*
X178727428Y-104814235D01*
X178704329Y-104805970D01*
X178682150Y-104795480D01*
X178661107Y-104782868D01*
X178641401Y-104768253D01*
X178623223Y-104751777D01*
X178606747Y-104733599D01*
X178592132Y-104713893D01*
X178579520Y-104692850D01*
X178569030Y-104670671D01*
X178560765Y-104647572D01*
X178554804Y-104623773D01*
X178551204Y-104599505D01*
X178550000Y-104575001D01*
X178550000Y-103924999D01*
X178551204Y-103900495D01*
X178554804Y-103876227D01*
X178560765Y-103852428D01*
X178569030Y-103829329D01*
X178579520Y-103807150D01*
X178592132Y-103786107D01*
X178606747Y-103766401D01*
X178623223Y-103748223D01*
X178641401Y-103731747D01*
X178661107Y-103717132D01*
X178682150Y-103704520D01*
X178704329Y-103694030D01*
X178727428Y-103685765D01*
X178751227Y-103679804D01*
X178775495Y-103676204D01*
X178799999Y-103675000D01*
X179700001Y-103675000D01*
X179724505Y-103676204D01*
X179724505Y-103676204D01*
G37*
D20*
G04 #@! TD*
G04 #@! TO.P,C9,2*
G04 #@! TO.N,+5VP*
X179250000Y-104250000D03*
D15*
G04 #@! TO.N,GNDPWR*
G04 #@! TO.C,C9*
G36*
X179724505Y-105726204D02*
X179748773Y-105729804D01*
X179772572Y-105735765D01*
X179795671Y-105744030D01*
X179817850Y-105754520D01*
X179838893Y-105767132D01*
X179858599Y-105781747D01*
X179876777Y-105798223D01*
X179893253Y-105816401D01*
X179907868Y-105836107D01*
X179920480Y-105857150D01*
X179930970Y-105879329D01*
X179939235Y-105902428D01*
X179945196Y-105926227D01*
X179948796Y-105950495D01*
X179950000Y-105974999D01*
X179950000Y-106625001D01*
X179948796Y-106649505D01*
X179945196Y-106673773D01*
X179939235Y-106697572D01*
X179930970Y-106720671D01*
X179920480Y-106742850D01*
X179907868Y-106763893D01*
X179893253Y-106783599D01*
X179876777Y-106801777D01*
X179858599Y-106818253D01*
X179838893Y-106832868D01*
X179817850Y-106845480D01*
X179795671Y-106855970D01*
X179772572Y-106864235D01*
X179748773Y-106870196D01*
X179724505Y-106873796D01*
X179700001Y-106875000D01*
X178799999Y-106875000D01*
X178775495Y-106873796D01*
X178751227Y-106870196D01*
X178727428Y-106864235D01*
X178704329Y-106855970D01*
X178682150Y-106845480D01*
X178661107Y-106832868D01*
X178641401Y-106818253D01*
X178623223Y-106801777D01*
X178606747Y-106783599D01*
X178592132Y-106763893D01*
X178579520Y-106742850D01*
X178569030Y-106720671D01*
X178560765Y-106697572D01*
X178554804Y-106673773D01*
X178551204Y-106649505D01*
X178550000Y-106625001D01*
X178550000Y-105974999D01*
X178551204Y-105950495D01*
X178554804Y-105926227D01*
X178560765Y-105902428D01*
X178569030Y-105879329D01*
X178579520Y-105857150D01*
X178592132Y-105836107D01*
X178606747Y-105816401D01*
X178623223Y-105798223D01*
X178641401Y-105781747D01*
X178661107Y-105767132D01*
X178682150Y-105754520D01*
X178704329Y-105744030D01*
X178727428Y-105735765D01*
X178751227Y-105729804D01*
X178775495Y-105726204D01*
X178799999Y-105725000D01*
X179700001Y-105725000D01*
X179724505Y-105726204D01*
X179724505Y-105726204D01*
G37*
D20*
G04 #@! TD*
G04 #@! TO.P,C9,1*
G04 #@! TO.N,GNDPWR*
X179250000Y-106300000D03*
D21*
G04 #@! TO.P,JP1,2*
G04 #@! TO.N,PWM_13*
X174500000Y-134000000D03*
D22*
G04 #@! TO.P,JP1,3*
G04 #@! TO.N,DigitalOutput4*
X175800000Y-134000000D03*
D15*
G04 #@! TD*
G04 #@! TO.N,DigitalOutput4*
G04 #@! TO.C,JP1*
G36*
X175800000Y-133250602D02*
X175824534Y-133250602D01*
X175873365Y-133255412D01*
X175921490Y-133264984D01*
X175968445Y-133279228D01*
X176013778Y-133298005D01*
X176057051Y-133321136D01*
X176097850Y-133348396D01*
X176135779Y-133379524D01*
X176170476Y-133414221D01*
X176201604Y-133452150D01*
X176228864Y-133492949D01*
X176251995Y-133536222D01*
X176270772Y-133581555D01*
X176285016Y-133628510D01*
X176294588Y-133676635D01*
X176299398Y-133725466D01*
X176299398Y-133750000D01*
X176300000Y-133750000D01*
X176300000Y-134250000D01*
X176299398Y-134250000D01*
X176299398Y-134274534D01*
X176294588Y-134323365D01*
X176285016Y-134371490D01*
X176270772Y-134418445D01*
X176251995Y-134463778D01*
X176228864Y-134507051D01*
X176201604Y-134547850D01*
X176170476Y-134585779D01*
X176135779Y-134620476D01*
X176097850Y-134651604D01*
X176057051Y-134678864D01*
X176013778Y-134701995D01*
X175968445Y-134720772D01*
X175921490Y-134735016D01*
X175873365Y-134744588D01*
X175824534Y-134749398D01*
X175800000Y-134749398D01*
X175800000Y-134750000D01*
X175250000Y-134750000D01*
X175250000Y-133250000D01*
X175800000Y-133250000D01*
X175800000Y-133250602D01*
X175800000Y-133250602D01*
G37*
D22*
G04 #@! TO.P,JP1,1*
G04 #@! TO.N,PWM_13_*
X173200000Y-134000000D03*
D15*
G04 #@! TD*
G04 #@! TO.N,PWM_13_*
G04 #@! TO.C,JP1*
G36*
X173750000Y-134750000D02*
X173200000Y-134750000D01*
X173200000Y-134749398D01*
X173175466Y-134749398D01*
X173126635Y-134744588D01*
X173078510Y-134735016D01*
X173031555Y-134720772D01*
X172986222Y-134701995D01*
X172942949Y-134678864D01*
X172902150Y-134651604D01*
X172864221Y-134620476D01*
X172829524Y-134585779D01*
X172798396Y-134547850D01*
X172771136Y-134507051D01*
X172748005Y-134463778D01*
X172729228Y-134418445D01*
X172714984Y-134371490D01*
X172705412Y-134323365D01*
X172700602Y-134274534D01*
X172700602Y-134250000D01*
X172700000Y-134250000D01*
X172700000Y-133750000D01*
X172700602Y-133750000D01*
X172700602Y-133725466D01*
X172705412Y-133676635D01*
X172714984Y-133628510D01*
X172729228Y-133581555D01*
X172748005Y-133536222D01*
X172771136Y-133492949D01*
X172798396Y-133452150D01*
X172829524Y-133414221D01*
X172864221Y-133379524D01*
X172902150Y-133348396D01*
X172942949Y-133321136D01*
X172986222Y-133298005D01*
X173031555Y-133279228D01*
X173078510Y-133264984D01*
X173126635Y-133255412D01*
X173175466Y-133250602D01*
X173200000Y-133250602D01*
X173200000Y-133250000D01*
X173750000Y-133250000D01*
X173750000Y-134750000D01*
X173750000Y-134750000D01*
G37*
D21*
G04 #@! TO.P,JP2,2*
G04 #@! TO.N,PWM_12*
X180000000Y-134000000D03*
D22*
G04 #@! TO.P,JP2,3*
G04 #@! TO.N,DigitalOutput3*
X181300000Y-134000000D03*
D15*
G04 #@! TD*
G04 #@! TO.N,DigitalOutput3*
G04 #@! TO.C,JP2*
G36*
X181300000Y-133250602D02*
X181324534Y-133250602D01*
X181373365Y-133255412D01*
X181421490Y-133264984D01*
X181468445Y-133279228D01*
X181513778Y-133298005D01*
X181557051Y-133321136D01*
X181597850Y-133348396D01*
X181635779Y-133379524D01*
X181670476Y-133414221D01*
X181701604Y-133452150D01*
X181728864Y-133492949D01*
X181751995Y-133536222D01*
X181770772Y-133581555D01*
X181785016Y-133628510D01*
X181794588Y-133676635D01*
X181799398Y-133725466D01*
X181799398Y-133750000D01*
X181800000Y-133750000D01*
X181800000Y-134250000D01*
X181799398Y-134250000D01*
X181799398Y-134274534D01*
X181794588Y-134323365D01*
X181785016Y-134371490D01*
X181770772Y-134418445D01*
X181751995Y-134463778D01*
X181728864Y-134507051D01*
X181701604Y-134547850D01*
X181670476Y-134585779D01*
X181635779Y-134620476D01*
X181597850Y-134651604D01*
X181557051Y-134678864D01*
X181513778Y-134701995D01*
X181468445Y-134720772D01*
X181421490Y-134735016D01*
X181373365Y-134744588D01*
X181324534Y-134749398D01*
X181300000Y-134749398D01*
X181300000Y-134750000D01*
X180750000Y-134750000D01*
X180750000Y-133250000D01*
X181300000Y-133250000D01*
X181300000Y-133250602D01*
X181300000Y-133250602D01*
G37*
D22*
G04 #@! TO.P,JP2,1*
G04 #@! TO.N,PWM_12_*
X178700000Y-134000000D03*
D15*
G04 #@! TD*
G04 #@! TO.N,PWM_12_*
G04 #@! TO.C,JP2*
G36*
X179250000Y-134750000D02*
X178700000Y-134750000D01*
X178700000Y-134749398D01*
X178675466Y-134749398D01*
X178626635Y-134744588D01*
X178578510Y-134735016D01*
X178531555Y-134720772D01*
X178486222Y-134701995D01*
X178442949Y-134678864D01*
X178402150Y-134651604D01*
X178364221Y-134620476D01*
X178329524Y-134585779D01*
X178298396Y-134547850D01*
X178271136Y-134507051D01*
X178248005Y-134463778D01*
X178229228Y-134418445D01*
X178214984Y-134371490D01*
X178205412Y-134323365D01*
X178200602Y-134274534D01*
X178200602Y-134250000D01*
X178200000Y-134250000D01*
X178200000Y-133750000D01*
X178200602Y-133750000D01*
X178200602Y-133725466D01*
X178205412Y-133676635D01*
X178214984Y-133628510D01*
X178229228Y-133581555D01*
X178248005Y-133536222D01*
X178271136Y-133492949D01*
X178298396Y-133452150D01*
X178329524Y-133414221D01*
X178364221Y-133379524D01*
X178402150Y-133348396D01*
X178442949Y-133321136D01*
X178486222Y-133298005D01*
X178531555Y-133279228D01*
X178578510Y-133264984D01*
X178626635Y-133255412D01*
X178675466Y-133250602D01*
X178700000Y-133250602D01*
X178700000Y-133250000D01*
X179250000Y-133250000D01*
X179250000Y-134750000D01*
X179250000Y-134750000D01*
G37*
D21*
G04 #@! TO.P,JP3,2*
G04 #@! TO.N,PWM_14*
X168450000Y-134000000D03*
D22*
G04 #@! TO.P,JP3,3*
G04 #@! TO.N,DigitalOutput5*
X169750000Y-134000000D03*
D15*
G04 #@! TD*
G04 #@! TO.N,DigitalOutput5*
G04 #@! TO.C,JP3*
G36*
X169750000Y-133250602D02*
X169774534Y-133250602D01*
X169823365Y-133255412D01*
X169871490Y-133264984D01*
X169918445Y-133279228D01*
X169963778Y-133298005D01*
X170007051Y-133321136D01*
X170047850Y-133348396D01*
X170085779Y-133379524D01*
X170120476Y-133414221D01*
X170151604Y-133452150D01*
X170178864Y-133492949D01*
X170201995Y-133536222D01*
X170220772Y-133581555D01*
X170235016Y-133628510D01*
X170244588Y-133676635D01*
X170249398Y-133725466D01*
X170249398Y-133750000D01*
X170250000Y-133750000D01*
X170250000Y-134250000D01*
X170249398Y-134250000D01*
X170249398Y-134274534D01*
X170244588Y-134323365D01*
X170235016Y-134371490D01*
X170220772Y-134418445D01*
X170201995Y-134463778D01*
X170178864Y-134507051D01*
X170151604Y-134547850D01*
X170120476Y-134585779D01*
X170085779Y-134620476D01*
X170047850Y-134651604D01*
X170007051Y-134678864D01*
X169963778Y-134701995D01*
X169918445Y-134720772D01*
X169871490Y-134735016D01*
X169823365Y-134744588D01*
X169774534Y-134749398D01*
X169750000Y-134749398D01*
X169750000Y-134750000D01*
X169200000Y-134750000D01*
X169200000Y-133250000D01*
X169750000Y-133250000D01*
X169750000Y-133250602D01*
X169750000Y-133250602D01*
G37*
D22*
G04 #@! TO.P,JP3,1*
G04 #@! TO.N,PWM_14_*
X167150000Y-134000000D03*
D15*
G04 #@! TD*
G04 #@! TO.N,PWM_14_*
G04 #@! TO.C,JP3*
G36*
X167700000Y-134750000D02*
X167150000Y-134750000D01*
X167150000Y-134749398D01*
X167125466Y-134749398D01*
X167076635Y-134744588D01*
X167028510Y-134735016D01*
X166981555Y-134720772D01*
X166936222Y-134701995D01*
X166892949Y-134678864D01*
X166852150Y-134651604D01*
X166814221Y-134620476D01*
X166779524Y-134585779D01*
X166748396Y-134547850D01*
X166721136Y-134507051D01*
X166698005Y-134463778D01*
X166679228Y-134418445D01*
X166664984Y-134371490D01*
X166655412Y-134323365D01*
X166650602Y-134274534D01*
X166650602Y-134250000D01*
X166650000Y-134250000D01*
X166650000Y-133750000D01*
X166650602Y-133750000D01*
X166650602Y-133725466D01*
X166655412Y-133676635D01*
X166664984Y-133628510D01*
X166679228Y-133581555D01*
X166698005Y-133536222D01*
X166721136Y-133492949D01*
X166748396Y-133452150D01*
X166779524Y-133414221D01*
X166814221Y-133379524D01*
X166852150Y-133348396D01*
X166892949Y-133321136D01*
X166936222Y-133298005D01*
X166981555Y-133279228D01*
X167028510Y-133264984D01*
X167076635Y-133255412D01*
X167125466Y-133250602D01*
X167150000Y-133250602D01*
X167150000Y-133250000D01*
X167700000Y-133250000D01*
X167700000Y-134750000D01*
X167700000Y-134750000D01*
G37*
D21*
G04 #@! TO.P,JP4,2*
G04 #@! TO.N,PWM_15*
X162950000Y-134000000D03*
D22*
G04 #@! TO.P,JP4,3*
G04 #@! TO.N,DigitalOutput6*
X164250000Y-134000000D03*
D15*
G04 #@! TD*
G04 #@! TO.N,DigitalOutput6*
G04 #@! TO.C,JP4*
G36*
X164250000Y-133250602D02*
X164274534Y-133250602D01*
X164323365Y-133255412D01*
X164371490Y-133264984D01*
X164418445Y-133279228D01*
X164463778Y-133298005D01*
X164507051Y-133321136D01*
X164547850Y-133348396D01*
X164585779Y-133379524D01*
X164620476Y-133414221D01*
X164651604Y-133452150D01*
X164678864Y-133492949D01*
X164701995Y-133536222D01*
X164720772Y-133581555D01*
X164735016Y-133628510D01*
X164744588Y-133676635D01*
X164749398Y-133725466D01*
X164749398Y-133750000D01*
X164750000Y-133750000D01*
X164750000Y-134250000D01*
X164749398Y-134250000D01*
X164749398Y-134274534D01*
X164744588Y-134323365D01*
X164735016Y-134371490D01*
X164720772Y-134418445D01*
X164701995Y-134463778D01*
X164678864Y-134507051D01*
X164651604Y-134547850D01*
X164620476Y-134585779D01*
X164585779Y-134620476D01*
X164547850Y-134651604D01*
X164507051Y-134678864D01*
X164463778Y-134701995D01*
X164418445Y-134720772D01*
X164371490Y-134735016D01*
X164323365Y-134744588D01*
X164274534Y-134749398D01*
X164250000Y-134749398D01*
X164250000Y-134750000D01*
X163700000Y-134750000D01*
X163700000Y-133250000D01*
X164250000Y-133250000D01*
X164250000Y-133250602D01*
X164250000Y-133250602D01*
G37*
D22*
G04 #@! TO.P,JP4,1*
G04 #@! TO.N,PWM_15_*
X161650000Y-134000000D03*
D15*
G04 #@! TD*
G04 #@! TO.N,PWM_15_*
G04 #@! TO.C,JP4*
G36*
X162200000Y-134750000D02*
X161650000Y-134750000D01*
X161650000Y-134749398D01*
X161625466Y-134749398D01*
X161576635Y-134744588D01*
X161528510Y-134735016D01*
X161481555Y-134720772D01*
X161436222Y-134701995D01*
X161392949Y-134678864D01*
X161352150Y-134651604D01*
X161314221Y-134620476D01*
X161279524Y-134585779D01*
X161248396Y-134547850D01*
X161221136Y-134507051D01*
X161198005Y-134463778D01*
X161179228Y-134418445D01*
X161164984Y-134371490D01*
X161155412Y-134323365D01*
X161150602Y-134274534D01*
X161150602Y-134250000D01*
X161150000Y-134250000D01*
X161150000Y-133750000D01*
X161150602Y-133750000D01*
X161150602Y-133725466D01*
X161155412Y-133676635D01*
X161164984Y-133628510D01*
X161179228Y-133581555D01*
X161198005Y-133536222D01*
X161221136Y-133492949D01*
X161248396Y-133452150D01*
X161279524Y-133414221D01*
X161314221Y-133379524D01*
X161352150Y-133348396D01*
X161392949Y-133321136D01*
X161436222Y-133298005D01*
X161481555Y-133279228D01*
X161528510Y-133264984D01*
X161576635Y-133255412D01*
X161625466Y-133250602D01*
X161650000Y-133250602D01*
X161650000Y-133250000D01*
X162200000Y-133250000D01*
X162200000Y-134750000D01*
X162200000Y-134750000D01*
G37*
G04 #@! TO.N,SDA_iso*
G04 #@! TO.C,R1*
G36*
X193224505Y-85676204D02*
X193248773Y-85679804D01*
X193272572Y-85685765D01*
X193295671Y-85694030D01*
X193317850Y-85704520D01*
X193338893Y-85717132D01*
X193358599Y-85731747D01*
X193376777Y-85748223D01*
X193393253Y-85766401D01*
X193407868Y-85786107D01*
X193420480Y-85807150D01*
X193430970Y-85829329D01*
X193439235Y-85852428D01*
X193445196Y-85876227D01*
X193448796Y-85900495D01*
X193450000Y-85924999D01*
X193450000Y-86575001D01*
X193448796Y-86599505D01*
X193445196Y-86623773D01*
X193439235Y-86647572D01*
X193430970Y-86670671D01*
X193420480Y-86692850D01*
X193407868Y-86713893D01*
X193393253Y-86733599D01*
X193376777Y-86751777D01*
X193358599Y-86768253D01*
X193338893Y-86782868D01*
X193317850Y-86795480D01*
X193295671Y-86805970D01*
X193272572Y-86814235D01*
X193248773Y-86820196D01*
X193224505Y-86823796D01*
X193200001Y-86825000D01*
X192299999Y-86825000D01*
X192275495Y-86823796D01*
X192251227Y-86820196D01*
X192227428Y-86814235D01*
X192204329Y-86805970D01*
X192182150Y-86795480D01*
X192161107Y-86782868D01*
X192141401Y-86768253D01*
X192123223Y-86751777D01*
X192106747Y-86733599D01*
X192092132Y-86713893D01*
X192079520Y-86692850D01*
X192069030Y-86670671D01*
X192060765Y-86647572D01*
X192054804Y-86623773D01*
X192051204Y-86599505D01*
X192050000Y-86575001D01*
X192050000Y-85924999D01*
X192051204Y-85900495D01*
X192054804Y-85876227D01*
X192060765Y-85852428D01*
X192069030Y-85829329D01*
X192079520Y-85807150D01*
X192092132Y-85786107D01*
X192106747Y-85766401D01*
X192123223Y-85748223D01*
X192141401Y-85731747D01*
X192161107Y-85717132D01*
X192182150Y-85704520D01*
X192204329Y-85694030D01*
X192227428Y-85685765D01*
X192251227Y-85679804D01*
X192275495Y-85676204D01*
X192299999Y-85675000D01*
X193200001Y-85675000D01*
X193224505Y-85676204D01*
X193224505Y-85676204D01*
G37*
D20*
G04 #@! TD*
G04 #@! TO.P,R1,2*
G04 #@! TO.N,SDA_iso*
X192750000Y-86250000D03*
D15*
G04 #@! TO.N,+5VP*
G04 #@! TO.C,R1*
G36*
X193224505Y-83626204D02*
X193248773Y-83629804D01*
X193272572Y-83635765D01*
X193295671Y-83644030D01*
X193317850Y-83654520D01*
X193338893Y-83667132D01*
X193358599Y-83681747D01*
X193376777Y-83698223D01*
X193393253Y-83716401D01*
X193407868Y-83736107D01*
X193420480Y-83757150D01*
X193430970Y-83779329D01*
X193439235Y-83802428D01*
X193445196Y-83826227D01*
X193448796Y-83850495D01*
X193450000Y-83874999D01*
X193450000Y-84525001D01*
X193448796Y-84549505D01*
X193445196Y-84573773D01*
X193439235Y-84597572D01*
X193430970Y-84620671D01*
X193420480Y-84642850D01*
X193407868Y-84663893D01*
X193393253Y-84683599D01*
X193376777Y-84701777D01*
X193358599Y-84718253D01*
X193338893Y-84732868D01*
X193317850Y-84745480D01*
X193295671Y-84755970D01*
X193272572Y-84764235D01*
X193248773Y-84770196D01*
X193224505Y-84773796D01*
X193200001Y-84775000D01*
X192299999Y-84775000D01*
X192275495Y-84773796D01*
X192251227Y-84770196D01*
X192227428Y-84764235D01*
X192204329Y-84755970D01*
X192182150Y-84745480D01*
X192161107Y-84732868D01*
X192141401Y-84718253D01*
X192123223Y-84701777D01*
X192106747Y-84683599D01*
X192092132Y-84663893D01*
X192079520Y-84642850D01*
X192069030Y-84620671D01*
X192060765Y-84597572D01*
X192054804Y-84573773D01*
X192051204Y-84549505D01*
X192050000Y-84525001D01*
X192050000Y-83874999D01*
X192051204Y-83850495D01*
X192054804Y-83826227D01*
X192060765Y-83802428D01*
X192069030Y-83779329D01*
X192079520Y-83757150D01*
X192092132Y-83736107D01*
X192106747Y-83716401D01*
X192123223Y-83698223D01*
X192141401Y-83681747D01*
X192161107Y-83667132D01*
X192182150Y-83654520D01*
X192204329Y-83644030D01*
X192227428Y-83635765D01*
X192251227Y-83629804D01*
X192275495Y-83626204D01*
X192299999Y-83625000D01*
X193200001Y-83625000D01*
X193224505Y-83626204D01*
X193224505Y-83626204D01*
G37*
D20*
G04 #@! TD*
G04 #@! TO.P,R1,1*
G04 #@! TO.N,+5VP*
X192750000Y-84200000D03*
D15*
G04 #@! TO.N,+5VP*
G04 #@! TO.C,R2*
G36*
X191074505Y-88301204D02*
X191098773Y-88304804D01*
X191122572Y-88310765D01*
X191145671Y-88319030D01*
X191167850Y-88329520D01*
X191188893Y-88342132D01*
X191208599Y-88356747D01*
X191226777Y-88373223D01*
X191243253Y-88391401D01*
X191257868Y-88411107D01*
X191270480Y-88432150D01*
X191280970Y-88454329D01*
X191289235Y-88477428D01*
X191295196Y-88501227D01*
X191298796Y-88525495D01*
X191300000Y-88549999D01*
X191300000Y-89450001D01*
X191298796Y-89474505D01*
X191295196Y-89498773D01*
X191289235Y-89522572D01*
X191280970Y-89545671D01*
X191270480Y-89567850D01*
X191257868Y-89588893D01*
X191243253Y-89608599D01*
X191226777Y-89626777D01*
X191208599Y-89643253D01*
X191188893Y-89657868D01*
X191167850Y-89670480D01*
X191145671Y-89680970D01*
X191122572Y-89689235D01*
X191098773Y-89695196D01*
X191074505Y-89698796D01*
X191050001Y-89700000D01*
X190399999Y-89700000D01*
X190375495Y-89698796D01*
X190351227Y-89695196D01*
X190327428Y-89689235D01*
X190304329Y-89680970D01*
X190282150Y-89670480D01*
X190261107Y-89657868D01*
X190241401Y-89643253D01*
X190223223Y-89626777D01*
X190206747Y-89608599D01*
X190192132Y-89588893D01*
X190179520Y-89567850D01*
X190169030Y-89545671D01*
X190160765Y-89522572D01*
X190154804Y-89498773D01*
X190151204Y-89474505D01*
X190150000Y-89450001D01*
X190150000Y-88549999D01*
X190151204Y-88525495D01*
X190154804Y-88501227D01*
X190160765Y-88477428D01*
X190169030Y-88454329D01*
X190179520Y-88432150D01*
X190192132Y-88411107D01*
X190206747Y-88391401D01*
X190223223Y-88373223D01*
X190241401Y-88356747D01*
X190261107Y-88342132D01*
X190282150Y-88329520D01*
X190304329Y-88319030D01*
X190327428Y-88310765D01*
X190351227Y-88304804D01*
X190375495Y-88301204D01*
X190399999Y-88300000D01*
X191050001Y-88300000D01*
X191074505Y-88301204D01*
X191074505Y-88301204D01*
G37*
D20*
G04 #@! TD*
G04 #@! TO.P,R2,2*
G04 #@! TO.N,+5VP*
X190725000Y-89000000D03*
D15*
G04 #@! TO.N,SCL_iso*
G04 #@! TO.C,R2*
G36*
X193124505Y-88301204D02*
X193148773Y-88304804D01*
X193172572Y-88310765D01*
X193195671Y-88319030D01*
X193217850Y-88329520D01*
X193238893Y-88342132D01*
X193258599Y-88356747D01*
X193276777Y-88373223D01*
X193293253Y-88391401D01*
X193307868Y-88411107D01*
X193320480Y-88432150D01*
X193330970Y-88454329D01*
X193339235Y-88477428D01*
X193345196Y-88501227D01*
X193348796Y-88525495D01*
X193350000Y-88549999D01*
X193350000Y-89450001D01*
X193348796Y-89474505D01*
X193345196Y-89498773D01*
X193339235Y-89522572D01*
X193330970Y-89545671D01*
X193320480Y-89567850D01*
X193307868Y-89588893D01*
X193293253Y-89608599D01*
X193276777Y-89626777D01*
X193258599Y-89643253D01*
X193238893Y-89657868D01*
X193217850Y-89670480D01*
X193195671Y-89680970D01*
X193172572Y-89689235D01*
X193148773Y-89695196D01*
X193124505Y-89698796D01*
X193100001Y-89700000D01*
X192449999Y-89700000D01*
X192425495Y-89698796D01*
X192401227Y-89695196D01*
X192377428Y-89689235D01*
X192354329Y-89680970D01*
X192332150Y-89670480D01*
X192311107Y-89657868D01*
X192291401Y-89643253D01*
X192273223Y-89626777D01*
X192256747Y-89608599D01*
X192242132Y-89588893D01*
X192229520Y-89567850D01*
X192219030Y-89545671D01*
X192210765Y-89522572D01*
X192204804Y-89498773D01*
X192201204Y-89474505D01*
X192200000Y-89450001D01*
X192200000Y-88549999D01*
X192201204Y-88525495D01*
X192204804Y-88501227D01*
X192210765Y-88477428D01*
X192219030Y-88454329D01*
X192229520Y-88432150D01*
X192242132Y-88411107D01*
X192256747Y-88391401D01*
X192273223Y-88373223D01*
X192291401Y-88356747D01*
X192311107Y-88342132D01*
X192332150Y-88329520D01*
X192354329Y-88319030D01*
X192377428Y-88310765D01*
X192401227Y-88304804D01*
X192425495Y-88301204D01*
X192449999Y-88300000D01*
X193100001Y-88300000D01*
X193124505Y-88301204D01*
X193124505Y-88301204D01*
G37*
D20*
G04 #@! TD*
G04 #@! TO.P,R2,1*
G04 #@! TO.N,SCL_iso*
X192775000Y-89000000D03*
D15*
G04 #@! TO.N,Net-(C7-Pad2)*
G04 #@! TO.C,C7*
G36*
X162474505Y-109226204D02*
X162498773Y-109229804D01*
X162522572Y-109235765D01*
X162545671Y-109244030D01*
X162567850Y-109254520D01*
X162588893Y-109267132D01*
X162608599Y-109281747D01*
X162626777Y-109298223D01*
X162643253Y-109316401D01*
X162657868Y-109336107D01*
X162670480Y-109357150D01*
X162680970Y-109379329D01*
X162689235Y-109402428D01*
X162695196Y-109426227D01*
X162698796Y-109450495D01*
X162700000Y-109474999D01*
X162700000Y-110125001D01*
X162698796Y-110149505D01*
X162695196Y-110173773D01*
X162689235Y-110197572D01*
X162680970Y-110220671D01*
X162670480Y-110242850D01*
X162657868Y-110263893D01*
X162643253Y-110283599D01*
X162626777Y-110301777D01*
X162608599Y-110318253D01*
X162588893Y-110332868D01*
X162567850Y-110345480D01*
X162545671Y-110355970D01*
X162522572Y-110364235D01*
X162498773Y-110370196D01*
X162474505Y-110373796D01*
X162450001Y-110375000D01*
X161549999Y-110375000D01*
X161525495Y-110373796D01*
X161501227Y-110370196D01*
X161477428Y-110364235D01*
X161454329Y-110355970D01*
X161432150Y-110345480D01*
X161411107Y-110332868D01*
X161391401Y-110318253D01*
X161373223Y-110301777D01*
X161356747Y-110283599D01*
X161342132Y-110263893D01*
X161329520Y-110242850D01*
X161319030Y-110220671D01*
X161310765Y-110197572D01*
X161304804Y-110173773D01*
X161301204Y-110149505D01*
X161300000Y-110125001D01*
X161300000Y-109474999D01*
X161301204Y-109450495D01*
X161304804Y-109426227D01*
X161310765Y-109402428D01*
X161319030Y-109379329D01*
X161329520Y-109357150D01*
X161342132Y-109336107D01*
X161356747Y-109316401D01*
X161373223Y-109298223D01*
X161391401Y-109281747D01*
X161411107Y-109267132D01*
X161432150Y-109254520D01*
X161454329Y-109244030D01*
X161477428Y-109235765D01*
X161501227Y-109229804D01*
X161525495Y-109226204D01*
X161549999Y-109225000D01*
X162450001Y-109225000D01*
X162474505Y-109226204D01*
X162474505Y-109226204D01*
G37*
D20*
G04 #@! TD*
G04 #@! TO.P,C7,2*
G04 #@! TO.N,Net-(C7-Pad2)*
X162000000Y-109800000D03*
D15*
G04 #@! TO.N,Net-(C7-Pad1)*
G04 #@! TO.C,C7*
G36*
X162474505Y-107176204D02*
X162498773Y-107179804D01*
X162522572Y-107185765D01*
X162545671Y-107194030D01*
X162567850Y-107204520D01*
X162588893Y-107217132D01*
X162608599Y-107231747D01*
X162626777Y-107248223D01*
X162643253Y-107266401D01*
X162657868Y-107286107D01*
X162670480Y-107307150D01*
X162680970Y-107329329D01*
X162689235Y-107352428D01*
X162695196Y-107376227D01*
X162698796Y-107400495D01*
X162700000Y-107424999D01*
X162700000Y-108075001D01*
X162698796Y-108099505D01*
X162695196Y-108123773D01*
X162689235Y-108147572D01*
X162680970Y-108170671D01*
X162670480Y-108192850D01*
X162657868Y-108213893D01*
X162643253Y-108233599D01*
X162626777Y-108251777D01*
X162608599Y-108268253D01*
X162588893Y-108282868D01*
X162567850Y-108295480D01*
X162545671Y-108305970D01*
X162522572Y-108314235D01*
X162498773Y-108320196D01*
X162474505Y-108323796D01*
X162450001Y-108325000D01*
X161549999Y-108325000D01*
X161525495Y-108323796D01*
X161501227Y-108320196D01*
X161477428Y-108314235D01*
X161454329Y-108305970D01*
X161432150Y-108295480D01*
X161411107Y-108282868D01*
X161391401Y-108268253D01*
X161373223Y-108251777D01*
X161356747Y-108233599D01*
X161342132Y-108213893D01*
X161329520Y-108192850D01*
X161319030Y-108170671D01*
X161310765Y-108147572D01*
X161304804Y-108123773D01*
X161301204Y-108099505D01*
X161300000Y-108075001D01*
X161300000Y-107424999D01*
X161301204Y-107400495D01*
X161304804Y-107376227D01*
X161310765Y-107352428D01*
X161319030Y-107329329D01*
X161329520Y-107307150D01*
X161342132Y-107286107D01*
X161356747Y-107266401D01*
X161373223Y-107248223D01*
X161391401Y-107231747D01*
X161411107Y-107217132D01*
X161432150Y-107204520D01*
X161454329Y-107194030D01*
X161477428Y-107185765D01*
X161501227Y-107179804D01*
X161525495Y-107176204D01*
X161549999Y-107175000D01*
X162450001Y-107175000D01*
X162474505Y-107176204D01*
X162474505Y-107176204D01*
G37*
D20*
G04 #@! TD*
G04 #@! TO.P,C7,1*
G04 #@! TO.N,Net-(C7-Pad1)*
X162000000Y-107750000D03*
D15*
G04 #@! TO.N,Net-(C8-Pad2)*
G04 #@! TO.C,C8*
G36*
X162474505Y-105176204D02*
X162498773Y-105179804D01*
X162522572Y-105185765D01*
X162545671Y-105194030D01*
X162567850Y-105204520D01*
X162588893Y-105217132D01*
X162608599Y-105231747D01*
X162626777Y-105248223D01*
X162643253Y-105266401D01*
X162657868Y-105286107D01*
X162670480Y-105307150D01*
X162680970Y-105329329D01*
X162689235Y-105352428D01*
X162695196Y-105376227D01*
X162698796Y-105400495D01*
X162700000Y-105424999D01*
X162700000Y-106075001D01*
X162698796Y-106099505D01*
X162695196Y-106123773D01*
X162689235Y-106147572D01*
X162680970Y-106170671D01*
X162670480Y-106192850D01*
X162657868Y-106213893D01*
X162643253Y-106233599D01*
X162626777Y-106251777D01*
X162608599Y-106268253D01*
X162588893Y-106282868D01*
X162567850Y-106295480D01*
X162545671Y-106305970D01*
X162522572Y-106314235D01*
X162498773Y-106320196D01*
X162474505Y-106323796D01*
X162450001Y-106325000D01*
X161549999Y-106325000D01*
X161525495Y-106323796D01*
X161501227Y-106320196D01*
X161477428Y-106314235D01*
X161454329Y-106305970D01*
X161432150Y-106295480D01*
X161411107Y-106282868D01*
X161391401Y-106268253D01*
X161373223Y-106251777D01*
X161356747Y-106233599D01*
X161342132Y-106213893D01*
X161329520Y-106192850D01*
X161319030Y-106170671D01*
X161310765Y-106147572D01*
X161304804Y-106123773D01*
X161301204Y-106099505D01*
X161300000Y-106075001D01*
X161300000Y-105424999D01*
X161301204Y-105400495D01*
X161304804Y-105376227D01*
X161310765Y-105352428D01*
X161319030Y-105329329D01*
X161329520Y-105307150D01*
X161342132Y-105286107D01*
X161356747Y-105266401D01*
X161373223Y-105248223D01*
X161391401Y-105231747D01*
X161411107Y-105217132D01*
X161432150Y-105204520D01*
X161454329Y-105194030D01*
X161477428Y-105185765D01*
X161501227Y-105179804D01*
X161525495Y-105176204D01*
X161549999Y-105175000D01*
X162450001Y-105175000D01*
X162474505Y-105176204D01*
X162474505Y-105176204D01*
G37*
D20*
G04 #@! TD*
G04 #@! TO.P,C8,2*
G04 #@! TO.N,Net-(C8-Pad2)*
X162000000Y-105750000D03*
D15*
G04 #@! TO.N,Net-(C8-Pad1)*
G04 #@! TO.C,C8*
G36*
X162474505Y-103126204D02*
X162498773Y-103129804D01*
X162522572Y-103135765D01*
X162545671Y-103144030D01*
X162567850Y-103154520D01*
X162588893Y-103167132D01*
X162608599Y-103181747D01*
X162626777Y-103198223D01*
X162643253Y-103216401D01*
X162657868Y-103236107D01*
X162670480Y-103257150D01*
X162680970Y-103279329D01*
X162689235Y-103302428D01*
X162695196Y-103326227D01*
X162698796Y-103350495D01*
X162700000Y-103374999D01*
X162700000Y-104025001D01*
X162698796Y-104049505D01*
X162695196Y-104073773D01*
X162689235Y-104097572D01*
X162680970Y-104120671D01*
X162670480Y-104142850D01*
X162657868Y-104163893D01*
X162643253Y-104183599D01*
X162626777Y-104201777D01*
X162608599Y-104218253D01*
X162588893Y-104232868D01*
X162567850Y-104245480D01*
X162545671Y-104255970D01*
X162522572Y-104264235D01*
X162498773Y-104270196D01*
X162474505Y-104273796D01*
X162450001Y-104275000D01*
X161549999Y-104275000D01*
X161525495Y-104273796D01*
X161501227Y-104270196D01*
X161477428Y-104264235D01*
X161454329Y-104255970D01*
X161432150Y-104245480D01*
X161411107Y-104232868D01*
X161391401Y-104218253D01*
X161373223Y-104201777D01*
X161356747Y-104183599D01*
X161342132Y-104163893D01*
X161329520Y-104142850D01*
X161319030Y-104120671D01*
X161310765Y-104097572D01*
X161304804Y-104073773D01*
X161301204Y-104049505D01*
X161300000Y-104025001D01*
X161300000Y-103374999D01*
X161301204Y-103350495D01*
X161304804Y-103326227D01*
X161310765Y-103302428D01*
X161319030Y-103279329D01*
X161329520Y-103257150D01*
X161342132Y-103236107D01*
X161356747Y-103216401D01*
X161373223Y-103198223D01*
X161391401Y-103181747D01*
X161411107Y-103167132D01*
X161432150Y-103154520D01*
X161454329Y-103144030D01*
X161477428Y-103135765D01*
X161501227Y-103129804D01*
X161525495Y-103126204D01*
X161549999Y-103125000D01*
X162450001Y-103125000D01*
X162474505Y-103126204D01*
X162474505Y-103126204D01*
G37*
D20*
G04 #@! TD*
G04 #@! TO.P,C8,1*
G04 #@! TO.N,Net-(C8-Pad1)*
X162000000Y-103700000D03*
D15*
G04 #@! TO.N,GNDPWR*
G04 #@! TO.C,C10*
G36*
X175724505Y-105726204D02*
X175748773Y-105729804D01*
X175772572Y-105735765D01*
X175795671Y-105744030D01*
X175817850Y-105754520D01*
X175838893Y-105767132D01*
X175858599Y-105781747D01*
X175876777Y-105798223D01*
X175893253Y-105816401D01*
X175907868Y-105836107D01*
X175920480Y-105857150D01*
X175930970Y-105879329D01*
X175939235Y-105902428D01*
X175945196Y-105926227D01*
X175948796Y-105950495D01*
X175950000Y-105974999D01*
X175950000Y-106625001D01*
X175948796Y-106649505D01*
X175945196Y-106673773D01*
X175939235Y-106697572D01*
X175930970Y-106720671D01*
X175920480Y-106742850D01*
X175907868Y-106763893D01*
X175893253Y-106783599D01*
X175876777Y-106801777D01*
X175858599Y-106818253D01*
X175838893Y-106832868D01*
X175817850Y-106845480D01*
X175795671Y-106855970D01*
X175772572Y-106864235D01*
X175748773Y-106870196D01*
X175724505Y-106873796D01*
X175700001Y-106875000D01*
X174799999Y-106875000D01*
X174775495Y-106873796D01*
X174751227Y-106870196D01*
X174727428Y-106864235D01*
X174704329Y-106855970D01*
X174682150Y-106845480D01*
X174661107Y-106832868D01*
X174641401Y-106818253D01*
X174623223Y-106801777D01*
X174606747Y-106783599D01*
X174592132Y-106763893D01*
X174579520Y-106742850D01*
X174569030Y-106720671D01*
X174560765Y-106697572D01*
X174554804Y-106673773D01*
X174551204Y-106649505D01*
X174550000Y-106625001D01*
X174550000Y-105974999D01*
X174551204Y-105950495D01*
X174554804Y-105926227D01*
X174560765Y-105902428D01*
X174569030Y-105879329D01*
X174579520Y-105857150D01*
X174592132Y-105836107D01*
X174606747Y-105816401D01*
X174623223Y-105798223D01*
X174641401Y-105781747D01*
X174661107Y-105767132D01*
X174682150Y-105754520D01*
X174704329Y-105744030D01*
X174727428Y-105735765D01*
X174751227Y-105729804D01*
X174775495Y-105726204D01*
X174799999Y-105725000D01*
X175700001Y-105725000D01*
X175724505Y-105726204D01*
X175724505Y-105726204D01*
G37*
D20*
G04 #@! TD*
G04 #@! TO.P,C10,2*
G04 #@! TO.N,GNDPWR*
X175250000Y-106300000D03*
D15*
G04 #@! TO.N,+3V3*
G04 #@! TO.C,C10*
G36*
X175724505Y-103676204D02*
X175748773Y-103679804D01*
X175772572Y-103685765D01*
X175795671Y-103694030D01*
X175817850Y-103704520D01*
X175838893Y-103717132D01*
X175858599Y-103731747D01*
X175876777Y-103748223D01*
X175893253Y-103766401D01*
X175907868Y-103786107D01*
X175920480Y-103807150D01*
X175930970Y-103829329D01*
X175939235Y-103852428D01*
X175945196Y-103876227D01*
X175948796Y-103900495D01*
X175950000Y-103924999D01*
X175950000Y-104575001D01*
X175948796Y-104599505D01*
X175945196Y-104623773D01*
X175939235Y-104647572D01*
X175930970Y-104670671D01*
X175920480Y-104692850D01*
X175907868Y-104713893D01*
X175893253Y-104733599D01*
X175876777Y-104751777D01*
X175858599Y-104768253D01*
X175838893Y-104782868D01*
X175817850Y-104795480D01*
X175795671Y-104805970D01*
X175772572Y-104814235D01*
X175748773Y-104820196D01*
X175724505Y-104823796D01*
X175700001Y-104825000D01*
X174799999Y-104825000D01*
X174775495Y-104823796D01*
X174751227Y-104820196D01*
X174727428Y-104814235D01*
X174704329Y-104805970D01*
X174682150Y-104795480D01*
X174661107Y-104782868D01*
X174641401Y-104768253D01*
X174623223Y-104751777D01*
X174606747Y-104733599D01*
X174592132Y-104713893D01*
X174579520Y-104692850D01*
X174569030Y-104670671D01*
X174560765Y-104647572D01*
X174554804Y-104623773D01*
X174551204Y-104599505D01*
X174550000Y-104575001D01*
X174550000Y-103924999D01*
X174551204Y-103900495D01*
X174554804Y-103876227D01*
X174560765Y-103852428D01*
X174569030Y-103829329D01*
X174579520Y-103807150D01*
X174592132Y-103786107D01*
X174606747Y-103766401D01*
X174623223Y-103748223D01*
X174641401Y-103731747D01*
X174661107Y-103717132D01*
X174682150Y-103704520D01*
X174704329Y-103694030D01*
X174727428Y-103685765D01*
X174751227Y-103679804D01*
X174775495Y-103676204D01*
X174799999Y-103675000D01*
X175700001Y-103675000D01*
X175724505Y-103676204D01*
X175724505Y-103676204D01*
G37*
D20*
G04 #@! TD*
G04 #@! TO.P,C10,1*
G04 #@! TO.N,+3V3*
X175250000Y-104250000D03*
D15*
G04 #@! TO.N,Net-(C6-Pad2)*
G04 #@! TO.C,C6*
G36*
X167599505Y-108551204D02*
X167623773Y-108554804D01*
X167647572Y-108560765D01*
X167670671Y-108569030D01*
X167692850Y-108579520D01*
X167713893Y-108592132D01*
X167733599Y-108606747D01*
X167751777Y-108623223D01*
X167768253Y-108641401D01*
X167782868Y-108661107D01*
X167795480Y-108682150D01*
X167805970Y-108704329D01*
X167814235Y-108727428D01*
X167820196Y-108751227D01*
X167823796Y-108775495D01*
X167825000Y-108799999D01*
X167825000Y-109700001D01*
X167823796Y-109724505D01*
X167820196Y-109748773D01*
X167814235Y-109772572D01*
X167805970Y-109795671D01*
X167795480Y-109817850D01*
X167782868Y-109838893D01*
X167768253Y-109858599D01*
X167751777Y-109876777D01*
X167733599Y-109893253D01*
X167713893Y-109907868D01*
X167692850Y-109920480D01*
X167670671Y-109930970D01*
X167647572Y-109939235D01*
X167623773Y-109945196D01*
X167599505Y-109948796D01*
X167575001Y-109950000D01*
X166924999Y-109950000D01*
X166900495Y-109948796D01*
X166876227Y-109945196D01*
X166852428Y-109939235D01*
X166829329Y-109930970D01*
X166807150Y-109920480D01*
X166786107Y-109907868D01*
X166766401Y-109893253D01*
X166748223Y-109876777D01*
X166731747Y-109858599D01*
X166717132Y-109838893D01*
X166704520Y-109817850D01*
X166694030Y-109795671D01*
X166685765Y-109772572D01*
X166679804Y-109748773D01*
X166676204Y-109724505D01*
X166675000Y-109700001D01*
X166675000Y-108799999D01*
X166676204Y-108775495D01*
X166679804Y-108751227D01*
X166685765Y-108727428D01*
X166694030Y-108704329D01*
X166704520Y-108682150D01*
X166717132Y-108661107D01*
X166731747Y-108641401D01*
X166748223Y-108623223D01*
X166766401Y-108606747D01*
X166786107Y-108592132D01*
X166807150Y-108579520D01*
X166829329Y-108569030D01*
X166852428Y-108560765D01*
X166876227Y-108554804D01*
X166900495Y-108551204D01*
X166924999Y-108550000D01*
X167575001Y-108550000D01*
X167599505Y-108551204D01*
X167599505Y-108551204D01*
G37*
D20*
G04 #@! TD*
G04 #@! TO.P,C6,2*
G04 #@! TO.N,Net-(C6-Pad2)*
X167250000Y-109250000D03*
D15*
G04 #@! TO.N,Net-(C6-Pad1)*
G04 #@! TO.C,C6*
G36*
X165549505Y-108551204D02*
X165573773Y-108554804D01*
X165597572Y-108560765D01*
X165620671Y-108569030D01*
X165642850Y-108579520D01*
X165663893Y-108592132D01*
X165683599Y-108606747D01*
X165701777Y-108623223D01*
X165718253Y-108641401D01*
X165732868Y-108661107D01*
X165745480Y-108682150D01*
X165755970Y-108704329D01*
X165764235Y-108727428D01*
X165770196Y-108751227D01*
X165773796Y-108775495D01*
X165775000Y-108799999D01*
X165775000Y-109700001D01*
X165773796Y-109724505D01*
X165770196Y-109748773D01*
X165764235Y-109772572D01*
X165755970Y-109795671D01*
X165745480Y-109817850D01*
X165732868Y-109838893D01*
X165718253Y-109858599D01*
X165701777Y-109876777D01*
X165683599Y-109893253D01*
X165663893Y-109907868D01*
X165642850Y-109920480D01*
X165620671Y-109930970D01*
X165597572Y-109939235D01*
X165573773Y-109945196D01*
X165549505Y-109948796D01*
X165525001Y-109950000D01*
X164874999Y-109950000D01*
X164850495Y-109948796D01*
X164826227Y-109945196D01*
X164802428Y-109939235D01*
X164779329Y-109930970D01*
X164757150Y-109920480D01*
X164736107Y-109907868D01*
X164716401Y-109893253D01*
X164698223Y-109876777D01*
X164681747Y-109858599D01*
X164667132Y-109838893D01*
X164654520Y-109817850D01*
X164644030Y-109795671D01*
X164635765Y-109772572D01*
X164629804Y-109748773D01*
X164626204Y-109724505D01*
X164625000Y-109700001D01*
X164625000Y-108799999D01*
X164626204Y-108775495D01*
X164629804Y-108751227D01*
X164635765Y-108727428D01*
X164644030Y-108704329D01*
X164654520Y-108682150D01*
X164667132Y-108661107D01*
X164681747Y-108641401D01*
X164698223Y-108623223D01*
X164716401Y-108606747D01*
X164736107Y-108592132D01*
X164757150Y-108579520D01*
X164779329Y-108569030D01*
X164802428Y-108560765D01*
X164826227Y-108554804D01*
X164850495Y-108551204D01*
X164874999Y-108550000D01*
X165525001Y-108550000D01*
X165549505Y-108551204D01*
X165549505Y-108551204D01*
G37*
D20*
G04 #@! TD*
G04 #@! TO.P,C6,1*
G04 #@! TO.N,Net-(C6-Pad1)*
X165200000Y-109250000D03*
D14*
G04 #@! TO.P,J5,8*
G04 #@! TO.N,+3V3*
X129500000Y-100780000D03*
G04 #@! TO.P,J5,7*
X129500000Y-98240000D03*
G04 #@! TO.P,J5,6*
G04 #@! TO.N,GNDPWR*
X129500000Y-95700000D03*
G04 #@! TO.P,J5,5*
G04 #@! TO.N,Net-(J5-Pad5)*
X129500000Y-93160000D03*
G04 #@! TO.P,J5,4*
G04 #@! TO.N,Net-(J5-Pad4)*
X129500000Y-90620000D03*
G04 #@! TO.P,J5,3*
G04 #@! TO.N,Net-(J5-Pad3)*
X129500000Y-88080000D03*
G04 #@! TO.P,J5,2*
G04 #@! TO.N,SCL_iso*
X129500000Y-85540000D03*
D13*
G04 #@! TO.P,J5,1*
G04 #@! TO.N,SDA_iso*
X129500000Y-83000000D03*
G04 #@! TD*
D15*
G04 #@! TO.N,/temp2n*
G04 #@! TO.C,C2*
G36*
X166499505Y-90201204D02*
X166523773Y-90204804D01*
X166547572Y-90210765D01*
X166570671Y-90219030D01*
X166592850Y-90229520D01*
X166613893Y-90242132D01*
X166633599Y-90256747D01*
X166651777Y-90273223D01*
X166668253Y-90291401D01*
X166682868Y-90311107D01*
X166695480Y-90332150D01*
X166705970Y-90354329D01*
X166714235Y-90377428D01*
X166720196Y-90401227D01*
X166723796Y-90425495D01*
X166725000Y-90449999D01*
X166725000Y-91350001D01*
X166723796Y-91374505D01*
X166720196Y-91398773D01*
X166714235Y-91422572D01*
X166705970Y-91445671D01*
X166695480Y-91467850D01*
X166682868Y-91488893D01*
X166668253Y-91508599D01*
X166651777Y-91526777D01*
X166633599Y-91543253D01*
X166613893Y-91557868D01*
X166592850Y-91570480D01*
X166570671Y-91580970D01*
X166547572Y-91589235D01*
X166523773Y-91595196D01*
X166499505Y-91598796D01*
X166475001Y-91600000D01*
X165824999Y-91600000D01*
X165800495Y-91598796D01*
X165776227Y-91595196D01*
X165752428Y-91589235D01*
X165729329Y-91580970D01*
X165707150Y-91570480D01*
X165686107Y-91557868D01*
X165666401Y-91543253D01*
X165648223Y-91526777D01*
X165631747Y-91508599D01*
X165617132Y-91488893D01*
X165604520Y-91467850D01*
X165594030Y-91445671D01*
X165585765Y-91422572D01*
X165579804Y-91398773D01*
X165576204Y-91374505D01*
X165575000Y-91350001D01*
X165575000Y-90449999D01*
X165576204Y-90425495D01*
X165579804Y-90401227D01*
X165585765Y-90377428D01*
X165594030Y-90354329D01*
X165604520Y-90332150D01*
X165617132Y-90311107D01*
X165631747Y-90291401D01*
X165648223Y-90273223D01*
X165666401Y-90256747D01*
X165686107Y-90242132D01*
X165707150Y-90229520D01*
X165729329Y-90219030D01*
X165752428Y-90210765D01*
X165776227Y-90204804D01*
X165800495Y-90201204D01*
X165824999Y-90200000D01*
X166475001Y-90200000D01*
X166499505Y-90201204D01*
X166499505Y-90201204D01*
G37*
D20*
G04 #@! TD*
G04 #@! TO.P,C2,2*
G04 #@! TO.N,/temp2n*
X166150000Y-90900000D03*
D15*
G04 #@! TO.N,/temp2p*
G04 #@! TO.C,C2*
G36*
X168549505Y-90201204D02*
X168573773Y-90204804D01*
X168597572Y-90210765D01*
X168620671Y-90219030D01*
X168642850Y-90229520D01*
X168663893Y-90242132D01*
X168683599Y-90256747D01*
X168701777Y-90273223D01*
X168718253Y-90291401D01*
X168732868Y-90311107D01*
X168745480Y-90332150D01*
X168755970Y-90354329D01*
X168764235Y-90377428D01*
X168770196Y-90401227D01*
X168773796Y-90425495D01*
X168775000Y-90449999D01*
X168775000Y-91350001D01*
X168773796Y-91374505D01*
X168770196Y-91398773D01*
X168764235Y-91422572D01*
X168755970Y-91445671D01*
X168745480Y-91467850D01*
X168732868Y-91488893D01*
X168718253Y-91508599D01*
X168701777Y-91526777D01*
X168683599Y-91543253D01*
X168663893Y-91557868D01*
X168642850Y-91570480D01*
X168620671Y-91580970D01*
X168597572Y-91589235D01*
X168573773Y-91595196D01*
X168549505Y-91598796D01*
X168525001Y-91600000D01*
X167874999Y-91600000D01*
X167850495Y-91598796D01*
X167826227Y-91595196D01*
X167802428Y-91589235D01*
X167779329Y-91580970D01*
X167757150Y-91570480D01*
X167736107Y-91557868D01*
X167716401Y-91543253D01*
X167698223Y-91526777D01*
X167681747Y-91508599D01*
X167667132Y-91488893D01*
X167654520Y-91467850D01*
X167644030Y-91445671D01*
X167635765Y-91422572D01*
X167629804Y-91398773D01*
X167626204Y-91374505D01*
X167625000Y-91350001D01*
X167625000Y-90449999D01*
X167626204Y-90425495D01*
X167629804Y-90401227D01*
X167635765Y-90377428D01*
X167644030Y-90354329D01*
X167654520Y-90332150D01*
X167667132Y-90311107D01*
X167681747Y-90291401D01*
X167698223Y-90273223D01*
X167716401Y-90256747D01*
X167736107Y-90242132D01*
X167757150Y-90229520D01*
X167779329Y-90219030D01*
X167802428Y-90210765D01*
X167826227Y-90204804D01*
X167850495Y-90201204D01*
X167874999Y-90200000D01*
X168525001Y-90200000D01*
X168549505Y-90201204D01*
X168549505Y-90201204D01*
G37*
D20*
G04 #@! TD*
G04 #@! TO.P,C2,1*
G04 #@! TO.N,/temp2p*
X168200000Y-90900000D03*
D15*
G04 #@! TO.N,GNDPWR*
G04 #@! TO.C,C3*
G36*
X162674505Y-95526204D02*
X162698773Y-95529804D01*
X162722572Y-95535765D01*
X162745671Y-95544030D01*
X162767850Y-95554520D01*
X162788893Y-95567132D01*
X162808599Y-95581747D01*
X162826777Y-95598223D01*
X162843253Y-95616401D01*
X162857868Y-95636107D01*
X162870480Y-95657150D01*
X162880970Y-95679329D01*
X162889235Y-95702428D01*
X162895196Y-95726227D01*
X162898796Y-95750495D01*
X162900000Y-95774999D01*
X162900000Y-96425001D01*
X162898796Y-96449505D01*
X162895196Y-96473773D01*
X162889235Y-96497572D01*
X162880970Y-96520671D01*
X162870480Y-96542850D01*
X162857868Y-96563893D01*
X162843253Y-96583599D01*
X162826777Y-96601777D01*
X162808599Y-96618253D01*
X162788893Y-96632868D01*
X162767850Y-96645480D01*
X162745671Y-96655970D01*
X162722572Y-96664235D01*
X162698773Y-96670196D01*
X162674505Y-96673796D01*
X162650001Y-96675000D01*
X161749999Y-96675000D01*
X161725495Y-96673796D01*
X161701227Y-96670196D01*
X161677428Y-96664235D01*
X161654329Y-96655970D01*
X161632150Y-96645480D01*
X161611107Y-96632868D01*
X161591401Y-96618253D01*
X161573223Y-96601777D01*
X161556747Y-96583599D01*
X161542132Y-96563893D01*
X161529520Y-96542850D01*
X161519030Y-96520671D01*
X161510765Y-96497572D01*
X161504804Y-96473773D01*
X161501204Y-96449505D01*
X161500000Y-96425001D01*
X161500000Y-95774999D01*
X161501204Y-95750495D01*
X161504804Y-95726227D01*
X161510765Y-95702428D01*
X161519030Y-95679329D01*
X161529520Y-95657150D01*
X161542132Y-95636107D01*
X161556747Y-95616401D01*
X161573223Y-95598223D01*
X161591401Y-95581747D01*
X161611107Y-95567132D01*
X161632150Y-95554520D01*
X161654329Y-95544030D01*
X161677428Y-95535765D01*
X161701227Y-95529804D01*
X161725495Y-95526204D01*
X161749999Y-95525000D01*
X162650001Y-95525000D01*
X162674505Y-95526204D01*
X162674505Y-95526204D01*
G37*
D20*
G04 #@! TD*
G04 #@! TO.P,C3,2*
G04 #@! TO.N,GNDPWR*
X162200000Y-96100000D03*
D15*
G04 #@! TO.N,Net-(C3-Pad1)*
G04 #@! TO.C,C3*
G36*
X162674505Y-97576204D02*
X162698773Y-97579804D01*
X162722572Y-97585765D01*
X162745671Y-97594030D01*
X162767850Y-97604520D01*
X162788893Y-97617132D01*
X162808599Y-97631747D01*
X162826777Y-97648223D01*
X162843253Y-97666401D01*
X162857868Y-97686107D01*
X162870480Y-97707150D01*
X162880970Y-97729329D01*
X162889235Y-97752428D01*
X162895196Y-97776227D01*
X162898796Y-97800495D01*
X162900000Y-97824999D01*
X162900000Y-98475001D01*
X162898796Y-98499505D01*
X162895196Y-98523773D01*
X162889235Y-98547572D01*
X162880970Y-98570671D01*
X162870480Y-98592850D01*
X162857868Y-98613893D01*
X162843253Y-98633599D01*
X162826777Y-98651777D01*
X162808599Y-98668253D01*
X162788893Y-98682868D01*
X162767850Y-98695480D01*
X162745671Y-98705970D01*
X162722572Y-98714235D01*
X162698773Y-98720196D01*
X162674505Y-98723796D01*
X162650001Y-98725000D01*
X161749999Y-98725000D01*
X161725495Y-98723796D01*
X161701227Y-98720196D01*
X161677428Y-98714235D01*
X161654329Y-98705970D01*
X161632150Y-98695480D01*
X161611107Y-98682868D01*
X161591401Y-98668253D01*
X161573223Y-98651777D01*
X161556747Y-98633599D01*
X161542132Y-98613893D01*
X161529520Y-98592850D01*
X161519030Y-98570671D01*
X161510765Y-98547572D01*
X161504804Y-98523773D01*
X161501204Y-98499505D01*
X161500000Y-98475001D01*
X161500000Y-97824999D01*
X161501204Y-97800495D01*
X161504804Y-97776227D01*
X161510765Y-97752428D01*
X161519030Y-97729329D01*
X161529520Y-97707150D01*
X161542132Y-97686107D01*
X161556747Y-97666401D01*
X161573223Y-97648223D01*
X161591401Y-97631747D01*
X161611107Y-97617132D01*
X161632150Y-97604520D01*
X161654329Y-97594030D01*
X161677428Y-97585765D01*
X161701227Y-97579804D01*
X161725495Y-97576204D01*
X161749999Y-97575000D01*
X162650001Y-97575000D01*
X162674505Y-97576204D01*
X162674505Y-97576204D01*
G37*
D20*
G04 #@! TD*
G04 #@! TO.P,C3,1*
G04 #@! TO.N,Net-(C3-Pad1)*
X162200000Y-98150000D03*
D15*
G04 #@! TO.N,Net-(C4-Pad2)*
G04 #@! TO.C,C4*
G36*
X172049505Y-98301204D02*
X172073773Y-98304804D01*
X172097572Y-98310765D01*
X172120671Y-98319030D01*
X172142850Y-98329520D01*
X172163893Y-98342132D01*
X172183599Y-98356747D01*
X172201777Y-98373223D01*
X172218253Y-98391401D01*
X172232868Y-98411107D01*
X172245480Y-98432150D01*
X172255970Y-98454329D01*
X172264235Y-98477428D01*
X172270196Y-98501227D01*
X172273796Y-98525495D01*
X172275000Y-98549999D01*
X172275000Y-99450001D01*
X172273796Y-99474505D01*
X172270196Y-99498773D01*
X172264235Y-99522572D01*
X172255970Y-99545671D01*
X172245480Y-99567850D01*
X172232868Y-99588893D01*
X172218253Y-99608599D01*
X172201777Y-99626777D01*
X172183599Y-99643253D01*
X172163893Y-99657868D01*
X172142850Y-99670480D01*
X172120671Y-99680970D01*
X172097572Y-99689235D01*
X172073773Y-99695196D01*
X172049505Y-99698796D01*
X172025001Y-99700000D01*
X171374999Y-99700000D01*
X171350495Y-99698796D01*
X171326227Y-99695196D01*
X171302428Y-99689235D01*
X171279329Y-99680970D01*
X171257150Y-99670480D01*
X171236107Y-99657868D01*
X171216401Y-99643253D01*
X171198223Y-99626777D01*
X171181747Y-99608599D01*
X171167132Y-99588893D01*
X171154520Y-99567850D01*
X171144030Y-99545671D01*
X171135765Y-99522572D01*
X171129804Y-99498773D01*
X171126204Y-99474505D01*
X171125000Y-99450001D01*
X171125000Y-98549999D01*
X171126204Y-98525495D01*
X171129804Y-98501227D01*
X171135765Y-98477428D01*
X171144030Y-98454329D01*
X171154520Y-98432150D01*
X171167132Y-98411107D01*
X171181747Y-98391401D01*
X171198223Y-98373223D01*
X171216401Y-98356747D01*
X171236107Y-98342132D01*
X171257150Y-98329520D01*
X171279329Y-98319030D01*
X171302428Y-98310765D01*
X171326227Y-98304804D01*
X171350495Y-98301204D01*
X171374999Y-98300000D01*
X172025001Y-98300000D01*
X172049505Y-98301204D01*
X172049505Y-98301204D01*
G37*
D20*
G04 #@! TD*
G04 #@! TO.P,C4,2*
G04 #@! TO.N,Net-(C4-Pad2)*
X171700000Y-99000000D03*
D15*
G04 #@! TO.N,Net-(C4-Pad1)*
G04 #@! TO.C,C4*
G36*
X174099505Y-98301204D02*
X174123773Y-98304804D01*
X174147572Y-98310765D01*
X174170671Y-98319030D01*
X174192850Y-98329520D01*
X174213893Y-98342132D01*
X174233599Y-98356747D01*
X174251777Y-98373223D01*
X174268253Y-98391401D01*
X174282868Y-98411107D01*
X174295480Y-98432150D01*
X174305970Y-98454329D01*
X174314235Y-98477428D01*
X174320196Y-98501227D01*
X174323796Y-98525495D01*
X174325000Y-98549999D01*
X174325000Y-99450001D01*
X174323796Y-99474505D01*
X174320196Y-99498773D01*
X174314235Y-99522572D01*
X174305970Y-99545671D01*
X174295480Y-99567850D01*
X174282868Y-99588893D01*
X174268253Y-99608599D01*
X174251777Y-99626777D01*
X174233599Y-99643253D01*
X174213893Y-99657868D01*
X174192850Y-99670480D01*
X174170671Y-99680970D01*
X174147572Y-99689235D01*
X174123773Y-99695196D01*
X174099505Y-99698796D01*
X174075001Y-99700000D01*
X173424999Y-99700000D01*
X173400495Y-99698796D01*
X173376227Y-99695196D01*
X173352428Y-99689235D01*
X173329329Y-99680970D01*
X173307150Y-99670480D01*
X173286107Y-99657868D01*
X173266401Y-99643253D01*
X173248223Y-99626777D01*
X173231747Y-99608599D01*
X173217132Y-99588893D01*
X173204520Y-99567850D01*
X173194030Y-99545671D01*
X173185765Y-99522572D01*
X173179804Y-99498773D01*
X173176204Y-99474505D01*
X173175000Y-99450001D01*
X173175000Y-98549999D01*
X173176204Y-98525495D01*
X173179804Y-98501227D01*
X173185765Y-98477428D01*
X173194030Y-98454329D01*
X173204520Y-98432150D01*
X173217132Y-98411107D01*
X173231747Y-98391401D01*
X173248223Y-98373223D01*
X173266401Y-98356747D01*
X173286107Y-98342132D01*
X173307150Y-98329520D01*
X173329329Y-98319030D01*
X173352428Y-98310765D01*
X173376227Y-98304804D01*
X173400495Y-98301204D01*
X173424999Y-98300000D01*
X174075001Y-98300000D01*
X174099505Y-98301204D01*
X174099505Y-98301204D01*
G37*
D20*
G04 #@! TD*
G04 #@! TO.P,C4,1*
G04 #@! TO.N,Net-(C4-Pad1)*
X173750000Y-99000000D03*
D15*
G04 #@! TO.N,Net-(C5-Pad2)*
G04 #@! TO.C,C5*
G36*
X163899505Y-99801204D02*
X163923773Y-99804804D01*
X163947572Y-99810765D01*
X163970671Y-99819030D01*
X163992850Y-99829520D01*
X164013893Y-99842132D01*
X164033599Y-99856747D01*
X164051777Y-99873223D01*
X164068253Y-99891401D01*
X164082868Y-99911107D01*
X164095480Y-99932150D01*
X164105970Y-99954329D01*
X164114235Y-99977428D01*
X164120196Y-100001227D01*
X164123796Y-100025495D01*
X164125000Y-100049999D01*
X164125000Y-100950001D01*
X164123796Y-100974505D01*
X164120196Y-100998773D01*
X164114235Y-101022572D01*
X164105970Y-101045671D01*
X164095480Y-101067850D01*
X164082868Y-101088893D01*
X164068253Y-101108599D01*
X164051777Y-101126777D01*
X164033599Y-101143253D01*
X164013893Y-101157868D01*
X163992850Y-101170480D01*
X163970671Y-101180970D01*
X163947572Y-101189235D01*
X163923773Y-101195196D01*
X163899505Y-101198796D01*
X163875001Y-101200000D01*
X163224999Y-101200000D01*
X163200495Y-101198796D01*
X163176227Y-101195196D01*
X163152428Y-101189235D01*
X163129329Y-101180970D01*
X163107150Y-101170480D01*
X163086107Y-101157868D01*
X163066401Y-101143253D01*
X163048223Y-101126777D01*
X163031747Y-101108599D01*
X163017132Y-101088893D01*
X163004520Y-101067850D01*
X162994030Y-101045671D01*
X162985765Y-101022572D01*
X162979804Y-100998773D01*
X162976204Y-100974505D01*
X162975000Y-100950001D01*
X162975000Y-100049999D01*
X162976204Y-100025495D01*
X162979804Y-100001227D01*
X162985765Y-99977428D01*
X162994030Y-99954329D01*
X163004520Y-99932150D01*
X163017132Y-99911107D01*
X163031747Y-99891401D01*
X163048223Y-99873223D01*
X163066401Y-99856747D01*
X163086107Y-99842132D01*
X163107150Y-99829520D01*
X163129329Y-99819030D01*
X163152428Y-99810765D01*
X163176227Y-99804804D01*
X163200495Y-99801204D01*
X163224999Y-99800000D01*
X163875001Y-99800000D01*
X163899505Y-99801204D01*
X163899505Y-99801204D01*
G37*
D20*
G04 #@! TD*
G04 #@! TO.P,C5,2*
G04 #@! TO.N,Net-(C5-Pad2)*
X163550000Y-100500000D03*
D15*
G04 #@! TO.N,Net-(C5-Pad1)*
G04 #@! TO.C,C5*
G36*
X161849505Y-99801204D02*
X161873773Y-99804804D01*
X161897572Y-99810765D01*
X161920671Y-99819030D01*
X161942850Y-99829520D01*
X161963893Y-99842132D01*
X161983599Y-99856747D01*
X162001777Y-99873223D01*
X162018253Y-99891401D01*
X162032868Y-99911107D01*
X162045480Y-99932150D01*
X162055970Y-99954329D01*
X162064235Y-99977428D01*
X162070196Y-100001227D01*
X162073796Y-100025495D01*
X162075000Y-100049999D01*
X162075000Y-100950001D01*
X162073796Y-100974505D01*
X162070196Y-100998773D01*
X162064235Y-101022572D01*
X162055970Y-101045671D01*
X162045480Y-101067850D01*
X162032868Y-101088893D01*
X162018253Y-101108599D01*
X162001777Y-101126777D01*
X161983599Y-101143253D01*
X161963893Y-101157868D01*
X161942850Y-101170480D01*
X161920671Y-101180970D01*
X161897572Y-101189235D01*
X161873773Y-101195196D01*
X161849505Y-101198796D01*
X161825001Y-101200000D01*
X161174999Y-101200000D01*
X161150495Y-101198796D01*
X161126227Y-101195196D01*
X161102428Y-101189235D01*
X161079329Y-101180970D01*
X161057150Y-101170480D01*
X161036107Y-101157868D01*
X161016401Y-101143253D01*
X160998223Y-101126777D01*
X160981747Y-101108599D01*
X160967132Y-101088893D01*
X160954520Y-101067850D01*
X160944030Y-101045671D01*
X160935765Y-101022572D01*
X160929804Y-100998773D01*
X160926204Y-100974505D01*
X160925000Y-100950001D01*
X160925000Y-100049999D01*
X160926204Y-100025495D01*
X160929804Y-100001227D01*
X160935765Y-99977428D01*
X160944030Y-99954329D01*
X160954520Y-99932150D01*
X160967132Y-99911107D01*
X160981747Y-99891401D01*
X160998223Y-99873223D01*
X161016401Y-99856747D01*
X161036107Y-99842132D01*
X161057150Y-99829520D01*
X161079329Y-99819030D01*
X161102428Y-99810765D01*
X161126227Y-99804804D01*
X161150495Y-99801204D01*
X161174999Y-99800000D01*
X161825001Y-99800000D01*
X161849505Y-99801204D01*
X161849505Y-99801204D01*
G37*
D20*
G04 #@! TD*
G04 #@! TO.P,C5,1*
G04 #@! TO.N,Net-(C5-Pad1)*
X161500000Y-100500000D03*
D15*
G04 #@! TO.N,/temp1n*
G04 #@! TO.C,C1*
G36*
X172499505Y-94101204D02*
X172523773Y-94104804D01*
X172547572Y-94110765D01*
X172570671Y-94119030D01*
X172592850Y-94129520D01*
X172613893Y-94142132D01*
X172633599Y-94156747D01*
X172651777Y-94173223D01*
X172668253Y-94191401D01*
X172682868Y-94211107D01*
X172695480Y-94232150D01*
X172705970Y-94254329D01*
X172714235Y-94277428D01*
X172720196Y-94301227D01*
X172723796Y-94325495D01*
X172725000Y-94349999D01*
X172725000Y-95250001D01*
X172723796Y-95274505D01*
X172720196Y-95298773D01*
X172714235Y-95322572D01*
X172705970Y-95345671D01*
X172695480Y-95367850D01*
X172682868Y-95388893D01*
X172668253Y-95408599D01*
X172651777Y-95426777D01*
X172633599Y-95443253D01*
X172613893Y-95457868D01*
X172592850Y-95470480D01*
X172570671Y-95480970D01*
X172547572Y-95489235D01*
X172523773Y-95495196D01*
X172499505Y-95498796D01*
X172475001Y-95500000D01*
X171824999Y-95500000D01*
X171800495Y-95498796D01*
X171776227Y-95495196D01*
X171752428Y-95489235D01*
X171729329Y-95480970D01*
X171707150Y-95470480D01*
X171686107Y-95457868D01*
X171666401Y-95443253D01*
X171648223Y-95426777D01*
X171631747Y-95408599D01*
X171617132Y-95388893D01*
X171604520Y-95367850D01*
X171594030Y-95345671D01*
X171585765Y-95322572D01*
X171579804Y-95298773D01*
X171576204Y-95274505D01*
X171575000Y-95250001D01*
X171575000Y-94349999D01*
X171576204Y-94325495D01*
X171579804Y-94301227D01*
X171585765Y-94277428D01*
X171594030Y-94254329D01*
X171604520Y-94232150D01*
X171617132Y-94211107D01*
X171631747Y-94191401D01*
X171648223Y-94173223D01*
X171666401Y-94156747D01*
X171686107Y-94142132D01*
X171707150Y-94129520D01*
X171729329Y-94119030D01*
X171752428Y-94110765D01*
X171776227Y-94104804D01*
X171800495Y-94101204D01*
X171824999Y-94100000D01*
X172475001Y-94100000D01*
X172499505Y-94101204D01*
X172499505Y-94101204D01*
G37*
D20*
G04 #@! TD*
G04 #@! TO.P,C1,2*
G04 #@! TO.N,/temp1n*
X172150000Y-94800000D03*
D15*
G04 #@! TO.N,/temp1p*
G04 #@! TO.C,C1*
G36*
X170449505Y-94101204D02*
X170473773Y-94104804D01*
X170497572Y-94110765D01*
X170520671Y-94119030D01*
X170542850Y-94129520D01*
X170563893Y-94142132D01*
X170583599Y-94156747D01*
X170601777Y-94173223D01*
X170618253Y-94191401D01*
X170632868Y-94211107D01*
X170645480Y-94232150D01*
X170655970Y-94254329D01*
X170664235Y-94277428D01*
X170670196Y-94301227D01*
X170673796Y-94325495D01*
X170675000Y-94349999D01*
X170675000Y-95250001D01*
X170673796Y-95274505D01*
X170670196Y-95298773D01*
X170664235Y-95322572D01*
X170655970Y-95345671D01*
X170645480Y-95367850D01*
X170632868Y-95388893D01*
X170618253Y-95408599D01*
X170601777Y-95426777D01*
X170583599Y-95443253D01*
X170563893Y-95457868D01*
X170542850Y-95470480D01*
X170520671Y-95480970D01*
X170497572Y-95489235D01*
X170473773Y-95495196D01*
X170449505Y-95498796D01*
X170425001Y-95500000D01*
X169774999Y-95500000D01*
X169750495Y-95498796D01*
X169726227Y-95495196D01*
X169702428Y-95489235D01*
X169679329Y-95480970D01*
X169657150Y-95470480D01*
X169636107Y-95457868D01*
X169616401Y-95443253D01*
X169598223Y-95426777D01*
X169581747Y-95408599D01*
X169567132Y-95388893D01*
X169554520Y-95367850D01*
X169544030Y-95345671D01*
X169535765Y-95322572D01*
X169529804Y-95298773D01*
X169526204Y-95274505D01*
X169525000Y-95250001D01*
X169525000Y-94349999D01*
X169526204Y-94325495D01*
X169529804Y-94301227D01*
X169535765Y-94277428D01*
X169544030Y-94254329D01*
X169554520Y-94232150D01*
X169567132Y-94211107D01*
X169581747Y-94191401D01*
X169598223Y-94173223D01*
X169616401Y-94156747D01*
X169636107Y-94142132D01*
X169657150Y-94129520D01*
X169679329Y-94119030D01*
X169702428Y-94110765D01*
X169726227Y-94104804D01*
X169750495Y-94101204D01*
X169774999Y-94100000D01*
X170425001Y-94100000D01*
X170449505Y-94101204D01*
X170449505Y-94101204D01*
G37*
D20*
G04 #@! TD*
G04 #@! TO.P,C1,1*
G04 #@! TO.N,/temp1p*
X170100000Y-94800000D03*
D23*
G04 #@! TO.P,J4,2*
G04 #@! TO.N,/temp2n*
X168700000Y-73600000D03*
D24*
G04 #@! TO.P,J4,1*
G04 #@! TO.N,/temp2p*
X166200000Y-73600000D03*
G04 #@! TD*
D23*
G04 #@! TO.P,J3,2*
G04 #@! TO.N,/temp1n*
X177800000Y-73600000D03*
D24*
G04 #@! TO.P,J3,1*
G04 #@! TO.N,/temp1p*
X175300000Y-73600000D03*
G04 #@! TD*
D14*
G04 #@! TO.P,J1,4*
G04 #@! TO.N,GNDPWR*
X152300000Y-92780000D03*
G04 #@! TO.P,J1,3*
G04 #@! TO.N,SDA_iso*
X152300000Y-95320000D03*
G04 #@! TO.P,J1,2*
G04 #@! TO.N,SCL_iso*
X152300000Y-97860000D03*
D13*
G04 #@! TO.P,J1,1*
G04 #@! TO.N,+3V3*
X152300000Y-100400000D03*
G04 #@! TD*
D19*
G04 #@! TO.P,CN1,6*
G04 #@! TO.N,GNDPWR*
X185970000Y-146200000D03*
X185970000Y-141120000D03*
X183430000Y-146200000D03*
X185970000Y-148740000D03*
X183430000Y-141120000D03*
X183430000Y-143660000D03*
X183430000Y-148740000D03*
X185970000Y-143660000D03*
G04 #@! TO.P,CN1,5*
X179640000Y-148740000D03*
X179640000Y-143660000D03*
X177080000Y-143660000D03*
X177080000Y-146200000D03*
X177080000Y-148740000D03*
X179640000Y-146200000D03*
X177080000Y-141120000D03*
X179640000Y-141120000D03*
G04 #@! TO.P,CN1,4*
X170750000Y-148740000D03*
X173290000Y-143660000D03*
X170750000Y-143660000D03*
X173290000Y-141120000D03*
X173290000Y-146200000D03*
X170750000Y-146200000D03*
X170750000Y-141120000D03*
X173290000Y-148740000D03*
G04 #@! TO.P,CN1,3*
G04 #@! TO.N,Net-(CN1-Pad3)*
X164200000Y-146200000D03*
X164200000Y-141120000D03*
X164200000Y-143660000D03*
X164200000Y-148740000D03*
X166740000Y-146200000D03*
X166740000Y-148740000D03*
X166740000Y-141120000D03*
X166740000Y-143660000D03*
G04 #@! TO.P,CN1,2*
G04 #@! TO.N,Net-(CN1-Pad2)*
X160390000Y-146200000D03*
X160390000Y-141120000D03*
X160390000Y-143660000D03*
X160390000Y-148740000D03*
X157850000Y-141120000D03*
X157850000Y-146200000D03*
X157850000Y-143660000D03*
X157850000Y-148740000D03*
G04 #@! TO.P,CN1,C6*
G04 #@! TO.N,PWM_10*
X148330000Y-143660000D03*
G04 #@! TO.P,CN1,A6*
G04 #@! TO.N,PWM_12*
X148330000Y-148740000D03*
G04 #@! TO.P,CN1,B6*
G04 #@! TO.N,PWM_14*
X148330000Y-146200000D03*
G04 #@! TO.P,CN1,D6*
G04 #@! TO.N,PWM_7*
X148330000Y-141120000D03*
G04 #@! TO.P,CN1,C5*
G04 #@! TO.N,PWM_11*
X145790000Y-143660000D03*
G04 #@! TO.P,CN1,A5*
G04 #@! TO.N,PWM_13*
X145790000Y-148740000D03*
G04 #@! TO.P,CN1,B5*
G04 #@! TO.N,PWM_15*
X145790000Y-146200000D03*
G04 #@! TO.P,CN1,D5*
G04 #@! TO.N,PWM_6*
X145790000Y-141120000D03*
G04 #@! TO.P,CN1,C4*
G04 #@! TO.N,PWM_9*
X143250000Y-143660000D03*
G04 #@! TO.P,CN1,A4*
G04 #@! TO.N,/DigitalOutput1*
X143250000Y-148740000D03*
G04 #@! TO.P,CN1,B4*
G04 #@! TO.N,/DigitalOutput2*
X143250000Y-146200000D03*
G04 #@! TO.P,CN1,D4*
G04 #@! TO.N,PWM_5*
X143250000Y-141120000D03*
G04 #@! TO.P,CN1,1*
G04 #@! TO.N,Net-(CN1-Pad1)*
X151500000Y-148740000D03*
X151500000Y-146200000D03*
X151500000Y-143660000D03*
X154040000Y-148740000D03*
X154040000Y-146200000D03*
X154040000Y-143660000D03*
X154040000Y-141120000D03*
X151500000Y-141120000D03*
G04 #@! TO.P,CN1,A1*
G04 #@! TO.N,PWM_0*
X135630000Y-148740000D03*
G04 #@! TO.P,CN1,A3*
G04 #@! TO.N,PWM_3*
X140710000Y-148740000D03*
G04 #@! TO.P,CN1,A2*
G04 #@! TO.N,+5VP*
X138170000Y-148740000D03*
G04 #@! TO.P,CN1,B1*
G04 #@! TO.N,PWM_1*
X135630000Y-146200000D03*
G04 #@! TO.P,CN1,B2*
G04 #@! TO.N,+5VP*
X138170000Y-146200000D03*
G04 #@! TO.P,CN1,B3*
G04 #@! TO.N,PWM_2*
X140710000Y-146200000D03*
G04 #@! TO.P,CN1,C1*
G04 #@! TO.N,SDA_iso*
X135630000Y-143660000D03*
G04 #@! TO.P,CN1,C2*
G04 #@! TO.N,+5VP*
X138170000Y-143660000D03*
G04 #@! TO.P,CN1,C3*
G04 #@! TO.N,PWM_8*
X140710000Y-143660000D03*
G04 #@! TO.P,CN1,D3*
G04 #@! TO.N,PWM_4*
X140710000Y-141120000D03*
G04 #@! TO.P,CN1,D2*
G04 #@! TO.N,+5VP*
X138170000Y-141120000D03*
G04 #@! TO.P,CN1,D1*
G04 #@! TO.N,SCL_iso*
X135630000Y-141120000D03*
G04 #@! TD*
D25*
G04 #@! TO.N,GNDPWR*
X166800000Y-104100000D03*
X163900000Y-97300000D03*
G04 #@! TO.N,+5VP*
X192750000Y-82750000D03*
X189250000Y-89000000D03*
X167100000Y-107200000D03*
X177750000Y-104250000D03*
G04 #@! TO.N,SCL_iso*
X171492828Y-103157492D03*
X186300000Y-95500000D03*
G04 #@! TO.N,Net-(C3-Pad1)*
X175400000Y-101200000D03*
X165700000Y-97100000D03*
G04 #@! TO.N,/DigitalOutput1*
X143932370Y-150500000D03*
G04 #@! TO.N,/DigitalOutput2*
X142750000Y-150750000D03*
G04 #@! TO.N,DigitalOutput3*
X183250000Y-132650000D03*
G04 #@! TO.N,DigitalOutput4*
X177750000Y-132250000D03*
G04 #@! TO.N,DigitalOutput5*
X171750000Y-132000000D03*
G04 #@! TO.N,DigitalOutput6*
X166000000Y-132250000D03*
G04 #@! TD*
D26*
G04 #@! TO.N,GNDPWR*
X183960000Y-106200000D02*
X182750000Y-106200000D01*
X187710000Y-109950000D02*
X183960000Y-106200000D01*
X166800000Y-104100000D02*
X166800000Y-104100000D01*
X166800000Y-104100000D02*
X166700000Y-104100000D01*
X166800000Y-104100000D02*
X166800000Y-104100000D01*
D27*
X163400000Y-97300000D02*
X162200000Y-96100000D01*
X163900000Y-97300000D02*
X163400000Y-97300000D01*
X175250000Y-106300000D02*
X177600000Y-106300000D01*
X177600000Y-106300000D02*
X179250000Y-106300000D01*
X182700000Y-106300000D02*
X182750000Y-106250000D01*
X179250000Y-106300000D02*
X182700000Y-106300000D01*
G04 #@! TO.N,+5VP*
X192750000Y-84200000D02*
X192750000Y-82750000D01*
X189250000Y-89000000D02*
X190725000Y-89000000D01*
X167550000Y-106750000D02*
X167100000Y-107200000D01*
X167550000Y-106062500D02*
X167550000Y-106750000D01*
X166550000Y-106650000D02*
X167100000Y-107200000D01*
X166550000Y-106062500D02*
X166550000Y-106650000D01*
X166050000Y-106150000D02*
X167100000Y-107200000D01*
X166050000Y-106062500D02*
X166050000Y-106150000D01*
X179250000Y-104250000D02*
X181800000Y-104250000D01*
X177750000Y-104250000D02*
X179250000Y-104250000D01*
D28*
G04 #@! TO.N,PWM_0*
X135750000Y-124030000D02*
X134370000Y-122650000D01*
X135750000Y-133868778D02*
X135750000Y-124030000D01*
X137131799Y-135250577D02*
X135750000Y-133868778D01*
X135630000Y-148740000D02*
X137131799Y-147238201D01*
X137131799Y-147238201D02*
X137131799Y-135250577D01*
G04 #@! TO.N,PWM_1*
X136148001Y-121888001D02*
X136910000Y-122650000D01*
X135560000Y-121300000D02*
X136148001Y-121888001D01*
X136668201Y-145161799D02*
X136668201Y-135418201D01*
X135630000Y-146200000D02*
X136668201Y-145161799D01*
X136668201Y-135418201D02*
X133000000Y-131750000D01*
X133000000Y-131750000D02*
X133000000Y-122000000D01*
X133000000Y-122000000D02*
X133700000Y-121300000D01*
X133700000Y-121300000D02*
X135560000Y-121300000D01*
G04 #@! TO.N,PWM_2*
X139208201Y-143620571D02*
X139208201Y-131208201D01*
X140710000Y-146200000D02*
X140710000Y-145122370D01*
X140710000Y-145122370D02*
X139208201Y-143620571D01*
X138688001Y-123411999D02*
X139450000Y-122650000D01*
X138411799Y-123688201D02*
X138688001Y-123411999D01*
X138411799Y-130411799D02*
X138411799Y-123688201D01*
X139208201Y-131208201D02*
X138411799Y-130411799D01*
G04 #@! TO.N,PWM_3*
X142751999Y-123411999D02*
X141990000Y-122650000D01*
X143200000Y-123860000D02*
X142751999Y-123411999D01*
X143200000Y-128300000D02*
X143200000Y-123860000D01*
X141700601Y-129799399D02*
X143200000Y-128300000D01*
X140710000Y-148740000D02*
X141700601Y-147749399D01*
X141700601Y-147749399D02*
X141700601Y-129799399D01*
G04 #@! TO.N,PWM_15*
X146780601Y-145209399D02*
X148590601Y-145209399D01*
X145790000Y-146200000D02*
X146780601Y-145209399D01*
X148590601Y-145209399D02*
X149900000Y-143900000D01*
X149900000Y-141183462D02*
X154183462Y-136900000D01*
X149900000Y-143900000D02*
X149900000Y-141183462D01*
X154183462Y-136900000D02*
X161600000Y-136900000D01*
X162950000Y-135550000D02*
X162950000Y-134000000D01*
X161600000Y-136900000D02*
X162950000Y-135550000D01*
G04 #@! TO.N,PWM_14*
X148330000Y-146200000D02*
X149530000Y-145000000D01*
X149530000Y-145000000D02*
X155100000Y-145000000D01*
X155100000Y-145000000D02*
X156500000Y-143600000D01*
X156500000Y-140933462D02*
X158633462Y-138800000D01*
X156500000Y-143600000D02*
X156500000Y-140933462D01*
X162997600Y-138800000D02*
X165397600Y-136400000D01*
X158633462Y-138800000D02*
X162997600Y-138800000D01*
X165397600Y-136400000D02*
X167500000Y-136400000D01*
X168450000Y-135450000D02*
X168450000Y-134000000D01*
X167500000Y-136400000D02*
X168450000Y-135450000D01*
G04 #@! TO.N,PWM_13*
X145790000Y-148740000D02*
X147230000Y-147300000D01*
X154476538Y-147300000D02*
X156876538Y-144900000D01*
X147230000Y-147300000D02*
X154476538Y-147300000D01*
X156876538Y-144900000D02*
X160900000Y-144900000D01*
X160900000Y-144900000D02*
X162000000Y-143800000D01*
X162000000Y-143800000D02*
X162000000Y-140900000D01*
X162000000Y-140900000D02*
X164000000Y-138900000D01*
X164000000Y-138900000D02*
X172300000Y-138900000D01*
X174500000Y-136700000D02*
X174500000Y-134000000D01*
X172300000Y-138900000D02*
X174500000Y-136700000D01*
G04 #@! TO.N,PWM_12*
X150445831Y-147701799D02*
X161001799Y-147701799D01*
X148330000Y-148740000D02*
X149407630Y-148740000D01*
X149407630Y-148740000D02*
X150445831Y-147701799D01*
X161001799Y-147701799D02*
X162700000Y-146003598D01*
X162700000Y-146003598D02*
X162700000Y-141000000D01*
X162700000Y-141000000D02*
X164200000Y-139500000D01*
X164200000Y-139500000D02*
X178000000Y-139500000D01*
X180000000Y-137500000D02*
X180000000Y-134000000D01*
X178000000Y-139500000D02*
X180000000Y-137500000D01*
D26*
G04 #@! TO.N,+3V3*
X129500000Y-99442081D02*
X129500000Y-100780000D01*
X129500000Y-98240000D02*
X129500000Y-99442081D01*
X183700000Y-104150000D02*
X183700000Y-104200000D01*
X182050000Y-102500000D02*
X183700000Y-104150000D01*
X176075000Y-102500000D02*
X182050000Y-102500000D01*
D27*
X176075000Y-102500000D02*
X176000000Y-102500000D01*
X175250000Y-103250000D02*
X175250000Y-104250000D01*
X176000000Y-102500000D02*
X175250000Y-103250000D01*
X160310690Y-110689310D02*
X154900000Y-105278620D01*
X175250000Y-104250000D02*
X174450000Y-104250000D01*
X174450000Y-104250000D02*
X168010690Y-110689310D01*
X160510690Y-110900000D02*
X160310690Y-110700000D01*
X168010690Y-110700000D02*
X167810690Y-110900000D01*
X167810690Y-110900000D02*
X160510690Y-110900000D01*
X154900000Y-105278620D02*
X154878620Y-105278620D01*
X152300000Y-102700000D02*
X152300000Y-100400000D01*
X154878620Y-105278620D02*
X152300000Y-102700000D01*
X129880000Y-100400000D02*
X129500000Y-100780000D01*
X152300000Y-100400000D02*
X129880000Y-100400000D01*
D26*
G04 #@! TO.N,/temp1n*
X171526628Y-94176628D02*
X172150000Y-94800000D01*
X171124990Y-93774990D02*
X171526628Y-94176628D01*
X169536820Y-93774990D02*
X171124990Y-93774990D01*
X169000000Y-94311810D02*
X169536820Y-93774990D01*
X169000000Y-100175000D02*
X169000000Y-94311810D01*
D27*
X167550000Y-101625000D02*
X167550000Y-102137500D01*
X169000000Y-100175000D02*
X167550000Y-101625000D01*
X177800000Y-73450000D02*
X177800000Y-73600000D01*
X176635699Y-72285699D02*
X177800000Y-73450000D01*
X174198559Y-72285699D02*
X176635699Y-72285699D01*
X172150000Y-74334258D02*
X174198559Y-72285699D01*
X172150000Y-94800000D02*
X172150000Y-74334258D01*
G04 #@! TO.N,/temp1p*
X170087500Y-100100000D02*
X168050000Y-102137500D01*
X170087500Y-100100000D02*
X170087500Y-96862520D01*
X170100000Y-96850020D02*
X170100000Y-94800000D01*
X170087500Y-96862520D02*
X170100000Y-96850020D01*
X175300000Y-74828600D02*
X173700000Y-76428600D01*
X175300000Y-73600000D02*
X175300000Y-74828600D01*
X173700000Y-94823058D02*
X172523058Y-96000000D01*
X173700000Y-76428600D02*
X173700000Y-94823058D01*
X171300000Y-96000000D02*
X170100000Y-94800000D01*
X172523058Y-96000000D02*
X171300000Y-96000000D01*
G04 #@! TO.N,/temp2n*
X166550000Y-101625000D02*
X166550000Y-102137500D01*
X166550000Y-92100000D02*
X166550000Y-101625000D01*
X166150000Y-91700000D02*
X166550000Y-92100000D01*
X166150000Y-90900000D02*
X166150000Y-91700000D01*
X165098559Y-72285699D02*
X164200000Y-73184258D01*
X167535699Y-72285699D02*
X165098559Y-72285699D01*
X168700000Y-73600000D02*
X168700000Y-73450000D01*
X168700000Y-73450000D02*
X167535699Y-72285699D01*
X164200000Y-88950000D02*
X166150000Y-90900000D01*
X164200000Y-73184258D02*
X164200000Y-88950000D01*
G04 #@! TO.N,/temp2p*
X167050000Y-92050000D02*
X167050000Y-102137500D01*
X168200000Y-90900000D02*
X167050000Y-92050000D01*
X166200000Y-88900000D02*
X168200000Y-90900000D01*
X166200000Y-73600000D02*
X166200000Y-88900000D01*
D26*
G04 #@! TO.N,SCL_iso*
X129290000Y-115030000D02*
X187710000Y-115030000D01*
X169800320Y-104850000D02*
X171092829Y-103557491D01*
X171092829Y-103557491D02*
X171492828Y-103157492D01*
D27*
X192775000Y-89025000D02*
X192775000Y-89000000D01*
X186300000Y-95500000D02*
X192775000Y-89025000D01*
X196280000Y-89000000D02*
X196500000Y-88780000D01*
X192775000Y-89000000D02*
X196280000Y-89000000D01*
X128528001Y-115791999D02*
X129290000Y-115030000D01*
X128213699Y-116106301D02*
X128528001Y-115791999D01*
X128213699Y-134781329D02*
X128213699Y-116106301D01*
X134552370Y-141120000D02*
X128213699Y-134781329D01*
X135630000Y-141120000D02*
X134552370Y-141120000D01*
X169800320Y-104850000D02*
X168762500Y-104850000D01*
X130860000Y-84180000D02*
X129500000Y-85540000D01*
X157300000Y-84180000D02*
X130860000Y-84180000D01*
X157300000Y-84180000D02*
X155200000Y-86280000D01*
X155200000Y-94960000D02*
X152300000Y-97860000D01*
X155200000Y-86280000D02*
X155200000Y-94960000D01*
D26*
G04 #@! TO.N,SDA_iso*
X187710000Y-117570000D02*
X129290000Y-117570000D01*
X187710000Y-117570000D02*
X190500000Y-114780000D01*
X190500000Y-114780000D02*
X190500000Y-106400000D01*
X190500000Y-106400000D02*
X184400000Y-100300000D01*
X184400000Y-100300000D02*
X184400000Y-92800000D01*
X182700000Y-102000000D02*
X184400000Y-100300000D01*
X173836411Y-102000000D02*
X182700000Y-102000000D01*
X170486411Y-105350000D02*
X173836411Y-102000000D01*
D27*
X192760000Y-86240000D02*
X192750000Y-86250000D01*
X196500000Y-86240000D02*
X192760000Y-86240000D01*
X190950000Y-86250000D02*
X184400000Y-92800000D01*
X192750000Y-86250000D02*
X190950000Y-86250000D01*
X168762500Y-105350000D02*
X170486411Y-105350000D01*
D26*
G04 #@! TO.N,Net-(C3-Pad1)*
X169275000Y-104350000D02*
X172425000Y-101200000D01*
X172425000Y-101200000D02*
X175400000Y-101200000D01*
X164650000Y-98150000D02*
X165700000Y-97100000D01*
X162200000Y-98150000D02*
X164650000Y-98150000D01*
D27*
X168762500Y-104350000D02*
X169275000Y-104350000D01*
G04 #@! TO.N,Net-(C8-Pad2)*
X163900000Y-103850000D02*
X162000000Y-105750000D01*
X164837500Y-103850000D02*
X163900000Y-103850000D01*
G04 #@! TO.N,Net-(C7-Pad2)*
X162623372Y-109176628D02*
X162000000Y-109800000D01*
X163442921Y-108357079D02*
X162623372Y-109176628D01*
X164392110Y-104850000D02*
X163442921Y-105799189D01*
X164837500Y-104850000D02*
X164392110Y-104850000D01*
X163442921Y-105799189D02*
X163442921Y-108357079D01*
G04 #@! TO.N,Net-(C6-Pad1)*
X164837500Y-108887500D02*
X165200000Y-109250000D01*
X164837500Y-105350000D02*
X164837500Y-108887500D01*
G04 #@! TO.N,Net-(C6-Pad2)*
X165550000Y-106575000D02*
X166000000Y-107025000D01*
X165550000Y-106062500D02*
X165550000Y-106575000D01*
X166000000Y-108000000D02*
X167250000Y-109250000D01*
X166000000Y-107025000D02*
X166000000Y-108000000D01*
G04 #@! TO.N,Net-(C8-Pad1)*
X164325000Y-103350000D02*
X164837500Y-103350000D01*
X163150000Y-103350000D02*
X164325000Y-103350000D01*
X162800000Y-103700000D02*
X163150000Y-103350000D01*
X162000000Y-103700000D02*
X162800000Y-103700000D01*
G04 #@! TO.N,Net-(C7-Pad1)*
X164285963Y-104350000D02*
X164325000Y-104350000D01*
X163014310Y-105621653D02*
X164285963Y-104350000D01*
X163014310Y-106308748D02*
X163014310Y-105621653D01*
X162000000Y-107323058D02*
X163014310Y-106308748D01*
X164325000Y-104350000D02*
X164837500Y-104350000D01*
X162000000Y-107750000D02*
X162000000Y-107323058D01*
G04 #@! TO.N,/DigitalOutput1*
X193250000Y-99650000D02*
X196500000Y-96400000D01*
X193250000Y-131250000D02*
X193250000Y-99650000D01*
X189750000Y-134750000D02*
X193250000Y-131250000D01*
X189750000Y-146552926D02*
X189750000Y-134750000D01*
X185802926Y-150500000D02*
X189750000Y-146552926D01*
X143932370Y-150500000D02*
X185802926Y-150500000D01*
G04 #@! TO.N,/DigitalOutput2*
X196500000Y-98940000D02*
X194500000Y-100940000D01*
X194500000Y-137250000D02*
X190250000Y-141500000D01*
X194500000Y-100940000D02*
X194500000Y-137250000D01*
X190250000Y-141500000D02*
X190250000Y-146750000D01*
X190250000Y-146750000D02*
X185750000Y-151250000D01*
X143250000Y-151250000D02*
X142750000Y-150750000D01*
X185750000Y-151250000D02*
X143250000Y-151250000D01*
G04 #@! TO.N,DigitalOutput3*
X181900000Y-134000000D02*
X183250000Y-132650000D01*
X181300000Y-134000000D02*
X181900000Y-134000000D01*
X183250000Y-132650000D02*
X183250000Y-132650000D01*
X183250000Y-132650000D02*
X183250000Y-132650000D01*
G04 #@! TO.N,DigitalOutput4*
X176000000Y-134000000D02*
X175800000Y-134000000D01*
X177750000Y-132250000D02*
X176000000Y-134000000D01*
G04 #@! TO.N,DigitalOutput5*
X169750000Y-134000000D02*
X170274774Y-133475226D01*
X170274774Y-133475226D02*
X171750000Y-132000000D01*
X171750000Y-132000000D02*
X171750000Y-132000000D01*
G04 #@! TO.N,DigitalOutput6*
X164250000Y-134000000D02*
X164774774Y-133475226D01*
X164774774Y-133475226D02*
X166000000Y-132250000D01*
X166000000Y-132250000D02*
X166000000Y-132250000D01*
G04 #@! TO.N,Net-(C5-Pad2)*
X166050000Y-101625000D02*
X166050000Y-102137500D01*
X164925000Y-100500000D02*
X166050000Y-101625000D01*
X163550000Y-100500000D02*
X164925000Y-100500000D01*
G04 #@! TO.N,Net-(C5-Pad1)*
X162123372Y-101123372D02*
X161500000Y-100500000D01*
X163654290Y-102654290D02*
X162123372Y-101123372D01*
X164641790Y-102654290D02*
X163654290Y-102654290D01*
X164837500Y-102850000D02*
X164641790Y-102654290D01*
G04 #@! TO.N,Net-(C4-Pad1)*
X169400000Y-103350000D02*
X173750000Y-99000000D01*
X168762500Y-103350000D02*
X169400000Y-103350000D01*
G04 #@! TO.N,Net-(C4-Pad2)*
X171076628Y-100535872D02*
X168762500Y-102850000D01*
X171700000Y-99000000D02*
X171076628Y-99623372D01*
X171076628Y-99623372D02*
X171076628Y-100535872D01*
D28*
G04 #@! TO.N,PWM_12_*
X177512411Y-120147589D02*
X184897589Y-120147589D01*
X185500000Y-120750000D02*
X185500000Y-129000000D01*
X185500000Y-129000000D02*
X181526201Y-132973799D01*
X178878609Y-132973799D02*
X178700000Y-133152408D01*
X181526201Y-132973799D02*
X178878609Y-132973799D01*
X178700000Y-133152408D02*
X178700000Y-134000000D01*
X175010000Y-122650000D02*
X177512411Y-120147589D01*
X184897589Y-120147589D02*
X185500000Y-120750000D01*
G04 #@! TO.N,PWM_13_*
X178311999Y-121888001D02*
X177550000Y-122650000D01*
X178511999Y-121888001D02*
X178311999Y-121888001D01*
X179900000Y-120500000D02*
X178511999Y-121888001D01*
X184500000Y-120500000D02*
X179900000Y-120500000D01*
X185000000Y-121000000D02*
X184500000Y-120500000D01*
X173723799Y-133029039D02*
X173779039Y-132973799D01*
X173200000Y-134000000D02*
X173723799Y-133476201D01*
X181445191Y-131554809D02*
X185000000Y-128000000D01*
X173723799Y-133476201D02*
X173723799Y-133029039D01*
X185000000Y-128000000D02*
X185000000Y-121000000D01*
X173779039Y-132973799D02*
X174226201Y-132973799D01*
X174226201Y-132973799D02*
X175645191Y-131554809D01*
X175645191Y-131554809D02*
X181445191Y-131554809D01*
G04 #@! TO.N,PWM_14_*
X167150000Y-132600000D02*
X167150000Y-134000000D01*
X181740000Y-121000000D02*
X184000000Y-121000000D01*
X184000000Y-121000000D02*
X184500000Y-121500000D01*
X180090000Y-122650000D02*
X181740000Y-121000000D01*
X184500000Y-121500000D02*
X184500000Y-128000000D01*
X184500000Y-128000000D02*
X181500000Y-131000000D01*
X168750000Y-131000000D02*
X167150000Y-132600000D01*
X181500000Y-131000000D02*
X168750000Y-131000000D01*
G04 #@! TO.N,PWM_15_*
X181868001Y-123411999D02*
X182630000Y-122650000D01*
X161650000Y-132350000D02*
X163750000Y-130250000D01*
X161650000Y-134000000D02*
X161650000Y-132350000D01*
X163750000Y-130250000D02*
X179250000Y-130250000D01*
X181500000Y-128000000D02*
X181500000Y-123780000D01*
X179250000Y-130250000D02*
X181500000Y-128000000D01*
X181500000Y-123780000D02*
X181868001Y-123411999D01*
D27*
G04 #@! TO.N,Net-(J7-Pad3)*
X157300000Y-94340000D02*
X159600000Y-92040000D01*
X159600000Y-79134258D02*
X154065742Y-73600000D01*
X159600000Y-92040000D02*
X159600000Y-79134258D01*
X154065742Y-73600000D02*
X148500000Y-73600000D01*
G04 #@! TD*
M02*
