G04 #@! TF.GenerationSoftware,KiCad,Pcbnew,(5.0.0)*
G04 #@! TF.CreationDate,2019-02-22T13:26:14-05:00*
G04 #@! TF.ProjectId,_saved_sensor_suite,5F73617665645F73656E736F725F7375,rev?*
G04 #@! TF.SameCoordinates,Original*
G04 #@! TF.FileFunction,Soldermask,Bot*
G04 #@! TF.FilePolarity,Negative*
%FSLAX46Y46*%
G04 Gerber Fmt 4.6, Leading zero omitted, Abs format (unit mm)*
G04 Created by KiCad (PCBNEW (5.0.0)) date 02/22/19 13:26:14*
%MOMM*%
%LPD*%
G01*
G04 APERTURE LIST*
%ADD10R,1.700000X1.950000*%
%ADD11O,1.700000X1.950000*%
%ADD12C,4.000000*%
%ADD13R,1.700000X1.700000*%
%ADD14O,1.700000X1.700000*%
%ADD15C,1.524000*%
%ADD16O,1.700000X2.000000*%
%ADD17R,1.700000X2.000000*%
%ADD18C,2.540000*%
G04 APERTURE END LIST*
D10*
G04 #@! TO.C,J7*
X143500000Y-73600000D03*
D11*
X146000000Y-73600000D03*
X148500000Y-73600000D03*
G04 #@! TD*
D12*
G04 #@! TO.C,U2*
X134250000Y-137250000D03*
X183250000Y-137250000D03*
X183250000Y-79250000D03*
X134250000Y-79250000D03*
G04 #@! TD*
D13*
G04 #@! TO.C,J8*
X157300000Y-79100000D03*
D14*
X157300000Y-81640000D03*
X157300000Y-84180000D03*
X157300000Y-86720000D03*
X157300000Y-89260000D03*
X157300000Y-91800000D03*
X157300000Y-94340000D03*
X157300000Y-96880000D03*
X157300000Y-99420000D03*
X157300000Y-101960000D03*
G04 #@! TD*
D13*
G04 #@! TO.C,J6*
X196500000Y-83700000D03*
D14*
X199040000Y-83700000D03*
X196500000Y-86240000D03*
X199040000Y-86240000D03*
X196500000Y-88780000D03*
X199040000Y-88780000D03*
X196500000Y-91320000D03*
X199040000Y-91320000D03*
X196500000Y-93860000D03*
X199040000Y-93860000D03*
X196500000Y-96400000D03*
X199040000Y-96400000D03*
X196500000Y-98940000D03*
X199040000Y-98940000D03*
X196500000Y-101480000D03*
X199040000Y-101480000D03*
X196500000Y-104020000D03*
X199040000Y-104020000D03*
X196500000Y-106560000D03*
X199040000Y-106560000D03*
X196500000Y-109100000D03*
X199040000Y-109100000D03*
X196500000Y-111640000D03*
X199040000Y-111640000D03*
X196500000Y-114180000D03*
X199040000Y-114180000D03*
X196500000Y-116720000D03*
X199040000Y-116720000D03*
X196500000Y-119260000D03*
X199040000Y-119260000D03*
X196500000Y-121800000D03*
X199040000Y-121800000D03*
X196500000Y-124340000D03*
X199040000Y-124340000D03*
X196500000Y-126880000D03*
X199040000Y-126880000D03*
X196500000Y-129420000D03*
X199040000Y-129420000D03*
X196500000Y-131960000D03*
X199040000Y-131960000D03*
G04 #@! TD*
D15*
G04 #@! TO.C,J2*
X129320000Y-117540000D03*
X129320000Y-115000000D03*
X129320000Y-120080000D03*
X129320000Y-112460000D03*
X129320000Y-109920000D03*
X129320000Y-122620000D03*
X187740000Y-117540000D03*
X187740000Y-120080000D03*
X187740000Y-115000000D03*
X187740000Y-112460000D03*
X187740000Y-109920000D03*
X187740000Y-122620000D03*
X134400000Y-127700000D03*
X134400000Y-125160000D03*
X134400000Y-122620000D03*
X136940000Y-122620000D03*
X136940000Y-127700000D03*
X136940000Y-125160000D03*
X139480000Y-122620000D03*
X139480000Y-127700000D03*
X139480000Y-125160000D03*
X142020000Y-122620000D03*
X142020000Y-127700000D03*
X142020000Y-125160000D03*
X147100000Y-122620000D03*
X147100000Y-127700000D03*
X147100000Y-125160000D03*
X149640000Y-122620000D03*
X149640000Y-127700000D03*
X149640000Y-125160000D03*
X152180000Y-122620000D03*
X152180000Y-127700000D03*
X152180000Y-125160000D03*
X154720000Y-122620000D03*
X154720000Y-127700000D03*
X154720000Y-125160000D03*
X162340000Y-122620000D03*
X162340000Y-127700000D03*
X162340000Y-125160000D03*
X164880000Y-122620000D03*
X164880000Y-125160000D03*
X164880000Y-127700000D03*
X167420000Y-122620000D03*
X167420000Y-125160000D03*
X167420000Y-127700000D03*
X169960000Y-122620000D03*
X169960000Y-125160000D03*
X169960000Y-127700000D03*
X182660000Y-122620000D03*
X182660000Y-127700000D03*
X182660000Y-125160000D03*
X180120000Y-122620000D03*
X180120000Y-125160000D03*
X180120000Y-127700000D03*
X177580000Y-127700000D03*
X177580000Y-125160000D03*
X177580000Y-122620000D03*
X175040000Y-122620000D03*
X175040000Y-125160000D03*
X175040000Y-127700000D03*
G04 #@! TD*
D14*
G04 #@! TO.C,J5*
X129500000Y-100780000D03*
X129500000Y-98240000D03*
X129500000Y-95700000D03*
X129500000Y-93160000D03*
X129500000Y-90620000D03*
X129500000Y-88080000D03*
X129500000Y-85540000D03*
D13*
X129500000Y-83000000D03*
G04 #@! TD*
D16*
G04 #@! TO.C,J4*
X168700000Y-73600000D03*
D17*
X166200000Y-73600000D03*
G04 #@! TD*
D16*
G04 #@! TO.C,J3*
X177800000Y-73600000D03*
D17*
X175300000Y-73600000D03*
G04 #@! TD*
D14*
G04 #@! TO.C,J1*
X152300000Y-92780000D03*
X152300000Y-95320000D03*
X152300000Y-97860000D03*
D13*
X152300000Y-100400000D03*
G04 #@! TD*
D18*
G04 #@! TO.C,CN1*
X129910000Y-146200000D03*
X192140000Y-146200000D03*
D15*
X185970000Y-146200000D03*
X185970000Y-141120000D03*
X183430000Y-146200000D03*
X185970000Y-148740000D03*
X183430000Y-141120000D03*
X183430000Y-143660000D03*
X183430000Y-148740000D03*
X185970000Y-143660000D03*
X179640000Y-148740000D03*
X179640000Y-143660000D03*
X177080000Y-143660000D03*
X177080000Y-146200000D03*
X177080000Y-148740000D03*
X179640000Y-146200000D03*
X177080000Y-141120000D03*
X179640000Y-141120000D03*
X170750000Y-148740000D03*
X173290000Y-143660000D03*
X170750000Y-143660000D03*
X173290000Y-141120000D03*
X173290000Y-146200000D03*
X170750000Y-146200000D03*
X170750000Y-141120000D03*
X173290000Y-148740000D03*
X164200000Y-146200000D03*
X164200000Y-141120000D03*
X164200000Y-143660000D03*
X164200000Y-148740000D03*
X166740000Y-146200000D03*
X166740000Y-148740000D03*
X166740000Y-141120000D03*
X166740000Y-143660000D03*
X160390000Y-146200000D03*
X160390000Y-141120000D03*
X160390000Y-143660000D03*
X160390000Y-148740000D03*
X157850000Y-141120000D03*
X157850000Y-146200000D03*
X157850000Y-143660000D03*
X157850000Y-148740000D03*
X148330000Y-143660000D03*
X148330000Y-148740000D03*
X148330000Y-146200000D03*
X148330000Y-141120000D03*
X145790000Y-143660000D03*
X145790000Y-148740000D03*
X145790000Y-146200000D03*
X145790000Y-141120000D03*
X143250000Y-143660000D03*
X143250000Y-148740000D03*
X143250000Y-146200000D03*
X143250000Y-141120000D03*
X151500000Y-148740000D03*
X151500000Y-146200000D03*
X151500000Y-143660000D03*
X154040000Y-148740000D03*
X154040000Y-146200000D03*
X154040000Y-143660000D03*
X154040000Y-141120000D03*
X151500000Y-141120000D03*
X135630000Y-148740000D03*
X140710000Y-148740000D03*
X138170000Y-148740000D03*
X135630000Y-146200000D03*
X138170000Y-146200000D03*
X140710000Y-146200000D03*
X135630000Y-143660000D03*
X138170000Y-143660000D03*
X140710000Y-143660000D03*
X140710000Y-141120000D03*
X138170000Y-141120000D03*
X135630000Y-141120000D03*
G04 #@! TD*
M02*
