M48
;DRILL file {KiCad (5.0.0)} date 02/22/19 13:26:28
;FORMAT={-:-/ absolute / inch / decimal}
FMAT,2
INCH,TZ
T1C0.0157
T2C0.0300
T3C0.0374
T4C0.0394
T5C0.0400
T6C0.0984
%
G90
G05
M72
T1
X5.6201Y-5.935
X5.6666Y-5.9252
X6.4528Y-3.8307
X6.5236Y-3.8228
X6.5354Y-5.2067
X6.5669Y-4.0984
X6.5787Y-4.2205
X6.7517Y-4.0613
X6.7618Y-5.1969
X6.9055Y-3.9843
X6.998Y-4.1043
X6.998Y-5.2067
X7.2146Y-5.2224
X7.3346Y-3.7598
X7.4508Y-3.5039
X7.5886Y-3.2579
T2
X5.0913Y-4.3276
X5.0913Y-4.4276
X5.0913Y-4.5276
X5.0913Y-4.6276
X5.0913Y-4.7276
X5.0913Y-4.8276
X5.2913Y-4.8276
X5.2913Y-4.9276
X5.2913Y-5.0276
X5.3913Y-4.8276
X5.3913Y-4.9276
X5.3913Y-5.0276
X5.4913Y-4.8276
X5.4913Y-4.9276
X5.4913Y-5.0276
X5.5913Y-4.8276
X5.5913Y-4.9276
X5.5913Y-5.0276
X5.7913Y-4.8276
X5.7913Y-4.9276
X5.7913Y-5.0276
X5.8913Y-4.8276
X5.8913Y-4.9276
X5.8913Y-5.0276
X5.9913Y-4.8276
X5.9913Y-4.9276
X5.9913Y-5.0276
X6.0913Y-4.8276
X6.0913Y-4.9276
X6.0913Y-5.0276
X6.3913Y-4.8276
X6.3913Y-4.9276
X6.3913Y-5.0276
X6.4913Y-4.8276
X6.4913Y-4.9276
X6.4913Y-5.0276
X6.5913Y-4.8276
X6.5913Y-4.9276
X6.5913Y-5.0276
X6.6913Y-4.8276
X6.6913Y-4.9276
X6.6913Y-5.0276
X6.8913Y-4.8276
X6.8913Y-4.9276
X6.8913Y-5.0276
X6.9913Y-4.8276
X6.9913Y-4.9276
X6.9913Y-5.0276
X7.0913Y-4.8276
X7.0913Y-4.9276
X7.0913Y-5.0276
X7.1913Y-4.8276
X7.1913Y-4.9276
X7.1913Y-5.0276
X7.3913Y-4.3276
X7.3913Y-4.4276
X7.3913Y-4.5276
X7.3913Y-4.6276
X7.3913Y-4.7276
X7.3913Y-4.8276
T3
X5.6496Y-2.8976
X5.748Y-2.8976
X5.8465Y-2.8976
T4
X6.5433Y-2.8976
X6.6417Y-2.8976
X5.0984Y-3.2677
X5.0984Y-3.3677
X5.0984Y-3.4677
X5.0984Y-3.5677
X5.0984Y-3.6677
X5.0984Y-3.7677
X5.0984Y-3.8677
X5.0984Y-3.9677
X6.1929Y-3.1142
X6.1929Y-3.2142
X6.1929Y-3.3142
X6.1929Y-3.4142
X6.1929Y-3.5142
X6.1929Y-3.6142
X6.1929Y-3.7142
X6.1929Y-3.8142
X6.1929Y-3.9142
X6.1929Y-4.0142
X7.7362Y-3.2953
X7.7362Y-3.3953
X7.7362Y-3.4953
X7.7362Y-3.5953
X7.7362Y-3.6953
X7.7362Y-3.7953
X7.7362Y-3.8953
X7.7362Y-3.9953
X7.7362Y-4.0953
X7.7362Y-4.1953
X7.7362Y-4.2953
X7.7362Y-4.3953
X7.7362Y-4.4953
X7.7362Y-4.5953
X7.7362Y-4.6953
X7.7362Y-4.7953
X7.7362Y-4.8953
X7.7362Y-4.9953
X7.7362Y-5.0953
X7.7362Y-5.1953
X7.8362Y-3.2953
X7.8362Y-3.3953
X7.8362Y-3.4953
X7.8362Y-3.5953
X7.8362Y-3.6953
X7.8362Y-3.7953
X7.8362Y-3.8953
X7.8362Y-3.9953
X7.8362Y-4.0953
X7.8362Y-4.1953
X7.8362Y-4.2953
X7.8362Y-4.3953
X7.8362Y-4.4953
X7.8362Y-4.5953
X7.8362Y-4.6953
X7.8362Y-4.7953
X7.8362Y-4.8953
X7.8362Y-4.9953
X7.8362Y-5.0953
X7.8362Y-5.1953
X5.9961Y-3.6528
X5.9961Y-3.7528
X5.9961Y-3.8528
X5.9961Y-3.9528
X6.9016Y-2.8976
X7.Y-2.8976
T5
X5.3398Y-5.5559
X5.3398Y-5.6559
X5.3398Y-5.7559
X5.3398Y-5.8559
X5.4398Y-5.5559
X5.4398Y-5.6559
X5.4398Y-5.7559
X5.4398Y-5.8559
X5.5398Y-5.5559
X5.5398Y-5.6559
X5.5398Y-5.7559
X5.5398Y-5.8559
X5.6398Y-5.5559
X5.6398Y-5.6559
X5.6398Y-5.7559
X5.6398Y-5.8559
X5.7398Y-5.5559
X5.7398Y-5.6559
X5.7398Y-5.7559
X5.7398Y-5.8559
X5.8398Y-5.5559
X5.8398Y-5.6559
X5.8398Y-5.7559
X5.8398Y-5.8559
X5.9646Y-5.5559
X5.9646Y-5.6559
X5.9646Y-5.7559
X5.9646Y-5.8559
X6.0646Y-5.5559
X6.0646Y-5.6559
X6.0646Y-5.7559
X6.0646Y-5.8559
X6.2146Y-5.5559
X6.2146Y-5.6559
X6.2146Y-5.7559
X6.2146Y-5.8559
X6.3146Y-5.5559
X6.3146Y-5.6559
X6.3146Y-5.7559
X6.3146Y-5.8559
X6.4646Y-5.5559
X6.4646Y-5.6559
X6.4646Y-5.7559
X6.4646Y-5.8559
X6.5646Y-5.5559
X6.5646Y-5.6559
X6.5646Y-5.7559
X6.5646Y-5.8559
X6.7224Y-5.5559
X6.7224Y-5.6559
X6.7224Y-5.7559
X6.7224Y-5.8559
X6.8224Y-5.5559
X6.8224Y-5.6559
X6.8224Y-5.7559
X6.8224Y-5.8559
X6.9717Y-5.5559
X6.9717Y-5.6559
X6.9717Y-5.7559
X6.9717Y-5.8559
X7.0724Y-5.5559
X7.0724Y-5.6559
X7.0724Y-5.7559
X7.0724Y-5.8559
X7.2217Y-5.5559
X7.2217Y-5.6559
X7.2217Y-5.7559
X7.2217Y-5.8559
X7.3217Y-5.5559
X7.3217Y-5.6559
X7.3217Y-5.7559
X7.3217Y-5.8559
T6
X5.2854Y-3.1201
X5.2854Y-5.4035
X7.2146Y-3.1201
X7.2146Y-5.4035
T0
M30
